<svg xmlns="http://www.w3.org/2000/svg" viewBox="0 0 313.31 764.51"><defs><style>.cls-1{fill:#f4f3f4;}</style></defs><g id="Слой_2" data-name="Слой 2"><g id="Слой_1-2" data-name="Слой 1"><g id="Слой_2-2" data-name="Слой 2"><g id="Слой_1-2-2" data-name="Слой 1-2"><path class="cls-1" d="M135.78,698.65a168.73,168.73,0,0,0,15.5,12.18L112.73,717l7.66,47.51L313.3,733.58V671.14l-3.71,2.92A102.05,102.05,0,0,1,285.85,688a122.82,122.82,0,0,1-28.32,7.93,120.47,120.47,0,0,1-29.32,1.22,103.74,103.74,0,0,1-27.06-6,96.76,96.76,0,0,1-24-12.77A104.54,104.54,0,0,1,157,659a110.22,110.22,0,0,1-14.71-24,106.25,106.25,0,0,1-7.89-26.57,101.26,101.26,0,0,1-.75-27.27,103.87,103.87,0,0,1,6.63-26.66,102,102,0,0,1,13.45-24.33,110.59,110.59,0,0,1,20-20.38,113.92,113.92,0,0,1,24.37-14.91A106,106,0,0,1,224.81,487a108.06,108.06,0,0,1,28.06-.85A116.31,116.31,0,0,1,296,499.59a102.07,102.07,0,0,1,13.62,8.94l3.69,2.87V453.57h0a146.78,146.78,0,0,0-44.16-15,156.77,156.77,0,0,0-50.83.13q-32,5.13-57.4,20.34a153.37,153.37,0,0,0-44.35,40.6Q97.74,525,90.79,553.15a146.13,146.13,0,0,0-2,58.9,153.1,153.1,0,0,0,8.94,32.69,139.54,139.54,0,0,0,15.65,28.91A145,145,0,0,0,135.78,698.65Z"/><path class="cls-1" d="M69.15,145.75a89.23,89.23,0,0,0,35.14,1,82.13,82.13,0,0,0,24.38-7.8,80.8,80.8,0,0,0,20.58-15l.07-.09q9.09-9.4,17.38-25.51A262.26,262.26,0,0,0,182,60.78a261.3,261.3,0,0,1,11.2-29.09Q198.48,20.49,203.38,15l.07-.07a45.7,45.7,0,0,1,4.83-4.81,35.57,35.57,0,0,1,5.05-3.64L224.24,0h-68a166.73,166.73,0,0,0-8.58,17.31q-4.53,10.49-8.75,23.4A305.31,305.31,0,0,1,127.42,71.6q-5.28,11.73-9.86,17.11a38.53,38.53,0,0,1-10,8.2,36.9,36.9,0,0,1-12.2,4.15,35.74,35.74,0,0,1-15.53-.85A42.65,42.65,0,0,1,65,92.35,47.19,47.19,0,0,1,53.33,78.86a50.73,50.73,0,0,1-6-17.35,58,58,0,0,1,2.36-27.45Q54.31,19.87,66,5.06L70,0H12.75Q10.54,4.25,8.63,8.94A114.77,114.77,0,0,0,.23,45.06,113.06,113.06,0,0,0,1.47,70.39a96.45,96.45,0,0,0,12.1,34.37A87.81,87.81,0,0,0,37.5,130.88,88.07,88.07,0,0,0,69.15,145.75Z"/><polygon class="cls-1" points="313.3 363.79 313.3 303.19 224.44 228.89 313.3 214.67 313.3 165.93 31.18 211.1 38.84 258.61 158.06 239.52 60.15 390.79 71.2 459.31 196.32 266 313.3 363.79"/><path class="cls-1" d="M246.3,7.94c.79.55,1.52,1.08,2.19,1.61a37.32,37.32,0,0,1,9.4,10.62,39.3,39.3,0,0,1,4.79,13.69q2,12.38-2.32,26.27-4.46,14.33-15.53,30.15l-3.43,4.88,37.49,26.19,3.42-5q16-23.29,22.45-45.14Q311.3,49,308,28.34a102.16,102.16,0,0,0-3.8-15.71A85.94,85.94,0,0,0,298.87,0H233.13l11,6.52C244.83,6.94,245.51,7.39,246.3,7.94Z"/></g></g></g></g></svg>