<svg xmlns="http://www.w3.org/2000/svg" viewBox="0 0 135 116.28"><defs><style>.cls-1{fill:#676767;fill-rule:evenodd;}</style></defs><g id="Слой_2" data-name="Слой 2"><g id="Слой_1-2" data-name="Слой 1"><path class="cls-1" d="M27.75,73,0,86.82v19.1l20.32,10.36,19.19-9.78H95.34l19.18,9.78L135,105.92V86.82L107.25,72.91V0H27.75V73Zm78-.2H29.25V1.5h76.5V72.75Zm-76.9,3h77.37l25,12.53-16.69,8.38L95.88,87.22H39L20.32,96.66,3.78,88.29,28.85,75.75ZM3,89.57H3l16.5,8.35v14.57L3,104.08V89.57Zm36.9-.85h55V103.5h-55V88.72Zm56.47,14.94h0V89.16l17.4,8.8v14.57l-17.4-8.87Zm18.9-5.7h0L132,89.57v14.51l-16.73,8.46V98ZM21,98h0l17.4-8.81V103.7L21,112.57Z"/><path class="cls-1" d="M65.62,69.07V5.85H33.75V69.07Zm-1.5-1.5H35.25V7.35H64.12Z"/><path class="cls-1" d="M69.37,69.07h31.88V5.85H69.37V69.07Zm30.38-1.5H70.87V7.35H99.75Z"/></g></g></svg>