<svg xmlns="http://www.w3.org/2000/svg" viewBox="0 0 729.75 295.18"><defs><style>.cls-1{fill:#e6340d;}.cls-1,.cls-2,.cls-3,.cls-4{fill-rule:evenodd;}.cls-2{fill:#000003;}.cls-3{fill:#1a1a18;}.cls-4{fill:#9f0e05;}</style></defs><g id="Слой_2" data-name="Слой 2"><g id="Слой_1-2" data-name="Слой 1"><path class="cls-1" d="M377.74.85h46.7v24h-46.7V.85ZM425.14,0H377V25.7h48.11Z"/><polygon class="cls-2" points="349.45 19.04 351.86 7.58 353.38 7.58 351.25 17.74 357.15 17.74 356.88 19.04 349.45 19.04"/><path class="cls-2" d="M358.26,19a3.71,3.71,0,0,1,.37-1.07,3.5,3.5,0,0,1,.65-.82c.26-.26.78-.69,1.54-1.3a10.47,10.47,0,0,0,.94-.82,2.56,2.56,0,0,0,.53-.74,1.25,1.25,0,0,0,.12-.54,1.15,1.15,0,0,0-.35-.84,1.18,1.18,0,0,0-.86-.34,1.23,1.23,0,0,0-.88.35,2,2,0,0,0-.53,1.11l-.86-.12a2.33,2.33,0,0,1,.73-1.5,2.2,2.2,0,0,1,1.53-.55,2.34,2.34,0,0,1,1.1.25,1.78,1.78,0,0,1,.75.71,2,2,0,0,1,.25.95,2.2,2.2,0,0,1-.51,1.37,14.1,14.1,0,0,1-1.84,1.62,10.1,10.1,0,0,0-1,.84,3.1,3.1,0,0,0-.48.63h3.2l-.17.81Z"/><path class="cls-2" d="M372.23,12.3h-7.56V11h7.56V12.3Zm0,3.47h-7.56V14.46h7.56Z"/><polygon class="cls-3" points="429.9 24.85 430.9 17.67 431.05 17.67 433.97 23.56 436.87 17.67 436.98 17.67 438.01 24.85 437.32 24.85 436.6 19.71 434.06 24.85 433.87 24.85 431.3 19.67 430.61 24.85 429.9 24.85"/><polygon class="cls-3" points="439.09 24.85 440.09 17.67 440.24 17.67 443.16 23.56 446.06 17.67 446.17 17.67 447.2 24.85 446.51 24.85 445.79 19.71 443.25 24.85 443.06 24.85 440.49 19.67 439.8 24.85 439.09 24.85"/><path class="cls-1" d="M199.38,32.47a2.36,2.36,0,0,0,1.93,2.33V54.72h.86V34.8a2.36,2.36,0,0,0,1.89-1.9H598.11a2.39,2.39,0,0,0,1.9,1.9V54.72h.85V34.8a2.36,2.36,0,0,0,0-4.65V20.71H600v9.44a2.36,2.36,0,0,0-1.9,1.9h-394a2.34,2.34,0,0,0-1.89-1.9V20.71h-.86v9.44A2.35,2.35,0,0,0,199.38,32.47Z"/><path class="cls-1" d="M660.29,101.26H707v24h-46.7v-24Zm47.41-.85H659.58v25.7H707.7Z"/><path class="cls-2" d="M630.13,119l-.71-11.46H631l.26,5.67c0,.27,0,1,.06,2.2,0,.33,0,.57,0,.7s0,.36,0,.79c.63-1.31,1.08-2.23,1.36-2.77l3.48-6.59h1.58l.38,6.7c0,.76.07,1.69.09,2.77.1-.27.26-.66.5-1.2.38-.84.67-1.45.85-1.81l3.25-6.46h1.56L638.57,119h-1.64l-.37-6.94c0-.59-.07-1.33-.1-2.2-.32.73-.59,1.29-.8,1.69l-4,7.45Z"/><path class="cls-2" d="M643.12,119a3.71,3.71,0,0,1,.37-1.07,3.31,3.31,0,0,1,.65-.82c.26-.26.78-.7,1.54-1.3a10.47,10.47,0,0,0,.94-.82,2.56,2.56,0,0,0,.53-.74,1.25,1.25,0,0,0,.12-.54,1.15,1.15,0,0,0-.35-.84,1.18,1.18,0,0,0-.86-.34,1.26,1.26,0,0,0-.88.34,2.06,2.06,0,0,0-.53,1.12l-.86-.12a2.33,2.33,0,0,1,.73-1.5,2.2,2.2,0,0,1,1.53-.55,2.34,2.34,0,0,1,1.1.25,1.78,1.78,0,0,1,.75.71,2,2,0,0,1,.25,1,2.22,2.22,0,0,1-.51,1.37,13.56,13.56,0,0,1-1.84,1.61,11.5,11.5,0,0,0-1,.85,3.1,3.1,0,0,0-.48.63h3.2l-.17.81Z"/><path class="cls-2" d="M657.09,112.25h-7.56v-1.31h7.56v1.31Zm0,3.47h-7.56v-1.31h7.56Z"/><polygon class="cls-3" points="712.46 125.26 713.45 118.08 713.6 118.08 716.52 123.97 719.42 118.08 719.53 118.08 720.57 125.26 719.87 125.26 719.15 120.12 716.61 125.26 716.42 125.26 713.85 120.08 713.16 125.26 712.46 125.26"/><polygon class="cls-3" points="721.64 125.26 722.64 118.08 722.79 118.08 725.71 123.97 728.61 118.08 728.72 118.08 729.75 125.26 729.06 125.26 728.34 120.12 725.8 125.26 725.61 125.26 723.04 120.08 722.35 125.26 721.64 125.26"/><path class="cls-1" d="M620.81,172.52H600.86v.85h19.95a2.36,2.36,0,0,0,4.65,0h9.42v-.85h-9.42a2.36,2.36,0,0,0-1.9-1.9V57.47a2.34,2.34,0,0,0,1.9-1.9h9.42v-.85h-9.42a2.37,2.37,0,0,0-4.65,0H600.86v.85h19.95a2.36,2.36,0,0,0,1.9,1.9V170.62A2.39,2.39,0,0,0,620.81,172.52Z"/><path class="cls-4" d="M74.21,187.23,202.9,58.55H597v111H248.88L152.7,265.72,74.21,187.23ZM600.86,54.72H201.31L68.81,187.23l83.89,83.9,97.76-97.76h350.4Z"/><path class="cls-1" d="M51.7,172.87a2.37,2.37,0,0,0,3,.27l14.09,14.09.6-.6L55.32,172.54a2.36,2.36,0,0,0,0-2.69L183.94,41.23a2.35,2.35,0,0,0,2.68,0l14.09,14.1.6-.61L187.22,40.63a2.36,2.36,0,0,0-3.28-3.28l-6.68-6.68-.6.6L183.34,38a2.35,2.35,0,0,0,0,2.68L54.72,169.25a2.36,2.36,0,0,0-2.69,0l-6.67-6.67-.61.6,6.68,6.67A2.37,2.37,0,0,0,51.7,172.87Z"/><path class="cls-1" d="M51.14,75.32h46.7v24H51.14v-24Zm47.41-.85H50.43v25.7H98.55Z"/><polygon class="cls-2" points="22.86 93.5 25.26 82.05 26.78 82.05 24.65 92.21 30.55 92.21 30.28 93.5 22.86 93.5"/><path class="cls-2" d="M33.48,93.51l1.13-5.41a5.73,5.73,0,0,1-2.06.93l.16-.8a7.41,7.41,0,0,0,1.3-.69,6.82,6.82,0,0,0,1-.74,3.08,3.08,0,0,0,.37-.47h.51l-1.5,7.18Z"/><path class="cls-2" d="M45.64,86.77H38.07V85.46h7.57v1.31Zm0,3.47H38.07V88.93h7.57Z"/><polygon class="cls-3" points="103.31 99.32 104.3 92.14 104.45 92.14 107.37 98.03 110.28 92.14 110.38 92.14 111.42 99.32 110.72 99.32 110 94.18 107.46 99.32 107.27 99.32 104.7 94.14 104.01 99.32 103.31 99.32"/><polygon class="cls-3" points="112.5 99.32 113.49 92.14 113.64 92.14 116.56 98.03 119.47 92.14 119.57 92.14 120.61 99.32 119.91 99.32 119.19 94.18 116.65 99.32 116.46 99.32 113.89 94.14 113.2 99.32 112.5 99.32"/><path class="cls-1" d="M138.34,288.23a2.35,2.35,0,0,0,.27-3l14.09-14.09-.6-.6L138,284.62a2.35,2.35,0,0,0-2.68,0l-80-80a2.36,2.36,0,0,0,0-2.69l14.09-14.09-.6-.6L54.72,201.32a2.37,2.37,0,0,0-3.29,3.29l-6.68,6.67.61.61L52,205.21a2.36,2.36,0,0,0,2.69,0l80,80a2.38,2.38,0,0,0,0,2.69l-6.68,6.67.6.6,6.68-6.67A2.36,2.36,0,0,0,138.34,288.23Z"/><path class="cls-1" d="M33.05,241.63h46.7v24H33.05v-24Zm47.4-.85H32.34v25.7H80.45Z"/><path class="cls-2" d="M.7,259.82,0,248.36H1.55L1.81,254c0,.27,0,1,.07,2.21,0,.33,0,.56,0,.7s0,.35,0,.78c.63-1.31,1.09-2.23,1.37-2.76l3.48-6.6H8.34l.37,6.7c0,.77.07,1.69.1,2.78.09-.27.26-.67.5-1.2.38-.85.66-1.46.85-1.82l3.24-6.46H15L9.14,259.82H7.5l-.36-6.94c0-.59-.08-1.32-.11-2.2-.32.73-.58,1.29-.8,1.69l-4,7.45Z"/><path class="cls-2" d="M15.51,259.82l1.13-5.4a5.65,5.65,0,0,1-2.06.92l.17-.8a7.78,7.78,0,0,0,1.3-.69,6.11,6.11,0,0,0,1-.74,3.08,3.08,0,0,0,.37-.47h.51l-1.5,7.18Z"/><path class="cls-2" d="M27.67,253.08H20.1v-1.31h7.57v1.31Zm0,3.48H20.1v-1.32h7.57Z"/><polygon class="cls-3" points="85.21 265.63 86.21 258.45 86.36 258.45 89.28 264.34 92.18 258.45 92.29 258.45 93.32 265.63 92.63 265.63 91.91 260.49 89.36 265.63 89.18 265.63 86.61 260.45 85.92 265.63 85.21 265.63"/><polygon class="cls-3" points="94.4 265.63 95.4 258.45 95.55 258.45 98.47 264.34 101.37 258.45 101.48 258.45 102.51 265.63 101.82 265.63 101.1 260.49 98.56 265.63 98.37 265.63 95.8 260.45 95.11 265.63 94.4 265.63"/></g></g></svg>