<svg xmlns="http://www.w3.org/2000/svg" viewBox="0 0 799.04 267.86"><defs><style>.cls-1{fill:#9f0e05;}.cls-1,.cls-2,.cls-3,.cls-4{fill-rule:evenodd;}.cls-2{fill:#e6340d;}.cls-3{fill:#1a1a18;}.cls-4{fill:#000003;}</style></defs><g id="Слой_2" data-name="Слой 2"><g id="Слой_1-2" data-name="Слой 1"><path class="cls-1" d="M10.74,169.85,145.46,99.44l345.34.46,133.92,69.95ZM148.4,0h-3.83V95.7l-142,74.15v49.38h629.6V169.49L491.89,96.15V0h-3.83V96.15L148.71,95.7,148.4,0ZM6.42,172.69h622v43H6.42Z"/><path class="cls-2" d="M685.78,97a3,3,0,0,0,2.45,2.13v67.81a3,3,0,0,0-2.55,2.55h-53.5v.85h53.5a3,3,0,0,0,6,0h8.79v-.85h-8.79a3,3,0,0,0-2.55-2.55V99.13A3,3,0,0,0,691.54,97h8.88v-.85h-8.76a3,3,0,0,0-6,0H491.89l1.63.85Z"/><path class="cls-2" d="M634.77,258.59a3,3,0,0,0-2.59-3V219.23h-.85v36.39a3,3,0,0,0-2.45,2.11H5.88a3,3,0,0,0-2.45-2.11V219.23H2.58v36.39a3,3,0,0,0,0,5.95v6.29h.85v-6.29a3,3,0,0,0,2.58-3H628.75a3,3,0,0,0,2.58,3v6.29h.85v-6.29A3,3,0,0,0,634.77,258.59Z"/><path class="cls-2" d="M294,229.1h46.7v24H294v-24Zm47.41-.85H293.33V254h48.11Z"/><polygon class="cls-3" points="265.75 247.29 268.15 235.83 269.67 235.83 267.54 245.99 273.45 245.99 273.17 247.29 265.75 247.29"/><path class="cls-3" d="M276.37,247.29l1.13-5.41a5.65,5.65,0,0,1-2.06.93l.17-.8a7.78,7.78,0,0,0,1.3-.69,6.11,6.11,0,0,0,1-.74,3.08,3.08,0,0,0,.37-.47h.51l-1.5,7.18Z"/><path class="cls-3" d="M288.53,240.55H281v-1.31h7.57v1.31Zm0,3.47H281v-1.31h7.57Z"/><polygon class="cls-3" points="346.2 253.1 347.19 245.92 347.34 245.92 350.26 251.81 353.17 245.92 353.28 245.92 354.31 253.1 353.61 253.1 352.89 247.96 350.35 253.1 350.16 253.1 347.59 247.92 346.91 253.1 346.2 253.1"/><polygon class="cls-3" points="355.39 253.1 356.38 245.92 356.53 245.92 359.45 251.81 362.36 245.92 362.47 245.92 363.5 253.1 362.8 253.1 362.08 247.96 359.54 253.1 359.35 253.1 356.78 247.92 356.1 253.1 355.39 253.1"/><path class="cls-2" d="M729.57,121h46.7v24h-46.7V121Zm47.41-.85H728.86v25.7H777Z"/><path class="cls-4" d="M699.41,138.77l-.7-11.46h1.55l.26,5.67c0,.27,0,1,.07,2.2,0,.33,0,.57,0,.7s0,.35,0,.79c.63-1.31,1.09-2.23,1.36-2.77l3.49-6.59H707l.38,6.7c0,.76.07,1.69.09,2.77.1-.27.26-.67.51-1.2.38-.84.66-1.45.84-1.82l3.25-6.45h1.56l-5.82,11.46h-1.64l-.37-6.94c0-.6-.07-1.33-.1-2.2-.32.72-.59,1.29-.8,1.69l-4,7.45Z"/><path class="cls-4" d="M714.22,138.77l1.13-5.41a5.57,5.57,0,0,1-2.06.92l.16-.8a6.74,6.74,0,0,0,1.3-.68,7.66,7.66,0,0,0,1-.74,2.75,2.75,0,0,0,.37-.48h.51l-1.5,7.19Z"/><path class="cls-4" d="M726.38,132h-7.57v-1.31h7.57V132Zm0,3.47h-7.57v-1.31h7.57Z"/><polygon class="cls-3" points="781.74 145.04 782.73 137.86 782.88 137.86 785.8 143.75 788.7 137.86 788.81 137.86 789.85 145.04 789.15 145.04 788.43 139.9 785.89 145.04 785.7 145.04 783.13 139.86 782.44 145.04 781.74 145.04"/><polygon class="cls-3" points="790.93 145.04 791.92 137.86 792.07 137.86 794.99 143.75 797.89 137.86 798 137.86 799.04 145.04 798.34 145.04 797.62 139.9 795.08 145.04 794.89 145.04 792.32 139.86 791.63 145.04 790.93 145.04"/><polygon class="cls-2" points="163.38 0 163.38 80.9 315.94 80.9 315.94 0 312.91 0 312.91 77.87 166.41 77.87 166.41 0 163.38 0"/><polygon class="cls-2" points="330.92 0 330.92 80.9 473.08 80.9 473.08 0 470.05 0 470.05 77.87 333.94 77.87 333.94 0 330.92 0"/></g></g></svg>