<svg xmlns="http://www.w3.org/2000/svg" viewBox="0 0 742.35 295.18"><defs><style>.cls-1{fill:#9f0e05;}.cls-1,.cls-2,.cls-3,.cls-4{fill-rule:evenodd;}.cls-2{fill:#e6340d;}.cls-3{fill:#000003;}.cls-4{fill:#1a1a18;}</style></defs><g id="Слой_2" data-name="Слой 2"><g id="Слой_1-2" data-name="Слой 1"><path class="cls-1" d="M74.21,187.23,202.9,58.55H534.25L662.93,187.23l-78.49,78.49-96.17-96.17H248.88L152.7,265.72,74.21,187.23ZM535.83,54.72H201.31L68.81,187.23l83.89,83.9,97.76-97.76H486.69l97.75,97.76,83.9-83.9Z"/><path class="cls-2" d="M345.23.85h46.69v24H345.23V.85ZM392.63,0H344.52V25.7h48.11Z"/><polygon class="cls-3" points="316.94 19.04 319.34 7.58 320.86 7.58 318.73 17.74 324.64 17.74 324.37 19.04 316.94 19.04"/><path class="cls-3" d="M325.74,19a3.7,3.7,0,0,1,.38-1.07,3.45,3.45,0,0,1,.64-.82c.27-.26.78-.69,1.54-1.3a11,11,0,0,0,.95-.82,2.77,2.77,0,0,0,.53-.74,1.41,1.41,0,0,0,.11-.54,1.15,1.15,0,0,0-.35-.84,1.16,1.16,0,0,0-.85-.34,1.21,1.21,0,0,0-.88.35,2.07,2.07,0,0,0-.54,1.11l-.86-.12a2.34,2.34,0,0,1,.74-1.5,2.19,2.19,0,0,1,1.52-.55,2.39,2.39,0,0,1,1.11.25,1.7,1.7,0,0,1,.74.71,1.93,1.93,0,0,1,.25.95,2.2,2.2,0,0,1-.51,1.37,13.73,13.73,0,0,1-1.83,1.62,10.46,10.46,0,0,0-1,.84,3.1,3.1,0,0,0-.48.63h3.2L330,19Z"/><path class="cls-3" d="M339.72,12.3h-7.57V11h7.57V12.3Zm0,3.47h-7.57V14.46h7.57Z"/><polygon class="cls-4" points="397.39 24.85 398.38 17.67 398.53 17.67 401.45 23.56 404.36 17.67 404.47 17.67 405.5 24.85 404.81 24.85 404.08 19.71 401.54 24.85 401.35 24.85 398.79 19.67 398.1 24.85 397.39 24.85"/><polygon class="cls-4" points="406.58 24.85 407.57 17.67 407.72 17.67 410.64 23.56 413.55 17.67 413.66 17.67 414.69 24.85 414 24.85 413.27 19.71 410.73 24.85 410.54 24.85 407.98 19.67 407.29 24.85 406.58 24.85"/><path class="cls-2" d="M199.38,32.47a2.36,2.36,0,0,0,1.93,2.33V54.72h.86V34.8a2.36,2.36,0,0,0,1.89-1.9h329a2.39,2.39,0,0,0,1.9,1.9V54.72h.85V34.8a2.36,2.36,0,0,0,0-4.65V20.71H535v9.44a2.36,2.36,0,0,0-1.9,1.9h-329a2.34,2.34,0,0,0-1.89-1.9V20.71h-.86v9.44A2.35,2.35,0,0,0,199.38,32.47Z"/><path class="cls-2" d="M51.7,172.87a2.37,2.37,0,0,0,3,.27l14.09,14.09.6-.6L55.32,172.54a2.36,2.36,0,0,0,0-2.69L183.94,41.23a2.35,2.35,0,0,0,2.68,0l14.09,14.1.6-.61L187.22,40.63a2.36,2.36,0,0,0-3.28-3.28l-6.68-6.68-.6.6L183.34,38a2.35,2.35,0,0,0,0,2.68L54.72,169.25a2.36,2.36,0,0,0-2.69,0l-6.67-6.67-.61.6,6.68,6.67A2.37,2.37,0,0,0,51.7,172.87Z"/><path class="cls-2" d="M51.14,75.32h46.7v24H51.14v-24Zm47.41-.85H50.43v25.7H98.55Z"/><polygon class="cls-3" points="22.86 93.5 25.26 82.05 26.78 82.05 24.65 92.21 30.55 92.21 30.28 93.5 22.86 93.5"/><path class="cls-3" d="M33.48,93.51l1.13-5.41a5.73,5.73,0,0,1-2.06.93l.16-.8a7.41,7.41,0,0,0,1.3-.69,6.82,6.82,0,0,0,1-.74,3.08,3.08,0,0,0,.37-.47h.51l-1.5,7.18Z"/><path class="cls-3" d="M45.64,86.77H38.07V85.46h7.57v1.31Zm0,3.47H38.07V88.93h7.57Z"/><polygon class="cls-4" points="103.31 99.32 104.3 92.14 104.45 92.14 107.37 98.03 110.28 92.14 110.38 92.14 111.42 99.32 110.72 99.32 110 94.18 107.46 99.32 107.27 99.32 104.7 94.14 104.01 99.32 103.31 99.32"/><polygon class="cls-4" points="112.5 99.32 113.49 92.14 113.64 92.14 116.56 98.03 119.47 92.14 119.57 92.14 120.61 99.32 119.91 99.32 119.19 94.18 116.65 99.32 116.46 99.32 113.89 94.14 113.2 99.32 112.5 99.32"/><path class="cls-2" d="M685.45,172.87a2.37,2.37,0,0,1-3,.27l-14.09,14.09-.6-.6,14.09-14.09a2.36,2.36,0,0,1,0-2.69L553.21,41.23a2.36,2.36,0,0,1-2.69,0l-14.09,14.1-.6-.61,14.09-14.09a2.36,2.36,0,0,1,3.29-3.28l6.68-6.68.6.6L553.81,38a2.35,2.35,0,0,1,0,2.68L682.43,169.25a2.36,2.36,0,0,1,2.69,0l6.67-6.67.6.6-6.67,6.67A2.38,2.38,0,0,1,685.45,172.87Z"/><path class="cls-2" d="M644.83,75.32h46.69v24H644.83v-24Zm47.4-.85H644.12v25.7h48.11Z"/><polygon class="cls-3" points="616.5 93.47 618.9 82.01 620.42 82.01 618.29 92.17 624.2 92.17 623.92 93.47 616.5 93.47"/><path class="cls-3" d="M625.26,91.59l.86-.11a1.81,1.81,0,0,0,.44,1.08,1.18,1.18,0,0,0,.87.33,1.59,1.59,0,0,0,1.14-.47,1.49,1.49,0,0,0,.47-1.08,1.15,1.15,0,0,0-.36-.87,1.29,1.29,0,0,0-.95-.34,1.83,1.83,0,0,0-.28,0l.15-.74.24,0a1.63,1.63,0,0,0,1.16-.37,1.21,1.21,0,0,0,.07-1.73,1.12,1.12,0,0,0-.82-.33,1.21,1.21,0,0,0-.85.34,1.59,1.59,0,0,0-.49,1l-.87-.18a2.43,2.43,0,0,1,.83-1.36,2.27,2.27,0,0,1,1.44-.48,2,2,0,0,1,1.43.53,1.75,1.75,0,0,1,.54,1.3,1.65,1.65,0,0,1-.29,1,2.19,2.19,0,0,1-.88.7,1.79,1.79,0,0,1,.62.6,1.53,1.53,0,0,1,.21.81,2.24,2.24,0,0,1-.72,1.66,2.37,2.37,0,0,1-1.72.71,2.21,2.21,0,0,1-1.57-.55A2.11,2.11,0,0,1,625.26,91.59Z"/><path class="cls-3" d="M639.28,86.73h-7.57V85.42h7.57v1.31Zm0,3.47h-7.57V88.89h7.57Z"/><polygon class="cls-4" points="696.99 99.32 697.99 92.14 698.13 92.14 701.05 98.03 703.96 92.14 704.07 92.14 705.1 99.32 704.4 99.32 703.68 94.18 701.14 99.32 700.95 99.32 698.38 94.14 697.7 99.32 696.99 99.32"/><polygon class="cls-4" points="706.18 99.32 707.17 92.14 707.32 92.14 710.25 98.03 713.15 92.14 713.26 92.14 714.29 99.32 713.6 99.32 712.88 94.18 710.33 99.32 710.14 99.32 707.58 94.14 706.89 99.32 706.18 99.32"/><path class="cls-2" d="M138.34,288.23a2.35,2.35,0,0,0,.27-3l14.09-14.09-.6-.6L138,284.62a2.35,2.35,0,0,0-2.68,0l-80-80a2.36,2.36,0,0,0,0-2.69l14.09-14.09-.6-.6L54.72,201.32a2.37,2.37,0,0,0-3.29,3.29l-6.68,6.67.61.61L52,205.21a2.36,2.36,0,0,0,2.69,0l80,80a2.36,2.36,0,0,0,0,2.69l-6.68,6.67.6.6,6.68-6.67A2.36,2.36,0,0,0,138.34,288.23Z"/><path class="cls-2" d="M33.05,241.63h46.7v24H33.05v-24Zm47.4-.85H32.34v25.7H80.45Z"/><path class="cls-3" d="M.7,259.82,0,248.36H1.55L1.81,254c0,.27,0,1,.07,2.21,0,.33,0,.56,0,.7s0,.35,0,.78c.63-1.31,1.09-2.23,1.37-2.76l3.48-6.6H8.34l.37,6.7c0,.77.07,1.69.1,2.78.09-.27.26-.67.5-1.2.38-.85.66-1.46.85-1.82l3.25-6.46H15L9.14,259.82H7.5l-.36-6.94c0-.59-.08-1.32-.11-2.2-.32.73-.58,1.29-.8,1.69l-4,7.45Z"/><path class="cls-3" d="M15.51,259.82l1.13-5.4a5.65,5.65,0,0,1-2.06.92l.17-.8a7.78,7.78,0,0,0,1.3-.69,6.11,6.11,0,0,0,1-.74,3.08,3.08,0,0,0,.37-.47h.51l-1.5,7.18Z"/><path class="cls-3" d="M27.67,253.08H20.1v-1.31h7.57v1.31Zm0,3.48H20.1v-1.32h7.57Z"/><polygon class="cls-4" points="85.21 265.63 86.21 258.45 86.36 258.45 89.28 264.34 92.18 258.45 92.29 258.45 93.32 265.63 92.63 265.63 91.91 260.49 89.36 265.63 89.18 265.63 86.61 260.45 85.92 265.63 85.21 265.63"/><polygon class="cls-4" points="94.4 265.63 95.4 258.45 95.55 258.45 98.47 264.34 101.37 258.45 101.48 258.45 102.51 265.63 101.82 265.63 101.1 260.49 98.56 265.63 98.37 265.63 95.8 260.45 95.11 265.63 94.4 265.63"/><path class="cls-2" d="M598.81,288.23a2.37,2.37,0,0,1-.28-3l-14.09-14.09.6-.6,14.09,14.09a2.36,2.36,0,0,1,2.69,0l80-80a2.36,2.36,0,0,1,0-2.69l-14.09-14.09.6-.6,14.09,14.09a2.37,2.37,0,0,1,3.29,3.29l6.67,6.67-.6.61-6.67-6.68a2.36,2.36,0,0,1-2.69,0l-80,80a2.36,2.36,0,0,1,0,2.69l6.68,6.67-.6.6-6.68-6.67A2.36,2.36,0,0,1,598.81,288.23Z"/><path class="cls-2" d="M672.88,241.63h46.7v24h-46.7v-24Zm47.41-.85H672.18v25.7h48.11Z"/><path class="cls-3" d="M640.54,259.82l-.7-11.46h1.55l.26,5.67c0,.27,0,1,.07,2.21,0,.33,0,.56,0,.7s0,.35,0,.78c.63-1.31,1.09-2.23,1.36-2.76l3.49-6.6h1.57l.38,6.7c0,.77.07,1.69.09,2.78q.15-.4.51-1.2c.38-.85.66-1.46.84-1.82l3.25-6.46h1.56L649,259.82h-1.64l-.37-6.94c0-.59-.07-1.32-.1-2.2-.32.73-.59,1.29-.8,1.69l-4,7.45Z"/><path class="cls-3" d="M653.49,257.94l.86-.11a1.8,1.8,0,0,0,.43,1.08,1.2,1.2,0,0,0,.88.33,1.56,1.56,0,0,0,1.13-.47,1.45,1.45,0,0,0,.48-1.07,1.16,1.16,0,0,0-.36-.88,1.33,1.33,0,0,0-1-.34l-.28,0,.15-.74.25,0a1.65,1.65,0,0,0,1.16-.37,1.18,1.18,0,0,0,.4-.9,1.12,1.12,0,0,0-.34-.83,1.1,1.1,0,0,0-.81-.33,1.25,1.25,0,0,0-.86.34,1.63,1.63,0,0,0-.48,1l-.87-.17a2.41,2.41,0,0,1,.82-1.37,2.28,2.28,0,0,1,1.45-.48,2,2,0,0,1,1.42.53,1.82,1.82,0,0,1,.26,2.29,2.14,2.14,0,0,1-.89.7,1.82,1.82,0,0,1,.63.6,1.55,1.55,0,0,1,.21.81,2.24,2.24,0,0,1-.72,1.66,2.39,2.39,0,0,1-1.73.71,2.23,2.23,0,0,1-1.57-.55A2.08,2.08,0,0,1,653.49,257.94Z"/><path class="cls-3" d="M667.51,253.08h-7.57v-1.31h7.57v1.31Zm0,3.48h-7.57v-1.32h7.57Z"/><polygon class="cls-4" points="725.05 265.63 726.04 258.45 726.19 258.45 729.11 264.34 732.02 258.45 732.13 258.45 733.16 265.63 732.46 265.63 731.74 260.49 729.2 265.63 729.01 265.63 726.44 260.45 725.76 265.63 725.05 265.63"/><polygon class="cls-4" points="734.24 265.63 735.23 258.45 735.38 258.45 738.3 264.34 741.21 258.45 741.32 258.45 742.35 265.63 741.65 265.63 740.93 260.49 738.39 265.63 738.2 265.63 735.63 260.45 734.95 265.63 734.24 265.63"/><path class="cls-2" d="M291.52,58.55a2.35,2.35,0,1,0-2.77,2.3V167.24a2.3,2.3,0,0,0-1.92,2.31,2.35,2.35,0,0,0,4.69,0,2.3,2.3,0,0,0-1.92-2.31V60.85A2.34,2.34,0,0,0,291.52,58.55Z"/><path class="cls-2" d="M327.12,100.84h46.7v24h-46.7v-24Zm47.4-.85H326.41v25.7h48.11Z"/><path class="cls-3" d="M294.77,119l-.7-11.46h1.55l.26,5.67c0,.27,0,1,.07,2.21,0,.33,0,.56,0,.7s0,.35,0,.78c.63-1.31,1.09-2.23,1.37-2.76l3.48-6.6h1.58l.37,6.7c0,.77.07,1.69.1,2.78.09-.27.26-.67.5-1.2.38-.85.66-1.46.85-1.82l3.24-6.46H309L303.21,119h-1.64l-.36-6.94c0-.59-.08-1.32-.11-2.2-.32.73-.58,1.29-.8,1.69L296.35,119Z"/><path class="cls-3" d="M307.76,119a3.81,3.81,0,0,1,.38-1.07,3.45,3.45,0,0,1,.64-.82c.27-.26.78-.69,1.54-1.3.46-.37.78-.64.95-.81a3,3,0,0,0,.53-.75,1.41,1.41,0,0,0,.11-.54,1.15,1.15,0,0,0-.35-.84,1.16,1.16,0,0,0-.85-.34,1.26,1.26,0,0,0-.88.35,2.06,2.06,0,0,0-.54,1.12l-.86-.13a2.37,2.37,0,0,1,.74-1.5,2.19,2.19,0,0,1,1.52-.55,2.39,2.39,0,0,1,1.11.25,1.66,1.66,0,0,1,.74.72,1.89,1.89,0,0,1,.25.94,2.2,2.2,0,0,1-.51,1.37,13,13,0,0,1-1.83,1.62,9,9,0,0,0-1,.85,3.06,3.06,0,0,0-.48.62h3.2L312,119Z"/><path class="cls-3" d="M321.74,112.29h-7.57V111h7.57v1.31Zm0,3.48h-7.57v-1.32h7.57Z"/><polygon class="cls-4" points="379.28 124.84 380.28 117.66 380.43 117.66 383.35 123.55 386.25 117.66 386.36 117.66 387.39 124.84 386.7 124.84 385.98 119.7 383.43 124.84 383.25 124.84 380.68 119.66 379.99 124.84 379.28 124.84"/><polygon class="cls-4" points="388.47 124.84 389.47 117.66 389.62 117.66 392.54 123.55 395.44 117.66 395.55 117.66 396.58 124.84 395.89 124.84 395.17 119.7 392.62 124.84 392.44 124.84 389.87 119.66 389.18 124.84 388.47 124.84"/></g></g></svg>