<svg xmlns="http://www.w3.org/2000/svg" viewBox="0 0 135 116.28"><defs><style>.cls-1{fill:#676767;fill-rule:evenodd;}</style></defs><g id="Слой_2" data-name="Слой 2"><g id="Слой_1-2" data-name="Слой 1"><path class="cls-1" d="M3,104.08V89.57l16.5,8.35v14.57L3,104.08Zm17.32-7.42h0L39,87.22h90.14L106.22,75.75H28.85L3.78,88.29l16.54,8.37Zm86.93-23.75h0V0H27.75V73L0,86.82v19.1l20.32,10.36,19.19-9.78H135V86.82L107.25,72.91Zm-78-.16h0V1.5h76.5V72.75ZM21,98h0l17.4-8.81V103.7L21,112.57V98Zm18.9,5.5h0V88.72H132V103.5Z"/><path class="cls-1" d="M65.62,69.07V5.85H33.75V69.07Zm-1.5-1.5H35.25V7.35H64.12Z"/><path class="cls-1" d="M69.37,69.07h31.88V5.85H69.37V69.07Zm30.38-1.5H70.87V7.35H99.75Z"/></g></g></svg>