<svg xmlns="http://www.w3.org/2000/svg" viewBox="0 0 774.04 158.28"><defs><style>.cls-1,.cls-4{fill:#9f0e05;}.cls-1,.cls-2,.cls-3,.cls-5,.cls-7{fill-rule:evenodd;}.cls-2,.cls-6{fill:#e6340d;}.cls-3{fill:#000003;}.cls-5{fill:#676767;}.cls-7{fill:#1a1a18;}</style></defs><g id="Слой_2" data-name="Слой 2"><g id="Слой_1-2" data-name="Слой 1"><path class="cls-1" d="M173.51,5.91H607.13V2.16H173.51V5.91Zm441.62,8v93.88h3.75V13.91Zm-8,101.88H173.51v3.75H607.13v-3.75Zm-441.62-8V13.91h-3.75v93.88Z"/><polygon class="cls-1" points="204.69 101.85 204.69 72.6 203.06 72.6 203.06 103.48 288.06 103.48 288.06 18.23 203.06 18.23 203.06 49.1 204.69 49.1 204.69 19.85 286.44 19.85 286.44 101.85 204.69 101.85"/><path class="cls-1" d="M258.63,76.72a8.06,8.06,0,1,1,8.06,8.07,8.06,8.06,0,0,1-8.06-8.07Zm8.06-9.48a9.48,9.48,0,1,0,9.48,9.48A9.48,9.48,0,0,0,266.69,67.24Z"/><path class="cls-1" d="M220.69,76.72a8.06,8.06,0,1,1,8.06,8.07,8.06,8.06,0,0,1-8.06-8.07Zm8.06-9.48a9.48,9.48,0,1,0,9.48,9.48A9.48,9.48,0,0,0,228.75,67.24Z"/><path class="cls-1" d="M258.63,39.6a8.06,8.06,0,1,1,8.06,8.06,8.06,8.06,0,0,1-8.06-8.06Zm8.06-9.48a9.48,9.48,0,1,0,9.48,9.48A9.47,9.47,0,0,0,266.69,30.12Z"/><path class="cls-1" d="M253.75,39.6a12.94,12.94,0,1,1,12.94,12.94A12.94,12.94,0,0,1,253.75,39.6Zm12.94-14.36A14.36,14.36,0,1,0,281,39.6,14.36,14.36,0,0,0,266.69,25.24Z"/><path class="cls-1" d="M213.25,76.72a15.18,15.18,0,0,1,.56-4.12h-1.47a16.91,16.91,0,1,0,3.54-6.86v2.34a15.5,15.5,0,1,1-2.63,8.64Z"/><path class="cls-1" d="M228.75,63.23a13.5,13.5,0,1,0,13.5,13.49,13.5,13.5,0,0,0-13.5-13.49Zm-12,13.49a12,12,0,1,1,12,12A12,12,0,0,1,216.78,76.72Z"/><path class="cls-1" d="M215.81,39.6a12.94,12.94,0,1,1,12.94,12.94A12.94,12.94,0,0,1,215.81,39.6Zm12.94-14.36A14.36,14.36,0,1,0,243.1,39.6,14.36,14.36,0,0,0,228.75,25.24Z"/><path class="cls-2" d="M28.62,59.67H158v.85H28.62v-.85Zm140.64,0h23.12v.85H169.26Z"/><path class="cls-3" d="M33.22,36h1.27a3.1,3.1,0,0,1,1.19.18,1.47,1.47,0,0,1,.65.56,1.53,1.53,0,0,1,.24.84,1.47,1.47,0,0,1-.21.78,1.58,1.58,0,0,1-.62.58,2.18,2.18,0,0,1,.78.4,1.56,1.56,0,0,1,.42.56,1.64,1.64,0,0,1,.15.71,1.73,1.73,0,0,1-.57,1.31,2.12,2.12,0,0,1-1.52.54H33.22V36Zm.63.63v2.07h.37a3,3,0,0,0,1-.12,1.13,1.13,0,0,0,.51-.4,1.06,1.06,0,0,0,.18-.6.84.84,0,0,0-.31-.7,1.57,1.57,0,0,0-1-.25Zm0,2.72v2.48h.8a2.69,2.69,0,0,0,1-.14,1.12,1.12,0,0,0,.53-.43,1.14,1.14,0,0,0-.08-1.39,1.41,1.41,0,0,0-.77-.44,5.19,5.19,0,0,0-1.15-.08ZM38.37,36H39v2.77h.46a9.72,9.72,0,0,1,1.83.12,1.52,1.52,0,0,1,.89.57,2.09,2.09,0,0,1,0,2.27,1.5,1.5,0,0,1-.84.59,6.9,6.9,0,0,1-1.71.14H38.37V36ZM39,41.81h.69a6,6,0,0,0,1.42-.1,1,1,0,0,0,.53-.39,1.19,1.19,0,0,0,.19-.71,1.22,1.22,0,0,0-.24-.79,1.08,1.08,0,0,0-.63-.37,8.92,8.92,0,0,0-1.42-.07H39v2.43ZM43.29,36h.65v6.46h-.65V36Zm2.22,0H46.8a7,7,0,0,1,1.49.1,1.64,1.64,0,0,1,.91.56,1.61,1.61,0,0,1,.35,1.06,1.64,1.64,0,0,1-.35,1.07,1.66,1.66,0,0,1-.94.56,8.22,8.22,0,0,1-1.64.11h-.46v3h-.65V36Zm.65.63v2.2h1.09a2.86,2.86,0,0,0,1-.12,1,1,0,0,0,.49-.39,1.14,1.14,0,0,0,.17-.61,1.12,1.12,0,0,0-.17-.59,1,1,0,0,0-.47-.39,2.94,2.94,0,0,0-.94-.11ZM50.84,36h3.7v.63h-3v2h3v.63h-3v2.55h3v.63H50.84V36Zm4.95.63a2.14,2.14,0,0,1,1.69-.79,1.87,1.87,0,0,1,1.31.46,1.48,1.48,0,0,1,.52,1.18,1.52,1.52,0,0,1-1,1.48,1.64,1.64,0,0,1,1.28,1.71,1.86,1.86,0,0,1-.57,1.42,2.2,2.2,0,0,1-1.57.53,2.46,2.46,0,0,1-1.21-.28,2.93,2.93,0,0,1-1-1l.5-.3a2.49,2.49,0,0,0,.84.85,1.92,1.92,0,0,0,.81.19,1.59,1.59,0,0,0,1-.36,1.27,1.27,0,0,0,.43-1A1.39,1.39,0,0,0,58.8,40a1.18,1.18,0,0,0-.42-.44,1.53,1.53,0,0,0-.51-.21,5.09,5.09,0,0,0-.8,0H57v-.57h.22c1,0,1.44-.39,1.44-1.16a1.11,1.11,0,0,0-1.16-1.18,1.7,1.7,0,0,0-1.22.59l-.45-.39ZM33.19,46.7h4.59v6.46h-.64V47.31h-3.3v5.85h-.65V46.7Zm9.24-.16a3.37,3.37,0,0,1,2.46,1,3.4,3.4,0,0,1-2.41,5.81,3.3,3.3,0,0,1-2.42-1,3.22,3.22,0,0,1-1-2.38,3.49,3.49,0,0,1,.45-1.73,3.34,3.34,0,0,1,2.91-1.69Zm0,.63a2.65,2.65,0,0,0-1.36.37,2.69,2.69,0,0,0-1,1A2.79,2.79,0,0,0,39.74,50a2.73,2.73,0,0,0,2.72,2.74,2.78,2.78,0,0,0,1.39-.37,2.53,2.53,0,0,0,1-1,2.78,2.78,0,0,0,.36-1.4,2.72,2.72,0,0,0-.36-1.39,2.62,2.62,0,0,0-1-1,2.7,2.7,0,0,0-1.38-.37Zm4.71,7h-.64V52.56H47l2.54-5.86h.22l2.68,5.86H53v1.57h-.65v-1H47.17v1Zm.6-1.57h3.94l-2-4.51-1.92,4.51Zm8.65-5.86h1.27a3,3,0,0,1,1.18.18,1.42,1.42,0,0,1,.65.56,1.55,1.55,0,0,1,.24.84,1.53,1.53,0,0,1-.21.79,1.6,1.6,0,0,1-.61.57,2.39,2.39,0,0,1,.77.4,1.56,1.56,0,0,1,.42.56,1.67,1.67,0,0,1,.15.71,1.74,1.74,0,0,1-.56,1.32,2.17,2.17,0,0,1-1.53.53H56.42V46.7Zm.63.63V49.4h.37a3,3,0,0,0,1-.12,1.1,1.1,0,0,0,.5-.4,1,1,0,0,0,.19-.6.89.89,0,0,0-.31-.7,1.63,1.63,0,0,0-1-.25Zm0,2.72v2.48h.8a3,3,0,0,0,1-.13,1.26,1.26,0,0,0,.53-.44,1.14,1.14,0,0,0-.08-1.39,1.5,1.5,0,0,0-.78-.44,5.83,5.83,0,0,0-1.15-.08Zm7.16-3.35,3,6.46h-.7l-1-2.12h-2.8l-1,2.12H61l3-6.46Zm-.08,1.36L63,50.41h2.22l-1.11-2.35Zm4.09-1.36h1.29a7,7,0,0,1,1.5.1,1.67,1.67,0,0,1,.9.56,1.58,1.58,0,0,1,.35,1.06A1.56,1.56,0,0,1,71,50.05a8.42,8.42,0,0,1-1.65.11h-.46v3h-.65V46.7Zm.65.63v2.2H70a2.92,2.92,0,0,0,1-.12,1,1,0,0,0,.48-.39,1.09,1.09,0,0,0,0-1.2.94.94,0,0,0-.46-.38,2.73,2.73,0,0,0-.95-.12Zm7.76-.79a3.33,3.33,0,0,1,2.45,1,3.26,3.26,0,0,1,1,2.41,3.41,3.41,0,0,1-5.81,2.41,3.22,3.22,0,0,1-1-2.38,3.49,3.49,0,0,1,.45-1.73,3.34,3.34,0,0,1,2.91-1.69Zm0,.63a2.65,2.65,0,0,0-1.36.37,2.69,2.69,0,0,0-1,1A2.79,2.79,0,0,0,73.94,50a2.62,2.62,0,0,0,.79,1.94,2.66,2.66,0,0,0,1.93.8,2.81,2.81,0,0,0,1.39-.37,2.53,2.53,0,0,0,1-1,2.78,2.78,0,0,0,.36-1.4,2.75,2.75,0,0,0-2.75-2.76ZM84,49.49V46.7h.65v6.46H84v-3h-.47a9.07,9.07,0,0,1-1.4-.08,1.85,1.85,0,0,1-.8-.34,1.44,1.44,0,0,1-.48-.65A3.35,3.35,0,0,1,80.73,48V46.7h.63V48a1.55,1.55,0,0,0,.33,1.14,1.5,1.5,0,0,0,1.09.33H84Zm2.2-2.79h.65v2.71h3.29V46.7h.65v6.46h-.65V50H86.86v3.12h-.65V46.7Zm5.67,0h.72l2,4.39,1.79-4.41h.7l-2.45,5.81a1.23,1.23,0,0,1-1.22.82,1.52,1.52,0,0,1-.66-.15,2.74,2.74,0,0,1-.79-.67l.47-.39a3.15,3.15,0,0,0,.65.55,1,1,0,0,0,.33.06.74.74,0,0,0,.44-.13,1.77,1.77,0,0,0,.41-.68l-2.36-5.2Zm6.94,2.87H100a3.35,3.35,0,0,1,1.23-2.3,3.43,3.43,0,0,1,2.11-.75,3.37,3.37,0,0,1,2.46,1,3.26,3.26,0,0,1,1,2.41,3.32,3.32,0,0,1-1,2.41,3.28,3.28,0,0,1-2.42,1,3.38,3.38,0,0,1-2.28-.84,3.35,3.35,0,0,1-1.11-2.3H98.82v3h-.64V46.7h.64v2.89Zm7.27.34a2.61,2.61,0,0,0-.83-2,2.71,2.71,0,0,0-1.92-.78,2.65,2.65,0,0,0-1.9.79,2.7,2.7,0,0,0-.82,2,2.6,2.6,0,0,0,.81,2,2.75,2.75,0,0,0,3.85,0,2.63,2.63,0,0,0,.81-2Zm4.43-3.23h4.59v6.46h-.64V47.31h-3.3v5.85h-.65V46.7Zm8.81,0,3,6.46h-.69l-1-2.12h-2.8l-1,2.12h-.72l3-6.46Zm-.08,1.36-1.12,2.35h2.22l-1.1-2.35Zm4.08-1.36H124v2.71h3.29V46.7h.65v6.46h-.65V50H124v3.12h-.65V46.7Zm6.17,0h3.69v.63h-3.05v2h3V50h-3v2.54h3v.63H129.5V46.7Zm10.05,6.46h-.7l-2.15-5-2.18,5h-.7l2.81-6.46h.15l2.77,6.46Zm1.08-6.46h.65v2.77h.47a8.7,8.7,0,0,1,1.82.13,1.51,1.51,0,0,1,.89.56,1.82,1.82,0,0,1,.34,1.14,1.88,1.88,0,0,1-.33,1.14,1.55,1.55,0,0,1-.84.59,7.59,7.59,0,0,1-1.71.13h-1.29V46.7Zm.65,5.83H142a6,6,0,0,0,1.42-.1,1,1,0,0,0,.53-.38,1.44,1.44,0,0,0,0-1.51,1.08,1.08,0,0,0-.63-.37,10.26,10.26,0,0,0-1.42-.07h-.54Z"/><path class="cls-1" d="M490.49,24.68l.25-.27,0,0,4.56-4.78a3.21,3.21,0,0,1,4.95.36l11.65,18.3a1,1,0,0,1-.86,1.59,1,1,0,0,1-.41-.08L491.5,29.63a3.21,3.21,0,0,1-1.77-2.87,3.16,3.16,0,0,1,.76-2.08ZM510,40.6l.19.11a2.13,2.13,0,0,0,.87.19,2.07,2.07,0,0,0,2.06-2.07,2,2,0,0,0-.33-1.11l-11.46-18-.2-.31a4.25,4.25,0,0,0-6.56-.49L490,23.66c-.12.11-.23.23-.34.35A4.25,4.25,0,0,0,491,30.55Z"/><path class="cls-1" d="M502.55,36.66,498.87,56a1.08,1.08,0,0,1-.29.51,1,1,0,0,1-1.46,0,1,1,0,0,1-.22-.35l-5.73-25.54-.15-.08a4.26,4.26,0,0,1-1.11-.82l0,.08,5.92,26.46.06.21c.09.28,0,.24.46.76a2.88,2.88,0,0,0,2.92,0c.55-.53.49-.63.57-1l3.62-19.14Z"/><rect class="cls-4" x="561.25" y="29.91" width="32.75" height="0.85"/><rect class="cls-4" x="561.25" y="41.77" width="32.75" height="0.85"/><rect class="cls-4" x="561.25" y="53.63" width="32.75" height="0.85"/><rect class="cls-4" x="561.25" y="65.5" width="32.75" height="0.85"/><rect class="cls-4" x="561.25" y="77.36" width="32.75" height="0.85"/><rect class="cls-4" x="561.25" y="89.22" width="32.75" height="0.85"/><rect class="cls-4" x="561.25" y="101.08" width="32.75" height="0.85"/><path class="cls-3" d="M142.76,2h1.43a9,9,0,0,1,1.62.1,1.89,1.89,0,0,1,1.05.63,1.81,1.81,0,0,1,.4,1.18,1.85,1.85,0,0,1-.28,1,1.68,1.68,0,0,1-.79.67,3.59,3.59,0,0,1-1.42.23l2.59,3.34h-.88l-2.59-3.34h-.41V9.16h-.72V2Zm.72.7V5.12h1.24A3.11,3.11,0,0,0,145.78,5a1.12,1.12,0,0,0,.54-.44,1.21,1.21,0,0,0,0-1.33,1,1,0,0,0-.51-.42,3,3,0,0,0-1.06-.13Z"/><path class="cls-3" d="M142.76,119.36h1.43a8.15,8.15,0,0,1,1.62.1,1.89,1.89,0,0,1,1.17,2.83,1.76,1.76,0,0,1-.79.68,3.78,3.78,0,0,1-1.42.23l2.59,3.34h-.88l-2.59-3.34h-.41v3.34h-.72v-7.18Zm.72.7v2.44h1.24a3.06,3.06,0,0,0,1.06-.14,1.12,1.12,0,0,0,.54-.44,1.2,1.2,0,0,0,.2-.67,1.14,1.14,0,0,0-.2-.65,1.12,1.12,0,0,0-.51-.43,3.36,3.36,0,0,0-1.06-.12Z"/><path class="cls-3" d="M634.63,2h1.44a9.11,9.11,0,0,1,1.62.1,1.87,1.87,0,0,1,1,.63,1.76,1.76,0,0,1,.4,1.18,1.93,1.93,0,0,1-.27,1,1.73,1.73,0,0,1-.79.67,3.65,3.65,0,0,1-1.42.23l2.58,3.34h-.88l-2.58-3.34h-.42V9.16h-.72V2Zm.72.7V5.12h1.24A3.18,3.18,0,0,0,637.66,5a1.12,1.12,0,0,0,.54-.44,1.19,1.19,0,0,0,.19-.67,1.18,1.18,0,0,0-.19-.66,1.06,1.06,0,0,0-.52-.42,3,3,0,0,0-1.06-.13Z"/><path class="cls-3" d="M634.63,119.36h1.44a8.22,8.22,0,0,1,1.62.1,1.78,1.78,0,0,1,1.44,1.81,1.89,1.89,0,0,1-.27,1,1.81,1.81,0,0,1-.79.68,3.85,3.85,0,0,1-1.42.23l2.58,3.34h-.88l-2.58-3.34h-.42v3.34h-.72v-7.18Zm.72.7v2.44h1.24a3.13,3.13,0,0,0,1.07-.14,1.12,1.12,0,0,0,.54-.44,1.19,1.19,0,0,0,.19-.67,1.13,1.13,0,0,0-.19-.65,1.14,1.14,0,0,0-.52-.43,3.28,3.28,0,0,0-1.06-.12Z"/><path class="cls-2" d="M1.83,145.54h.79a12.56,12.56,0,0,0-1.38,3.22,14.32,14.32,0,0,0-.5,3.79,9.91,9.91,0,0,0,.3,2.57H.3a9.23,9.23,0,0,1-.3-2.47,14.91,14.91,0,0,1,.48-3.73,14,14,0,0,1,1.35-3.38Zm7.53,9.58H8.57A12.26,12.26,0,0,0,10,151.9a14.28,14.28,0,0,0,.5-3.74,10.21,10.21,0,0,0-.3-2.62h.74a9.7,9.7,0,0,1,.29,2.5,14.85,14.85,0,0,1-.48,3.73,13.56,13.56,0,0,1-1.34,3.35Zm-5.17-9.26H6a3.76,3.76,0,0,1,1.38.19,1.5,1.5,0,0,1,.67.58,1.72,1.72,0,0,1,.26.94,2,2,0,0,1-.3,1.07,1.9,1.9,0,0,1-.84.75,3.18,3.18,0,0,1-1.38.25L8,153H7.14L5,149.64H4.41L4,153H3.22l1-7.18Zm.63.69-.32,2.39h.83a6.05,6.05,0,0,0,1.2-.07,1.41,1.41,0,0,0,.77-.46,1.28,1.28,0,0,0,.29-.84.88.88,0,0,0-.41-.82,2.24,2.24,0,0,0-1.12-.2Z"/><path class="cls-5" d="M15.47,150h2.69l-.09.6H15.39l.08-.6Zm11.84-1.15-.56.32a2,2,0,0,0-1.81-1,2.61,2.61,0,0,0-1.28.32,2.16,2.16,0,0,0-.91.86,2.3,2.3,0,0,0-.33,1.19,2.05,2.05,0,0,0,.24,1,1.7,1.7,0,0,0,.69.69,2.25,2.25,0,0,0,1,.23,3,3,0,0,0,1.18-.24,2.23,2.23,0,0,0,.87-.63l.56.4a3.37,3.37,0,0,1-1.15.84,3.54,3.54,0,0,1-1.43.26,2.71,2.71,0,0,1-2-.68,2.42,2.42,0,0,1-.7-1.82,2.91,2.91,0,0,1,.93-2.17,3.11,3.11,0,0,1,2.26-.9,3,3,0,0,1,1.43.34,2.32,2.32,0,0,1,.94.95Zm1.54-1.16h.69L29.23,150,32,147.73h1l-3,2.44L32.44,153h-1l-2.1-2.45-.24.19L28.82,153h-.69l.72-5.31Zm5.22,0h.7l-.11.81a2.89,2.89,0,0,1,2.1-.94,2.38,2.38,0,0,1,2.48,2.49,3,3,0,0,1-.9,2.18,2.91,2.91,0,0,1-2.13.9,2.17,2.17,0,0,1-2-1.14L33.8,155h-.71l1-7.25Zm2.62.49a2.4,2.4,0,0,0-1.19.31,2.23,2.23,0,0,0-.86.89,2.63,2.63,0,0,0-.32,1.27,1.77,1.77,0,0,0,1.87,1.85,2.29,2.29,0,0,0,1.68-.7,2.39,2.39,0,0,0,.69-1.74,1.78,1.78,0,0,0-1.87-1.88Zm3.42-.49h.7l1.38,3.92,2.28-3.92h.76L41,155h-.76l1.51-2.58-1.65-4.67Zm6.64.6L46.11,153h-.67l.72-5.31h2.68l-.07.6ZM53.27,153l-1.73-5.31h-.12L48.27,153H49l2.29-3.85L52.55,153Zm6.35-2.52H54.88a2,2,0,0,0,.5,1.49,1.73,1.73,0,0,0,1.34.54,2.4,2.4,0,0,0,1-.22,2.18,2.18,0,0,0,.79-.65l.51.41a2.73,2.73,0,0,1-1,.79,3.09,3.09,0,0,1-1.35.29,2.27,2.27,0,0,1-1.88-.77,2.66,2.66,0,0,1-.63-1.73,3,3,0,0,1,.43-1.52A3,3,0,0,1,55.76,148a3,3,0,0,1,1.53-.41,2.25,2.25,0,0,1,1.69.69,2.41,2.41,0,0,1,.67,1.76,4.38,4.38,0,0,1,0,.47Zm-.63-.6a1.67,1.67,0,0,0-1.73-1.67,2.3,2.3,0,0,0-1.4.45,2.42,2.42,0,0,0-.86,1.22Zm2.76-.08h3.08l.29-2.11h.69L65.09,153H64.4l.35-2.56H61.67L61.32,153h-.69l.72-5.31H62l-.29,2.11Zm6.36-2.11-.51,3.83,4.27-3.83h0L71.2,153h-.68l.51-3.78L66.81,153h-.08l.72-5.31Zm10.2,2.79H73.58a2,2,0,0,0,.49,1.49,1.77,1.77,0,0,0,1.35.54,2.43,2.43,0,0,0,1-.22,2.18,2.18,0,0,0,.79-.65l.51.41a2.85,2.85,0,0,1-1,.79,3.06,3.06,0,0,1-1.35.29,2.24,2.24,0,0,1-1.87-.77,2.66,2.66,0,0,1-.63-1.73,3,3,0,0,1,.42-1.52A3,3,0,0,1,74.45,148,3.06,3.06,0,0,1,76,147.6a2.26,2.26,0,0,1,1.69.69,2.46,2.46,0,0,1,.67,1.76,2.88,2.88,0,0,1,0,.47Zm-.62-.6a1.68,1.68,0,0,0-.51-1.2,1.71,1.71,0,0,0-1.22-.47,2.28,2.28,0,0,0-1.4.45,2.38,2.38,0,0,0-.87,1.22Zm4.43-2.19h.7l1.38,3.92,2.28-3.92h.76L83,155h-.77l1.51-2.58-1.65-4.67Zm6.64.6L88.12,153h-.66l.71-5.31h2.69l-.08.6ZM95.29,153l-1.73-5.31h-.13L90.29,153H91l2.29-3.85L94.56,153Zm6.11,0h-.69l.1-.8a2.89,2.89,0,0,1-2.11.93,2.41,2.41,0,0,1-1.77-.69,2.44,2.44,0,0,1-.69-1.79,3,3,0,0,1,.9-2.18,3,3,0,0,1,2.14-.91,2.4,2.4,0,0,1,1.16.28,2.24,2.24,0,0,1,.84.86l.14-1h.69L101.4,153Zm-2.61-.49a2.32,2.32,0,0,0,1.19-.31,2.17,2.17,0,0,0,.86-.89,2.58,2.58,0,0,0,.31-1.26,1.79,1.79,0,0,0-.52-1.34,1.83,1.83,0,0,0-1.35-.52,2.26,2.26,0,0,0-1.67.71,2.39,2.39,0,0,0-.69,1.74,1.77,1.77,0,0,0,1.87,1.87Z"/><rect class="cls-6" x="161.76" y="131.29" width="0.85" height="22.48"/><rect class="cls-6" x="618.03" y="131.29" width="0.85" height="22.48"/><path class="cls-2" d="M162.18,137.55H353.67v.85H162.18v-.85Zm257.82,0H618.46v.85H420Z"/><path class="cls-2" d="M618.46,135.61A2.37,2.37,0,1,1,616.1,138,2.37,2.37,0,0,1,618.46,135.61Z"/><path class="cls-2" d="M162.18,135.61a2.37,2.37,0,1,1-2.36,2.37A2.37,2.37,0,0,1,162.18,135.61Z"/><path class="cls-2" d="M358.77,133.43h56.12v24H358.77v-24Zm57-.85H357.92v25.7h57.82Z"/><polygon class="cls-2" points="344.89 141.84 345.61 141.84 345.61 148.32 348.38 148.32 348.38 149.02 344.89 149.02 344.89 141.84"/><path class="cls-7" d="M354.14,144v.67H349.2V144Zm0,2.15v.67H349.2v-.67Z"/><path class="cls-3" d="M421.12,149l1-7.18h.15l2.92,5.89,2.91-5.89h.1l1,7.18h-.7l-.72-5.14L425.27,149h-.19l-2.57-5.18-.69,5.18Zm9.19,0,1-7.18h.15l2.92,5.89,2.91-5.89h.1l1,7.18h-.7l-.72-5.14L434.46,149h-.19l-2.57-5.18L431,149Z"/><path class="cls-2" d="M694.39,50.37h56.12v24H694.39v-24Zm57-.86H693.54V75.22h57.83Z"/><polygon class="cls-2" points="673.95 58.77 674.68 58.77 676.15 63.95 678.24 58.77 678.36 58.77 680.39 63.95 681.88 58.77 682.61 58.77 680.54 65.95 680.43 65.95 678.29 60.52 676.11 65.95 676 65.95 673.95 58.77"/><path class="cls-7" d="M688.58,61v.67h-4.94V61Zm0,2.15v.67h-4.94v-.67Z"/><path class="cls-3" d="M756.74,66l1-7.18h.15l2.92,5.89,2.91-5.89h.1l1,7.18h-.7l-.72-5.14L760.89,66h-.19l-2.57-5.17L757.44,66Zm9.19,0,1-7.18h.15L770,64.66l2.91-5.89h.1L774,66h-.7l-.72-5.14L770.08,66h-.19l-2.57-5.17L766.63,66Z"/><rect class="cls-6" x="658.81" y="118.4" width="22.48" height="0.85"/><rect class="cls-6" x="658.81" y="1.94" width="22.48" height="0.85"/><rect class="cls-6" x="665.08" y="2.36" width="0.85" height="116.46"/><path class="cls-2" d="M663.14,2.36a2.37,2.37,0,1,1,2.36,2.37A2.36,2.36,0,0,1,663.14,2.36Z"/><path class="cls-2" d="M663.14,118.83a2.37,2.37,0,1,1,2.36,2.36A2.37,2.37,0,0,1,663.14,118.83Z"/><path class="cls-1" d="M485.56,29.81a37.75,37.75,0,1,0,27.56,1.44l.27.43,1.41,2.22A36.15,36.15,0,1,1,470.13,42c.76-.88,1.57-1.73,2.41-2.54a36.14,36.14,0,0,1,13.8-8.24,8.22,8.22,0,0,1-.67-1.19Z"/></g></g></svg>