<svg xmlns="http://www.w3.org/2000/svg" viewBox="0 0 799.04 174.71"><defs><style>.cls-1{fill:#9f0e05;}.cls-1,.cls-2,.cls-3,.cls-4{fill-rule:evenodd;}.cls-2{fill:#e6340d;}.cls-3{fill:#1a1a18;}.cls-4{fill:#000003;}</style></defs><g id="Слой_2" data-name="Слой 2"><g id="Слой_1-2" data-name="Слой 1"><path class="cls-1" d="M10.74,76.7,145.46,6.29l345.34.46,133.92,70ZM144.57,2.55,2.58,76.7v49.38h629.6V76.35L491.89,3,144.57,2.55ZM6.42,79.54h622v43H6.42Z"/><path class="cls-1" d="M402.32,22.81H231.74l-35.5,46.06H439.15L403.52,22.81ZM232.94,25H402.32V44.52H232.94V25Zm0,21.71H402.32L415,66.65H220.42l12.52-19.9Zm-1.2-19.87V44.52l-14,22.13H200.36l31.38-39.77Zm186,39.77L403.52,44.52V26.88L435,66.65Z"/><path class="cls-1" d="M317.73,55.69c-5.68,0-10.28,2-10.28,4.41a2.7,2.7,0,0,0,1.18,2c1.72,1.4,5.15,2.35,9.1,2.35,4.11,0,7.67-1,9.31-2.53a2.57,2.57,0,0,0,1-1.87c0-2.43-4.6-4.41-10.27-4.41Zm0,4.92a18.23,18.23,0,0,1,6.93,1.22c.18.08.41.18.64.31a18,18,0,0,1-7.57,1.51,17.69,17.69,0,0,1-7.58-1.52l.64-.3A18.24,18.24,0,0,1,317.73,60.61Z"/><path class="cls-1" d="M317.73,12.66c-3.92,0-7.09,1.36-7.09,3a1.86,1.86,0,0,0,.81,1.41c1.19,1,3.55,1.62,6.28,1.62S323,18,324.15,17a1.81,1.81,0,0,0,.66-1.29c0-1.68-3.17-3-7.08-3Zm0,3.39a12.59,12.59,0,0,1,4.78.84l.44.21a12.34,12.34,0,0,1-5.22,1,12.21,12.21,0,0,1-5.23-1c.17-.08.32-.16.45-.21A12.55,12.55,0,0,1,317.73,16.05Z"/><path class="cls-2" d="M685.78,3.86A3,3,0,0,0,688.23,6V73.8a3,3,0,0,0-2.55,2.55h-53.5v.85h53.5a3,3,0,0,0,6,0h8.79v-.85h-8.79a3,3,0,0,0-2.55-2.55V6a3,3,0,0,0,2.46-2.12h8.88V3h-8.76a3,3,0,1,0-6,0H491.89l1.63.85Z"/><path class="cls-2" d="M634.77,165.45a3,3,0,0,0-2.59-3V126.08h-.85v36.39a3,3,0,0,0-2.45,2.11H5.88a3,3,0,0,0-2.45-2.11V126.08H2.58v36.39a3,3,0,0,0,0,5.95v6.29h.85v-6.29a3,3,0,0,0,2.58-3v0H628.75v0a3,3,0,0,0,2.58,3v6.29h.85v-6.29A3,3,0,0,0,634.77,165.45Z"/><path class="cls-2" d="M294,136h46.7v24H294V136Zm47.41-.85H293.33v25.7h48.11Z"/><polygon class="cls-3" points="265.75 154.14 268.15 142.68 269.67 142.68 267.54 152.84 273.45 152.84 273.17 154.14 265.75 154.14"/><path class="cls-3" d="M276.37,154.14l1.13-5.41a5.49,5.49,0,0,1-2.06.93l.17-.8a7.78,7.78,0,0,0,1.3-.69,6.11,6.11,0,0,0,1-.74,3.08,3.08,0,0,0,.37-.47h.51l-1.5,7.18Z"/><path class="cls-3" d="M288.53,147.4H281v-1.31h7.57v1.31Zm0,3.47H281v-1.31h7.57Z"/><polygon class="cls-3" points="346.2 159.95 347.19 152.77 347.34 152.77 350.26 158.66 353.17 152.77 353.28 152.77 354.31 159.95 353.61 159.95 352.89 154.81 350.35 159.95 350.16 159.95 347.59 154.77 346.91 159.95 346.2 159.95"/><polygon class="cls-3" points="355.39 159.95 356.38 152.77 356.53 152.77 359.45 158.66 362.36 152.77 362.47 152.77 363.5 159.95 362.8 159.95 362.08 154.81 359.54 159.95 359.35 159.95 356.78 154.77 356.1 159.95 355.39 159.95"/><path class="cls-2" d="M729.57,27.89h46.7v24h-46.7v-24ZM777,27H728.86v25.7H777Z"/><path class="cls-4" d="M699.41,45.62l-.7-11.46h1.55l.26,5.67c0,.27,0,1,.07,2.2,0,.33,0,.57,0,.7s0,.36,0,.79c.63-1.31,1.09-2.23,1.36-2.76l3.49-6.6H707l.38,6.7c0,.77.07,1.69.09,2.77.1-.27.26-.66.51-1.19.38-.85.66-1.46.84-1.82l3.25-6.46h1.56l-5.82,11.46h-1.64l-.37-6.94c0-.59-.07-1.33-.1-2.2-.32.73-.59,1.29-.8,1.69l-4,7.45Z"/><path class="cls-4" d="M714.22,45.62l1.13-5.41a5.57,5.57,0,0,1-2.06.93l.16-.8a7.41,7.41,0,0,0,1.3-.69,6.82,6.82,0,0,0,1-.74,3.08,3.08,0,0,0,.37-.47h.51l-1.5,7.18Z"/><path class="cls-4" d="M726.38,38.88h-7.57V37.57h7.57v1.31Zm0,3.47h-7.57V41h7.57Z"/><polygon class="cls-3" points="781.74 51.89 782.73 44.71 782.88 44.71 785.8 50.6 788.7 44.71 788.81 44.71 789.85 51.89 789.15 51.89 788.43 46.75 785.89 51.89 785.7 51.89 783.13 46.71 782.44 51.89 781.74 51.89"/><polygon class="cls-3" points="790.93 51.89 791.92 44.71 792.07 44.71 794.99 50.6 797.89 44.71 798 44.71 799.04 51.89 798.34 51.89 797.62 46.75 795.08 51.89 794.89 51.89 792.32 46.71 791.63 51.89 790.93 51.89"/></g></g></svg>