<svg xmlns="http://www.w3.org/2000/svg" viewBox="0 0 774.52 425.27"><defs><style>.cls-1,.cls-3{fill:#9f0e05;}.cls-1,.cls-2,.cls-4,.cls-5,.cls-6{fill-rule:evenodd;}.cls-2{fill:#e6340d;}.cls-4{fill:#000003;}.cls-5{fill:#676767;}.cls-6{fill:#1a1a18;}</style></defs><g id="Слой_2" data-name="Слой 2"><g id="Слой_1-2" data-name="Слой 1"><path class="cls-1" d="M173.51,74H607.13V70.24H173.51V74Zm441.62,8h0V348.5h3.75V82Zm-8,276.38H513.37v3.75h93.76v-3.75ZM505.37,348.5h0V183.87H173.51v3.75l328.11.09V348.5ZM165.51,175.87h0V82h-3.75v93.88Z"/><polygon class="cls-1" points="204.69 87.93 286.44 87.93 286.44 169.93 276.61 169.93 276.61 171.56 288.06 171.56 288.06 86.31 203.06 86.31 203.06 171.56 253.11 171.56 253.11 169.93 204.69 169.93 204.69 87.93"/><path class="cls-1" d="M258.63,144.8a8.06,8.06,0,1,1,8.06,8.07,8.06,8.06,0,0,1-8.06-8.07Zm8.06-9.48h0a9.48,9.48,0,1,0,9.48,9.48A9.48,9.48,0,0,0,266.69,135.32Z"/><path class="cls-1" d="M220.69,144.8a8.06,8.06,0,1,1,8.06,8.07,8.06,8.06,0,0,1-8.06-8.07Zm8.06-9.48h0a9.48,9.48,0,1,0,9.48,9.48A9.48,9.48,0,0,0,228.75,135.32Z"/><path class="cls-1" d="M258.63,107.68a8.06,8.06,0,1,1,8.06,8.06,8.06,8.06,0,0,1-8.06-8.06Zm8.06-9.48h0a9.48,9.48,0,1,0,9.48,9.48A9.47,9.47,0,0,0,266.69,98.2Z"/><path class="cls-1" d="M253.75,107.68a12.94,12.94,0,1,1,12.94,12.94,12.94,12.94,0,0,1-12.94-12.94Zm12.94-14.36h0A14.36,14.36,0,1,0,281,107.68,14.36,14.36,0,0,0,266.69,93.32Z"/><path class="cls-1" d="M213.25,144.8a15.79,15.79,0,0,1,.37-3.39l-1-.73h-.3a16.91,16.91,0,1,0,3.54-6.86v.05l1.12.83a15.49,15.49,0,1,1-3.75,10.1Z"/><path class="cls-1" d="M228.75,131.31a13.5,13.5,0,1,0,13.5,13.49,13.5,13.5,0,0,0-13.5-13.49Zm-12,13.49h0a12,12,0,1,1,12,12A12,12,0,0,1,216.78,144.8Z"/><path class="cls-1" d="M215.81,107.68a12.94,12.94,0,1,1,12.94,12.94,12.94,12.94,0,0,1-12.94-12.94Zm12.94-14.36h0a14.36,14.36,0,1,0,14.35,14.36A14.35,14.35,0,0,0,228.75,93.32Z"/><polygon class="cls-2" points="242.64 257.61 260.12 191.39 261 191.39 243.3 258.46 137.28 258.46 137.28 257.61 242.64 257.61"/><rect class="cls-3" x="561.25" y="97.99" width="32.75" height="0.85"/><rect class="cls-3" x="561.25" y="109.85" width="32.75" height="0.85"/><rect class="cls-3" x="561.25" y="121.71" width="32.75" height="0.85"/><rect class="cls-3" x="561.25" y="133.58" width="32.75" height="0.85"/><rect class="cls-3" x="561.25" y="145.44" width="32.75" height="0.85"/><rect class="cls-3" x="561.25" y="157.3" width="32.75" height="0.85"/><rect class="cls-3" x="561.25" y="169.16" width="32.75" height="0.85"/><path class="cls-4" d="M142.76,69h1.43a8.15,8.15,0,0,1,1.62.1,1.77,1.77,0,0,1,1.45,1.81,1.87,1.87,0,0,1-.28,1,1.74,1.74,0,0,1-.79.67,3.59,3.59,0,0,1-1.42.23l2.59,3.34h-.88l-2.59-3.34h-.41v3.34h-.72V69Zm.72.7h0v2.44h1.24a3.06,3.06,0,0,0,1.06-.14,1.1,1.1,0,0,0,.54-.43,1.23,1.23,0,0,0,.2-.68,1.14,1.14,0,0,0-.2-.65,1,1,0,0,0-.51-.42,3,3,0,0,0-1.06-.13Z"/><path class="cls-4" d="M142.76,181.9h1.43a9,9,0,0,1,1.62.1,1.89,1.89,0,0,1,1.05.63,1.81,1.81,0,0,1,.4,1.18,1.85,1.85,0,0,1-.28,1,1.68,1.68,0,0,1-.79.67,3.59,3.59,0,0,1-1.42.23l2.59,3.34h-.88l-2.59-3.34h-.41v3.34h-.72V181.9Zm.72.7h0V185h1.24a3.11,3.11,0,0,0,1.06-.13,1.12,1.12,0,0,0,.54-.44,1.21,1.21,0,0,0,0-1.33,1.16,1.16,0,0,0-.51-.42,3.3,3.3,0,0,0-1.06-.13Z"/><path class="cls-4" d="M634.63,70.06h1.44a9.11,9.11,0,0,1,1.62.1,1.87,1.87,0,0,1,1,.63,1.76,1.76,0,0,1,.4,1.18,1.93,1.93,0,0,1-.27,1,1.73,1.73,0,0,1-.79.67,3.65,3.65,0,0,1-1.42.23l2.58,3.34h-.88l-2.58-3.34h-.42v3.34h-.72V70.06Zm.72.7h0V73.2h1.24a3.18,3.18,0,0,0,1.07-.13,1.12,1.12,0,0,0,.54-.44,1.17,1.17,0,0,0-.52-1.75,3.21,3.21,0,0,0-1.06-.13Z"/><path class="cls-4" d="M634.37,356.66h1.43a8.15,8.15,0,0,1,1.62.1,1.89,1.89,0,0,1,1.17,2.83,1.76,1.76,0,0,1-.79.68,3.78,3.78,0,0,1-1.42.23l2.59,3.34h-.88l-2.59-3.34h-.41v3.34h-.72v-7.18Zm.72.7h0v2.44h1.24a3.06,3.06,0,0,0,1.06-.14,1.12,1.12,0,0,0,.54-.44,1.2,1.2,0,0,0,.2-.67,1.14,1.14,0,0,0-.2-.65,1.12,1.12,0,0,0-.51-.43,3.36,3.36,0,0,0-1.06-.12Z"/><path class="cls-2" d="M1.83,387.78h.79A12.56,12.56,0,0,0,1.24,391a14.3,14.3,0,0,0-.5,3.78,9.94,9.94,0,0,0,.3,2.58H.3a9.23,9.23,0,0,1-.3-2.47,15,15,0,0,1,.48-3.74,14.13,14.13,0,0,1,1.35-3.37Zm7.53,9.58H8.57A12.26,12.26,0,0,0,10,394.14a14.3,14.3,0,0,0,.5-3.75,10.18,10.18,0,0,0-.3-2.61h.74a9.7,9.7,0,0,1,.29,2.5A14.85,14.85,0,0,1,10.7,394a13.72,13.72,0,0,1-1.34,3.35ZM4.19,388.1H6a3.55,3.55,0,0,1,1.38.19,1.5,1.5,0,0,1,.67.58,1.71,1.71,0,0,1,.26.93,2,2,0,0,1-1.14,1.83,3.18,3.18,0,0,1-1.38.25L8,395.28H7.14L5,391.88H4.41L4,395.28H3.22l1-7.18Zm.63.69h0l-.32,2.39h.83a6.05,6.05,0,0,0,1.2-.07,1.41,1.41,0,0,0,.77-.46,1.28,1.28,0,0,0,.29-.84.88.88,0,0,0-.41-.82,2.24,2.24,0,0,0-1.12-.2Z"/><path class="cls-5" d="M15.47,392.28h2.69l-.09.6H15.39l.08-.6Zm11.84-1.15h0l-.56.32a2,2,0,0,0-1.81-1,2.72,2.72,0,0,0-1.28.31,2.25,2.25,0,0,0-.91.87,2.3,2.3,0,0,0-.33,1.19,2.05,2.05,0,0,0,.24,1,1.67,1.67,0,0,0,.69.68,2.13,2.13,0,0,0,1,.24,3,3,0,0,0,1.18-.24,2.23,2.23,0,0,0,.87-.63l.56.4a3.37,3.37,0,0,1-1.15.84,3.72,3.72,0,0,1-1.43.26,2.76,2.76,0,0,1-2-.68,2.44,2.44,0,0,1-.7-1.83,2.9,2.9,0,0,1,.93-2.16,3.11,3.11,0,0,1,2.26-.9,3,3,0,0,1,1.43.34,2.32,2.32,0,0,1,.94.95ZM28.85,390h.69l-.31,2.24L32,390h1l-3,2.44,2.47,2.87h-1l-2.1-2.45-.24.19-.31,2.26h-.69l.72-5.31Zm5.22,0h.7l-.11.81a2.86,2.86,0,0,1,2.1-.94,2.38,2.38,0,0,1,2.48,2.49,3,3,0,0,1-.9,2.17,2.88,2.88,0,0,1-2.13.91,2.22,2.22,0,0,1-2-1.14l-.39,3h-.71l1-7.25Zm2.62.49h0a2.4,2.4,0,0,0-1.19.31,2.23,2.23,0,0,0-.86.89,2.62,2.62,0,0,0-.32,1.26,1.77,1.77,0,0,0,1.87,1.86,2.29,2.29,0,0,0,1.68-.7,2.41,2.41,0,0,0,.69-1.74A1.82,1.82,0,0,0,38,391a1.79,1.79,0,0,0-1.35-.52Zm3.42-.49h.7l1.38,3.92L44.47,390h.76L41,397.22h-.76l1.51-2.58L40.11,390Zm6.64.6h0l-.64,4.71h-.67l.72-5.31h2.68l-.07.6Zm6.52,4.71h0L51.54,390h-.12l-3.15,5.31H49l2.29-3.86,1.26,3.86Zm6.35-2.52H54.88a2,2,0,0,0,.5,1.49,1.74,1.74,0,0,0,1.35.54,2.25,2.25,0,0,0,1-.23,2,2,0,0,0,.79-.64l.51.41a2.73,2.73,0,0,1-1,.79,3.24,3.24,0,0,1-1.35.29,2.27,2.27,0,0,1-1.88-.77,2.66,2.66,0,0,1-.63-1.74,3,3,0,0,1,.43-1.51,3,3,0,0,1,1.13-1.14,3,3,0,0,1,1.53-.41,2.25,2.25,0,0,1,1.69.69,2.41,2.41,0,0,1,.67,1.76,4.54,4.54,0,0,1,0,.47Zm-.63-.6h0a1.66,1.66,0,0,0-1.72-1.67,2.3,2.3,0,0,0-1.41.45,2.38,2.38,0,0,0-.86,1.22Zm2.76-.08h3.08l.29-2.11h.69l-.72,5.31H64.4l.35-2.56H61.67l-.35,2.56h-.69l.72-5.31H62l-.29,2.11ZM68.11,390h0l-.51,3.82L71.87,390h0l-.72,5.31h-.68L71,391.5l-4.22,3.78h-.08l.72-5.31Zm10.2,2.79H73.58a2,2,0,0,0,.49,1.49,1.77,1.77,0,0,0,1.35.54,2.3,2.3,0,0,0,1-.23,2.06,2.06,0,0,0,.79-.64l.51.41a2.85,2.85,0,0,1-1,.79,3.21,3.21,0,0,1-1.35.29,2.24,2.24,0,0,1-1.87-.77,2.66,2.66,0,0,1-.63-1.74,3,3,0,0,1,.42-1.51,3,3,0,0,1,1.13-1.14,3.06,3.06,0,0,1,1.54-.41,2.26,2.26,0,0,1,1.69.69,2.46,2.46,0,0,1,.67,1.76,3,3,0,0,1,0,.47Zm-.62-.6h0a1.72,1.72,0,0,0-.51-1.21,1.74,1.74,0,0,0-1.22-.46,2.28,2.28,0,0,0-1.4.45,2.34,2.34,0,0,0-.87,1.22ZM82.12,390h.7l1.38,3.92L86.48,390h.76L83,397.22h-.77l1.51-2.58L82.12,390Zm6.64.6h0l-.64,4.71h-.66l.71-5.31h2.69l-.08.6Zm6.53,4.71h0L93.56,390h-.13l-3.14,5.31H91l2.29-3.86,1.26,3.86Zm6.11,0h-.69l.1-.8a2.89,2.89,0,0,1-2.11.93,2.41,2.41,0,0,1-1.77-.69,2.47,2.47,0,0,1-.69-1.8,3.09,3.09,0,0,1,3-3.08,2.29,2.29,0,0,1,1.16.28,2.24,2.24,0,0,1,.84.86l.14-1h.69l-.71,5.31Zm-2.61-.49h0a2.32,2.32,0,0,0,1.19-.31,2.17,2.17,0,0,0,.86-.89,2.61,2.61,0,0,0,.31-1.26,1.78,1.78,0,0,0-1.87-1.86,2.26,2.26,0,0,0-1.67.71,2.39,2.39,0,0,0-.69,1.74,1.77,1.77,0,0,0,1.87,1.87Z"/><path class="cls-2" d="M705.06,204.18h46.7v24h-46.7v-24Zm47.4-.85H704.35V229h48.11Z"/><path class="cls-4" d="M138.4,226.94h1.28a2.87,2.87,0,0,1,1.18.19,1.41,1.41,0,0,1,.65.56,1.57,1.57,0,0,1,0,1.62,1.6,1.6,0,0,1-.61.57,2.61,2.61,0,0,1,.77.4,1.65,1.65,0,0,1,.42.56,1.71,1.71,0,0,1,.15.71,1.75,1.75,0,0,1-.57,1.32,2.09,2.09,0,0,1-1.52.54H138.4v-6.47Zm.63.63h0v2.07h.37a3.06,3.06,0,0,0,1-.12,1,1,0,0,0,.5-.4,1.07,1.07,0,0,0,.19-.6.85.85,0,0,0-.32-.69,1.53,1.53,0,0,0-1-.26Zm0,2.72h0v2.49h.81a3,3,0,0,0,1-.14,1.19,1.19,0,0,0,.53-.44,1.12,1.12,0,0,0,.2-.63,1.17,1.17,0,0,0-.28-.76,1.5,1.5,0,0,0-.78-.44,5.83,5.83,0,0,0-1.15-.08Z"/><path class="cls-4" d="M143.55,226.94h.65v2.78h.47a9.67,9.67,0,0,1,1.82.12,1.48,1.48,0,0,1,.89.56,1.82,1.82,0,0,1,.34,1.14,1.88,1.88,0,0,1-.33,1.14,1.5,1.5,0,0,1-.84.59,7.44,7.44,0,0,1-1.71.14h-1.29v-6.47Zm.65,5.84h.69a5.78,5.78,0,0,0,1.42-.11,1,1,0,0,0,.53-.38,1.25,1.25,0,0,0,.2-.72,1.26,1.26,0,0,0-.25-.79,1.05,1.05,0,0,0-.63-.37,10.72,10.72,0,0,0-1.41-.06h-.55v2.43Zm4.28-5.84h.64v6.47h-.64Z"/><path class="cls-4" d="M150.69,226.94H152a7.56,7.56,0,0,1,1.49.1,1.7,1.7,0,0,1,.91.56,1.64,1.64,0,0,1,.35,1.07,1.61,1.61,0,0,1-.34,1.06,1.74,1.74,0,0,1-.95.57,8.47,8.47,0,0,1-1.64.1h-.46v3h-.65v-6.47Zm.65.63h0v2.2h1.09a2.82,2.82,0,0,0,1-.12,1,1,0,0,0,.49-.39,1.14,1.14,0,0,0,0-1.2.92.92,0,0,0-.47-.38,2.62,2.62,0,0,0-.94-.12Z"/><polygon class="cls-4" points="156.03 226.94 159.72 226.94 159.72 227.57 156.67 227.57 156.67 229.6 159.7 229.6 159.7 230.23 156.67 230.23 156.67 232.78 159.7 232.78 159.7 233.41 156.03 233.41 156.03 226.94"/><path class="cls-4" d="M161,227.57a2.14,2.14,0,0,1,1.68-.79,2,2,0,0,1,1.32.46,1.61,1.61,0,0,1-.46,2.67,1.63,1.63,0,0,1,1.28,1.71,1.84,1.84,0,0,1-.57,1.41,2.19,2.19,0,0,1-1.57.54,2.42,2.42,0,0,1-1.2-.29,2.78,2.78,0,0,1-1-1l.5-.29a2.35,2.35,0,0,0,.84.84,1.8,1.8,0,0,0,.82.19,1.59,1.59,0,0,0,1-.35,1.29,1.29,0,0,0,.44-1A1.32,1.32,0,0,0,164,231a1.15,1.15,0,0,0-.42-.43,1.45,1.45,0,0,0-.51-.21,4.66,4.66,0,0,0-.79-.05h-.11v-.56h.21q1.44,0,1.44-1.17a1.15,1.15,0,0,0-.33-.86,1.12,1.12,0,0,0-.83-.31,1.67,1.67,0,0,0-1.22.59Z"/><polygon class="cls-4" points="138.38 237.67 142.97 237.67 142.97 244.13 142.32 244.13 142.32 238.28 139.02 238.28 139.02 244.13 138.38 244.13 138.38 237.67"/><path class="cls-4" d="M147.61,237.5a3.37,3.37,0,0,1,2.46,1,3.4,3.4,0,0,1-2.4,5.81,3.33,3.33,0,0,1-2.43-1,3.24,3.24,0,0,1-1-2.38,3.43,3.43,0,0,1,.45-1.73,3.32,3.32,0,0,1,2.91-1.7Zm0,.63h0a2.69,2.69,0,0,0-1.36.38,2.74,2.74,0,0,0-1,1,2.84,2.84,0,0,0-.36,1.41,2.66,2.66,0,0,0,.8,2,2.61,2.61,0,0,0,1.92.79,2.81,2.81,0,0,0,1.4-.36,2.64,2.64,0,0,0,1-1,2.79,2.79,0,0,0,.36-1.41,2.74,2.74,0,0,0-.36-1.39,2.6,2.6,0,0,0-1-1A2.71,2.71,0,0,0,147.64,238.13Z"/><path class="cls-4" d="M152.36,245.09h-.65v-1.56h.52l2.53-5.86H155l2.68,5.86h.5v1.56h-.65v-1h-5.15v1Zm.59-1.56h4l-2-4.51Z"/><path class="cls-4" d="M161.6,237.67h1.27a3,3,0,0,1,1.18.18,1.45,1.45,0,0,1,.66.56,1.57,1.57,0,0,1,0,1.62,1.49,1.49,0,0,1-.62.57,2.29,2.29,0,0,1,.77.41,1.45,1.45,0,0,1,.43.55,1.71,1.71,0,0,1,.15.71,1.75,1.75,0,0,1-.57,1.32,2.13,2.13,0,0,1-1.53.54H161.6v-6.46Zm.63.63h0v2.07h.37a2.94,2.94,0,0,0,1-.13,1.07,1.07,0,0,0,.69-1,.84.84,0,0,0-.31-.7,1.57,1.57,0,0,0-1-.25Zm0,2.71h0v2.49h.8a2.93,2.93,0,0,0,1-.14,1.18,1.18,0,0,0,.53-.43,1.15,1.15,0,0,0,.2-.64,1.12,1.12,0,0,0-.28-.76,1.51,1.51,0,0,0-.77-.44,6,6,0,0,0-1.16-.08Z"/><path class="cls-4" d="M169.39,237.67l3,6.46h-.7l-1-2.13h-2.8l-1,2.13h-.72l3-6.46Zm-.08,1.35h0l-1.11,2.35h2.22Z"/><path class="cls-4" d="M173.4,237.67h1.29a8,8,0,0,1,1.5.09,1.64,1.64,0,0,1,.9.56,1.78,1.78,0,0,1,0,2.13,1.71,1.71,0,0,1-.94.57,8.59,8.59,0,0,1-1.65.1h-.46v3h-.65v-6.46Zm.65.63h0v2.19l1.1,0a2.62,2.62,0,0,0,1-.13,1,1,0,0,0,.48-.39,1.09,1.09,0,0,0,0-1.2,1,1,0,0,0-.46-.38,2.71,2.71,0,0,0-.94-.11Z"/><path class="cls-4" d="M181.81,237.5a3.37,3.37,0,0,1,2.46,1,3.4,3.4,0,0,1-2.41,5.81,3.33,3.33,0,0,1-2.42-1,3.24,3.24,0,0,1-1-2.38,3.43,3.43,0,0,1,.45-1.73,3.32,3.32,0,0,1,2.91-1.7Zm0,.63h0a2.79,2.79,0,0,0-2.36,1.38,2.84,2.84,0,0,0-.36,1.41,2.71,2.71,0,0,0,2.72,2.74,2.77,2.77,0,0,0,1.39-.36,2.67,2.67,0,0,0,1-1,2.79,2.79,0,0,0,.36-1.41,2.74,2.74,0,0,0-.36-1.39,2.67,2.67,0,0,0-1-1A2.71,2.71,0,0,0,181.84,238.13Z"/><path class="cls-4" d="M189.19,240.46v-2.79h.65v6.46h-.65v-3h-.46a9.13,9.13,0,0,1-1.41-.08,1.92,1.92,0,0,1-.8-.35A1.39,1.39,0,0,1,186,240a3.62,3.62,0,0,1-.13-1.06v-1.28h.63V239a1.58,1.58,0,0,0,.33,1.14,1.5,1.5,0,0,0,1.09.33h1.23Z"/><polygon class="cls-4" points="191.4 237.67 192.04 237.67 192.04 240.38 195.34 240.38 195.34 237.67 195.99 237.67 195.99 244.13 195.34 244.13 195.34 241 192.04 241 192.04 244.13 191.4 244.13 191.4 237.67"/><path class="cls-4" d="M197.06,237.68h.73l2,4.39,1.79-4.4h.71l-2.46,5.8a1.22,1.22,0,0,1-1.22.82,1.66,1.66,0,0,1-.66-.14,2.82,2.82,0,0,1-.79-.68l.47-.38a2.9,2.9,0,0,0,.65.54,1,1,0,0,0,.33.07.72.72,0,0,0,.44-.14,1.65,1.65,0,0,0,.41-.68Z"/><path class="cls-4" d="M204,240.55h1.13a3.4,3.4,0,0,1,1.23-2.3,3.45,3.45,0,0,1,2.11-.75,3.37,3.37,0,0,1,2.46,1,3.4,3.4,0,0,1-2.4,5.81,3.34,3.34,0,0,1-3.4-3.13H204v3h-.65v-6.46H204v2.88Zm7.26.34h0a2.6,2.6,0,0,0-.83-2,2.73,2.73,0,0,0-4.63,2,2.6,2.6,0,0,0,.81,1.95,2.74,2.74,0,0,0,4.65-2Z"/><polygon class="cls-4" points="138.38 248.39 142.97 248.39 142.97 254.85 142.32 254.85 142.32 249 139.02 249 139.02 254.85 138.38 254.85 138.38 248.39"/><path class="cls-4" d="M147.18,248.39l3,6.46h-.69l-1-2.12h-2.8l-1,2.12H144l3.05-6.46Zm-.08,1.35h0L146,252.1h2.22Z"/><polygon class="cls-4" points="151.18 248.39 151.83 248.39 151.83 251.1 155.12 251.1 155.12 248.39 155.77 248.39 155.77 254.85 155.12 254.85 155.12 251.73 151.83 251.73 151.83 254.85 151.18 254.85 151.18 248.39"/><polygon class="cls-4" points="157.35 248.39 161.05 248.39 161.05 249.02 158 249.02 158 251.04 161.02 251.04 161.02 251.67 158 251.67 158 254.22 161.02 254.22 161.02 254.85 157.35 254.85 157.35 248.39"/><polygon class="cls-4" points="167.4 254.85 166.7 254.85 164.55 249.85 162.37 254.85 161.67 254.85 164.49 248.39 164.63 248.39 167.4 254.85"/><path class="cls-4" d="M168.48,248.39h.65v2.77h.47a9.67,9.67,0,0,1,1.82.12,1.49,1.49,0,0,1,.89.57,1.78,1.78,0,0,1,.34,1.14,1.87,1.87,0,0,1-.33,1.13,1.5,1.5,0,0,1-.84.59,7.44,7.44,0,0,1-1.71.14h-1.29v-6.46Zm.65,5.83h.69a6,6,0,0,0,1.42-.1,1,1,0,0,0,.53-.39,1.37,1.37,0,0,0-.05-1.5,1,1,0,0,0-.63-.37,8.77,8.77,0,0,0-1.41-.07h-.55Z"/><path class="cls-4" d="M481.21,356.66h1.44a8.22,8.22,0,0,1,1.62.1,1.78,1.78,0,0,1,1.44,1.81,1.89,1.89,0,0,1-.27,1,1.81,1.81,0,0,1-.79.68,3.85,3.85,0,0,1-1.42.23l2.58,3.34h-.88l-2.58-3.34h-.42v3.34h-.72v-7.18Zm.72.7h0v2.44h1.24a3.13,3.13,0,0,0,1.07-.14,1.12,1.12,0,0,0,.54-.44,1.19,1.19,0,0,0,.19-.67,1.13,1.13,0,0,0-.19-.65,1.14,1.14,0,0,0-.52-.43,3.28,3.28,0,0,0-1.06-.12Z"/><polygon class="cls-2" points="678.3 221.91 680.7 210.46 682.22 210.46 680.09 220.62 686 220.62 685.73 221.91 678.3 221.91"/><path class="cls-2" d="M687.1,221.91a3.93,3.93,0,0,1,.38-1.07,3.72,3.72,0,0,1,.64-.82c.27-.26.78-.69,1.54-1.3.46-.37.78-.64,1-.81a2.66,2.66,0,0,0,.53-.75,1.19,1.19,0,0,0,.11-.54,1.11,1.11,0,0,0-.35-.84,1.19,1.19,0,0,0-.85-.34,1.26,1.26,0,0,0-.88.35,2.1,2.1,0,0,0-.54,1.12l-.86-.13a2.39,2.39,0,0,1,.74-1.5,2.24,2.24,0,0,1,1.53-.55,2.5,2.5,0,0,1,1.1.25,1.72,1.72,0,0,1,.74.72,1.9,1.9,0,0,1,.25,1,2.27,2.27,0,0,1-.5,1.37,14.28,14.28,0,0,1-1.84,1.61,8.86,8.86,0,0,0-1,.85,2.67,2.67,0,0,0-.48.62h3.19l-.17.81Z"/><path class="cls-2" d="M701.08,215.18h-7.57v-1.32h7.57v1.32Zm0,3.47h-7.57v-1.31h7.57Z"/><polygon class="cls-6" points="757.22 228.18 758.22 221 758.37 221 761.29 226.89 764.19 221 764.3 221 765.33 228.18 764.64 228.18 763.92 223.04 761.38 228.18 761.19 228.18 758.62 223 757.93 228.18 757.22 228.18"/><polygon class="cls-6" points="766.41 228.18 767.41 221 767.56 221 770.48 226.89 773.38 221 773.49 221 774.52 228.18 773.83 228.18 773.11 223.04 770.57 228.18 770.38 228.18 767.81 223 767.12 228.18 766.41 228.18"/><path class="cls-2" d="M541.61,400.42H588.3v24H541.61v-24Zm47.4-.85H540.9v25.7H589Z"/><path class="cls-2" d="M511.44,418.14l-.7-11.45h1.55l.26,5.67c0,.27,0,1,.07,2.2,0,.33,0,.57,0,.7s0,.35,0,.79c.63-1.31,1.09-2.23,1.37-2.77l3.48-6.59h1.58l.37,6.7c0,.76.07,1.69.1,2.77.09-.27.26-.67.5-1.2.38-.85.66-1.45.85-1.82l3.25-6.45h1.56l-5.83,11.45h-1.64l-.36-6.93c0-.6-.08-1.33-.11-2.2-.31.72-.58,1.29-.79,1.69l-4,7.44Z"/><path class="cls-2" d="M524.43,418.14a3.93,3.93,0,0,1,.38-1.07,4,4,0,0,1,.64-.82c.27-.25.78-.69,1.54-1.29a11,11,0,0,0,1-.82,2.77,2.77,0,0,0,.53-.74,1.26,1.26,0,0,0,.11-.55,1.1,1.1,0,0,0-.35-.83,1.15,1.15,0,0,0-.85-.35,1.26,1.26,0,0,0-.88.35,2.14,2.14,0,0,0-.54,1.12l-.86-.13a2.39,2.39,0,0,1,.74-1.5,2.24,2.24,0,0,1,1.53-.55,2.38,2.38,0,0,1,1.1.26,1.64,1.64,0,0,1,.74.71,1.93,1.93,0,0,1,.25.95,2.27,2.27,0,0,1-.5,1.37,14.28,14.28,0,0,1-1.84,1.61,10.08,10.08,0,0,0-1,.85,2.67,2.67,0,0,0-.48.62h3.19l-.17.81Z"/><path class="cls-2" d="M538.41,411.41h-7.57V410.1h7.57v1.31Zm0,3.47h-7.57v-1.31h7.57Z"/><polygon class="cls-6" points="593.77 424.42 594.77 417.24 594.91 417.24 597.84 423.13 600.74 417.24 600.85 417.24 601.88 424.42 601.19 424.42 600.47 419.28 597.92 424.42 597.73 424.42 595.17 419.24 594.48 424.42 593.77 424.42"/><polygon class="cls-6" points="602.96 424.42 603.96 417.24 604.1 417.24 607.03 423.13 609.93 417.24 610.04 417.24 611.07 424.42 610.38 424.42 609.66 419.28 607.11 424.42 606.92 424.42 604.36 419.24 603.67 424.42 602.96 424.42"/><path class="cls-2" d="M39.75,115.94h46.7v24H39.75v-24Zm47.41-.85H39.05v25.7H87.16Z"/><path class="cls-2" d="M9.59,133.67l-.7-11.46h1.55l.26,5.67c0,.27,0,1,.07,2.2,0,.33,0,.57,0,.7s0,.36,0,.79c.63-1.31,1.09-2.23,1.37-2.76l3.48-6.6h1.57l.38,6.7c0,.76.07,1.69.1,2.77.09-.27.26-.66.5-1.19.38-.85.66-1.46.85-1.82l3.24-6.46h1.57L18,133.67H16.39L16,126.73c0-.59-.07-1.33-.1-2.2-.32.73-.58,1.29-.8,1.69l-3.95,7.45Z"/><path class="cls-2" d="M24.4,133.67l1.13-5.41a5.73,5.73,0,0,1-2.06.93l.16-.8a7.86,7.86,0,0,0,1.31-.69,7.25,7.25,0,0,0,1-.74,3.08,3.08,0,0,0,.37-.47h.51l-1.5,7.18Z"/><path class="cls-2" d="M36.56,126.93H29v-1.31h7.57v1.31Zm0,3.47H29v-1.31h7.57Z"/><polygon class="cls-6" points="91.92 139.94 92.91 132.76 93.06 132.76 95.98 138.65 98.89 132.76 99 132.76 100.03 139.94 99.33 139.94 98.61 134.8 96.07 139.94 95.88 139.94 93.31 134.76 92.63 139.94 91.92 139.94"/><polygon class="cls-6" points="101.11 139.94 102.1 132.76 102.25 132.76 105.17 138.65 108.08 132.76 108.19 132.76 109.22 139.94 108.52 139.94 107.8 134.8 105.26 139.94 105.07 139.94 102.5 134.76 101.81 139.94 101.11 139.94"/><path class="cls-2" d="M370.59.85h46.69v24H370.59V.85ZM418,0H369.88V25.7H418Z"/><polygon class="cls-2" points="342.3 19.04 344.7 7.58 346.22 7.58 344.09 17.74 350 17.74 349.73 19.04 342.3 19.04"/><path class="cls-2" d="M352.92,19l1.13-5.41a5.49,5.49,0,0,1-2.06.93l.17-.8a7.78,7.78,0,0,0,1.3-.69,6.11,6.11,0,0,0,1-.74,3.08,3.08,0,0,0,.37-.47h.51L353.8,19Z"/><path class="cls-2" d="M365.08,12.3h-7.57V11h7.57V12.3Zm0,3.47h-7.57V14.46h7.57Z"/><polygon class="cls-6" points="422.75 24.85 423.75 17.67 423.89 17.67 426.81 23.56 429.72 17.67 429.83 17.67 430.86 24.85 430.17 24.85 429.44 19.71 426.9 24.85 426.71 24.85 424.14 19.67 423.46 24.85 422.75 24.85"/><polygon class="cls-6" points="431.94 24.85 432.94 17.67 433.08 17.67 436 23.56 438.91 17.67 439.02 17.67 440.05 24.85 439.36 24.85 438.63 19.71 436.09 24.85 435.9 24.85 433.33 19.67 432.65 24.85 431.94 24.85"/><path class="cls-2" d="M114.35,74a2.39,2.39,0,0,0,1.9-1.9H136.2v-.85H116.25a2.36,2.36,0,0,0-4.65,0h-9.42v.85h9.42a2.36,2.36,0,0,0,1.9,1.9V182.88a2.36,2.36,0,0,0-1.9,1.9h-9.42v.85h9.42a2.36,2.36,0,0,0,4.65,0H136.2v-.85H116.25a2.39,2.39,0,0,0-1.9-1.9Z"/><path class="cls-2" d="M159.4,32.47a2.36,2.36,0,0,0,1.93,2.33V54.72h.85V34.8a2.36,2.36,0,0,0,1.9-1.9H616.56a2.36,2.36,0,0,0,1.9,1.9V54.72h.85V34.8a2.36,2.36,0,0,0,0-4.65V20.71h-.85v9.44a2.34,2.34,0,0,0-1.9,1.9H164.08a2.34,2.34,0,0,0-1.9-1.9V20.71h-.85v9.44A2.35,2.35,0,0,0,159.4,32.47Z"/><path class="cls-2" d="M616.58,392a2.36,2.36,0,0,0-1.9,1.9H505.82a2.36,2.36,0,0,0-1.9-1.9V372h-.85V392a2.36,2.36,0,0,0,0,4.65V406h.85V396.6a2.39,2.39,0,0,0,1.9-1.9H614.68a2.39,2.39,0,0,0,1.9,1.9V406h.85V396.6a2.36,2.36,0,0,0,0-4.65V372h-.85Z"/><path class="cls-2" d="M664.16,360.67a2.36,2.36,0,0,0,4.64,0h9.44v-.85h-9.43a2.39,2.39,0,0,0-1.9-1.9V74.44a2.34,2.34,0,0,0,1.89-1.9h9.44v-.85h-9.43a2.37,2.37,0,0,0-4.65,0H644.23v.85h19.93a2.34,2.34,0,0,0,1.89,1.9V357.92a2.36,2.36,0,0,0-1.89,1.9H644.23v.85Z"/><path class="cls-1" d="M490.67,92.55l.25-.27,0,0,4.55-4.78a3.22,3.22,0,0,1,5,.36l11.65,18.3a1.06,1.06,0,0,1,.17.57,1,1,0,0,1-1,1,1,1,0,0,1-.41-.09L491.68,97.51a3.25,3.25,0,0,1-1.78-2.88,3.17,3.17,0,0,1,.77-2.08Zm19.51,15.93.19.1a2.09,2.09,0,0,0,.87.19,2.06,2.06,0,0,0,1.73-3.18l-11.46-18-.2-.3a4.24,4.24,0,0,0-6.56-.5l-4.54,4.76c-.11.11-.23.23-.33.35a4.25,4.25,0,0,0,1.32,6.54Z"/><path class="cls-1" d="M502.73,104.53l-3.68,19.39a1.1,1.1,0,0,1-.29.5,1,1,0,0,1-1.46,0,1.13,1.13,0,0,1-.22-.36L491.35,98.5l-.15-.08a4.29,4.29,0,0,1-1.11-.81l0,.08L496,124.15l.06.21c.1.27,0,.23.47.75a2.86,2.86,0,0,0,2.91.06,1.38,1.38,0,0,0,.58-1L503.67,105Z"/><path class="cls-1" d="M485.74,97.68a37.77,37.77,0,1,0,27.55,1.45l.28.42,1.41,2.22a36.15,36.15,0,1,1-44.67,8.14c.76-.88,1.57-1.73,2.41-2.54a36.14,36.14,0,0,1,13.8-8.24,7.73,7.73,0,0,1-.67-1.19A2,2,0,0,1,485.74,97.68Z"/></g></g></svg>