<svg xmlns="http://www.w3.org/2000/svg" viewBox="0 0 774.52 425.27"><defs><style>.cls-1,.cls-3{fill:#9f0e05;}.cls-1,.cls-2,.cls-4,.cls-5,.cls-6{fill-rule:evenodd;}.cls-2{fill:#e6340d;}.cls-4{fill:#000003;}.cls-5{fill:#676767;}.cls-6{fill:#1a1a18;}.cls-7{fill:none;stroke:#1a1a18;stroke-miterlimit:22.93;stroke-width:0.57px;}</style></defs><g id="Слой_2" data-name="Слой 2"><g id="Слой_1-2" data-name="Слой 1"><path class="cls-1" d="M173.51,74H607.13V70.24H173.51V74Zm441.62,8V348.5h3.75V82Zm-8,276.38H513.37v3.75h93.76v-3.75ZM279,187.71h222.6V348.5h3.75V183.87H275.27v91.49H279V187.71ZM165.51,82V275.37h-3.75V82Zm8,203.26h93.76V289H173.51Z"/><path class="cls-2" d="M257.86,177.74v-14h14v14Zm15-15h-16v16h16Z"/><path class="cls-2" d="M625.88,353.25v14h-14v-14Zm-15,15h16v-16h-16Z"/><path class="cls-2" d="M625.88,63.24v14h-14v-14Zm-15,15h16v-16h-16Z"/><polygon class="cls-1" points="204.69 87.93 286.44 87.93 286.44 169.93 276.61 169.93 276.61 171.56 288.06 171.56 288.06 86.31 203.06 86.31 203.06 171.56 253.11 171.56 253.11 169.93 204.69 169.93 204.69 87.93"/><path class="cls-1" d="M258.63,144.8a8.06,8.06,0,1,1,8.06,8.07,8.06,8.06,0,0,1-8.06-8.07Zm8.06-9.48a9.48,9.48,0,1,0,9.48,9.48A9.48,9.48,0,0,0,266.69,135.32Z"/><path class="cls-1" d="M220.69,144.8a8.06,8.06,0,1,1,8.06,8.07,8.06,8.06,0,0,1-8.06-8.07Zm8.06-9.48a9.48,9.48,0,1,0,9.48,9.48A9.48,9.48,0,0,0,228.75,135.32Z"/><path class="cls-1" d="M258.63,107.68a8.06,8.06,0,1,1,8.06,8.06,8.06,8.06,0,0,1-8.06-8.06Zm8.06-9.48a9.48,9.48,0,1,0,9.48,9.48A9.47,9.47,0,0,0,266.69,98.2Z"/><path class="cls-1" d="M253.75,107.68a12.94,12.94,0,1,1,12.94,12.94,12.94,12.94,0,0,1-12.94-12.94Zm12.94-14.36A14.36,14.36,0,1,0,281,107.68,14.36,14.36,0,0,0,266.69,93.32Z"/><path class="cls-1" d="M213.25,144.8a15.79,15.79,0,0,1,.37-3.39l-1-.73h-.3a16.91,16.91,0,1,0,3.54-6.86v.05l1.12.83a15.49,15.49,0,1,1-3.75,10.1Z"/><path class="cls-1" d="M228.75,131.31a13.5,13.5,0,1,0,13.5,13.49,13.5,13.5,0,0,0-13.5-13.49Zm-12,13.49a12,12,0,1,1,12,12A12,12,0,0,1,216.78,144.8Z"/><path class="cls-1" d="M215.81,107.68a12.94,12.94,0,1,1,12.94,12.94,12.94,12.94,0,0,1-12.94-12.94Zm12.94-14.36a14.36,14.36,0,1,0,14.35,14.36A14.35,14.35,0,0,0,228.75,93.32Z"/><polygon class="cls-2" points="249.05 233.63 263.46 178.74 264.34 178.74 249.71 234.48 173.78 234.48 173.78 233.63 249.05 233.63"/><path class="cls-2" d="M168.76,63.24v14h-14v-14Zm-15,15h16v-16h-16Z"/><path class="cls-2" d="M454.11,142.62v-14h14v14Zm15-15h-16v16h16Z"/><path class="cls-2" d="M478.38,142.62v-14h14v14Zm15-15h-16v16h16Z"/><polygon class="cls-2" points="436.33 219.15 360.63 219.15 360.63 220 436.97 220 458.57 143.62 457.69 143.62 436.33 219.15"/><path class="cls-1" d="M490.49,92.76l.25-.27,0,0,4.56-4.78a3.21,3.21,0,0,1,4.95.36l11.65,18.3a1,1,0,0,1-.86,1.59,1,1,0,0,1-.41-.08L491.5,97.72a3.24,3.24,0,0,1-1.77-2.88,3.16,3.16,0,0,1,.76-2.08ZM510,108.68l.19.11a2.13,2.13,0,0,0,.87.19,2.07,2.07,0,0,0,2.06-2.07,2,2,0,0,0-.33-1.11l-11.46-18-.2-.31a4.25,4.25,0,0,0-6.56-.49L490,91.74c-.12.11-.23.23-.34.35A4.25,4.25,0,0,0,491,98.63Z"/><path class="cls-1" d="M502.55,104.74l-3.68,19.38a1.08,1.08,0,0,1-.29.51,1,1,0,0,1-1.46,0,1,1,0,0,1-.22-.35l-5.73-25.54-.15-.08a4.26,4.26,0,0,1-1.11-.82l0,.08,5.92,26.47.06.21c.09.27,0,.23.46.75a2.9,2.9,0,0,0,2.92.06c.55-.54.49-.64.57-1l3.62-19.13Z"/><rect class="cls-3" x="561.25" y="97.99" width="32.75" height="0.85"/><rect class="cls-3" x="561.25" y="109.85" width="32.75" height="0.85"/><rect class="cls-3" x="561.25" y="121.71" width="32.75" height="0.85"/><rect class="cls-3" x="561.25" y="133.58" width="32.75" height="0.85"/><rect class="cls-3" x="561.25" y="145.44" width="32.75" height="0.85"/><rect class="cls-3" x="561.25" y="157.3" width="32.75" height="0.85"/><rect class="cls-3" x="561.25" y="169.16" width="32.75" height="0.85"/><path class="cls-4" d="M142.76,69h1.43a8.15,8.15,0,0,1,1.62.1,1.77,1.77,0,0,1,1.45,1.81,1.87,1.87,0,0,1-.28,1,1.74,1.74,0,0,1-.79.67,3.59,3.59,0,0,1-1.42.23l2.59,3.34h-.88l-2.59-3.34h-.41v3.34h-.72V69Zm.72.7v2.44h1.24a3.06,3.06,0,0,0,1.06-.14,1.1,1.1,0,0,0,.54-.43,1.23,1.23,0,0,0,.2-.68,1.14,1.14,0,0,0-.2-.65,1,1,0,0,0-.51-.42,3,3,0,0,0-1.06-.13Z"/><path class="cls-4" d="M634.63,70.06h1.44a9.11,9.11,0,0,1,1.62.1,1.87,1.87,0,0,1,1,.63,1.76,1.76,0,0,1,.4,1.18,1.93,1.93,0,0,1-.27,1,1.73,1.73,0,0,1-.79.67,3.65,3.65,0,0,1-1.42.23l2.58,3.34h-.88l-2.58-3.34h-.42v3.34h-.72V70.06Zm.72.7V73.2h1.24a3.18,3.18,0,0,0,1.07-.13,1.12,1.12,0,0,0,.54-.44,1.17,1.17,0,0,0-.52-1.75,3.21,3.21,0,0,0-1.06-.13Z"/><path class="cls-4" d="M634.37,356.66h1.43a8.15,8.15,0,0,1,1.62.1,1.89,1.89,0,0,1,1.17,2.83,1.76,1.76,0,0,1-.79.68,3.78,3.78,0,0,1-1.42.23l2.59,3.34h-.88l-2.59-3.34h-.41v3.34h-.72v-7.18Zm.72.7v2.44h1.24a3.06,3.06,0,0,0,1.06-.14,1.12,1.12,0,0,0,.54-.44,1.2,1.2,0,0,0,.2-.67,1.14,1.14,0,0,0-.2-.65,1.12,1.12,0,0,0-.51-.43,3.36,3.36,0,0,0-1.06-.12Z"/><path class="cls-2" d="M1.83,387.78h.79A12.56,12.56,0,0,0,1.24,391a14.3,14.3,0,0,0-.5,3.78,9.94,9.94,0,0,0,.3,2.58H.3a9.23,9.23,0,0,1-.3-2.47,15,15,0,0,1,.48-3.74,14.13,14.13,0,0,1,1.35-3.37Zm7.53,9.58H8.57A12.26,12.26,0,0,0,10,394.14a14.3,14.3,0,0,0,.5-3.75,10.18,10.18,0,0,0-.3-2.61h.74a9.7,9.7,0,0,1,.29,2.5A14.85,14.85,0,0,1,10.7,394a13.72,13.72,0,0,1-1.34,3.35ZM4.19,388.1H6a3.55,3.55,0,0,1,1.38.19,1.5,1.5,0,0,1,.67.58,1.71,1.71,0,0,1,.26.93,2,2,0,0,1-1.14,1.83,3.18,3.18,0,0,1-1.38.25L8,395.28H7.14L5,391.88H4.41L4,395.28H3.22l1-7.18Zm.63.69-.32,2.39h.83a6.05,6.05,0,0,0,1.2-.07,1.41,1.41,0,0,0,.77-.46,1.28,1.28,0,0,0,.29-.84.88.88,0,0,0-.41-.82,2.24,2.24,0,0,0-1.12-.2Z"/><path class="cls-5" d="M15.47,392.28h2.69l-.09.6H15.39l.08-.6Zm11.84-1.15-.56.32a2,2,0,0,0-1.81-1,2.72,2.72,0,0,0-1.28.31,2.25,2.25,0,0,0-.91.87,2.3,2.3,0,0,0-.33,1.19,2.05,2.05,0,0,0,.24,1,1.67,1.67,0,0,0,.69.68,2.13,2.13,0,0,0,1,.24,3,3,0,0,0,1.18-.24,2.23,2.23,0,0,0,.87-.63l.56.4a3.37,3.37,0,0,1-1.15.84,3.72,3.72,0,0,1-1.43.26,2.76,2.76,0,0,1-2-.68,2.44,2.44,0,0,1-.7-1.83,2.9,2.9,0,0,1,.93-2.16,3.11,3.11,0,0,1,2.26-.9,3,3,0,0,1,1.43.34,2.32,2.32,0,0,1,.94.95ZM28.85,390h.69l-.31,2.24L32,390h1l-3,2.44,2.47,2.87h-1l-2.1-2.45-.24.19-.31,2.26h-.69l.72-5.31Zm5.22,0h.7l-.11.81a2.86,2.86,0,0,1,2.1-.94,2.38,2.38,0,0,1,2.48,2.49,3,3,0,0,1-.9,2.17,2.88,2.88,0,0,1-2.13.91,2.22,2.22,0,0,1-2-1.14l-.39,3h-.71l1-7.25Zm2.62.49a2.4,2.4,0,0,0-1.19.31,2.23,2.23,0,0,0-.86.89,2.62,2.62,0,0,0-.32,1.26,1.77,1.77,0,0,0,1.87,1.86,2.29,2.29,0,0,0,1.68-.7,2.41,2.41,0,0,0,.69-1.74A1.82,1.82,0,0,0,38,391a1.79,1.79,0,0,0-1.35-.52Zm3.42-.49h.7l1.38,3.92L44.47,390h.76L41,397.22h-.76l1.51-2.58L40.11,390Zm6.64.6-.64,4.71h-.67l.72-5.31h2.68l-.07.6Zm6.52,4.71L51.54,390h-.12l-3.15,5.31H49l2.29-3.86,1.26,3.86Zm6.35-2.52H54.88a2,2,0,0,0,.5,1.49,1.73,1.73,0,0,0,1.34.54,2.27,2.27,0,0,0,1-.23,2.06,2.06,0,0,0,.79-.64l.51.41a2.68,2.68,0,0,1-1,.79,3.16,3.16,0,0,1-1.34.29,2.27,2.27,0,0,1-1.88-.77,2.66,2.66,0,0,1-.63-1.74,2.89,2.89,0,0,1,.43-1.51,3,3,0,0,1,1.13-1.14,3,3,0,0,1,1.53-.41,2.25,2.25,0,0,1,1.69.69,2.41,2.41,0,0,1,.67,1.76,4.54,4.54,0,0,1,0,.47Zm-.63-.6a1.66,1.66,0,0,0-1.73-1.67,2.3,2.3,0,0,0-1.4.45,2.38,2.38,0,0,0-.86,1.22Zm2.76-.08h3.08l.29-2.11h.69l-.72,5.31H64.4l.35-2.56H61.67l-.35,2.56h-.69l.72-5.31H62l-.29,2.11ZM68.11,390l-.51,3.82L71.87,390h0l-.72,5.31h-.68L71,391.5l-4.22,3.78h-.08l.72-5.31Zm10.2,2.79H73.58a2,2,0,0,0,.49,1.49,1.77,1.77,0,0,0,1.35.54,2.3,2.3,0,0,0,1-.23,2.06,2.06,0,0,0,.79-.64l.51.41a2.85,2.85,0,0,1-1,.79,3.21,3.21,0,0,1-1.35.29,2.24,2.24,0,0,1-1.87-.77,2.66,2.66,0,0,1-.63-1.74,3,3,0,0,1,.42-1.51,3,3,0,0,1,1.13-1.14,3.06,3.06,0,0,1,1.54-.41,2.26,2.26,0,0,1,1.69.69,2.46,2.46,0,0,1,.67,1.76,3,3,0,0,1,0,.47Zm-.62-.6a1.72,1.72,0,0,0-.51-1.21,1.74,1.74,0,0,0-1.22-.46,2.28,2.28,0,0,0-1.4.45,2.34,2.34,0,0,0-.87,1.22ZM82.12,390h.7l1.38,3.92L86.48,390h.76L83,397.22h-.77l1.51-2.58L82.12,390Zm6.64.6-.64,4.71h-.66l.71-5.31h2.69l-.08.6Zm6.53,4.71L93.56,390h-.13l-3.14,5.31H91l2.29-3.86,1.26,3.86Zm6.11,0h-.69l.1-.8a2.89,2.89,0,0,1-2.11.93,2.41,2.41,0,0,1-1.77-.69,2.47,2.47,0,0,1-.69-1.8,3.09,3.09,0,0,1,3-3.08,2.29,2.29,0,0,1,1.16.28,2.24,2.24,0,0,1,.84.86l.14-1h.69l-.71,5.31Zm-2.61-.49a2.32,2.32,0,0,0,1.19-.31,2.17,2.17,0,0,0,.86-.89,2.61,2.61,0,0,0,.31-1.26,1.78,1.78,0,0,0-1.87-1.86,2.26,2.26,0,0,0-1.67.71,2.39,2.39,0,0,0-.69,1.74,1.77,1.77,0,0,0,1.87,1.87Z"/><path class="cls-2" d="M705.06,204.18h46.7v24h-46.7v-24Zm47.4-.85H704.35V229h48.11Z"/><path class="cls-4" d="M175.14,202.58h1.28a3,3,0,0,1,1.18.18,1.42,1.42,0,0,1,.65.56,1.53,1.53,0,0,1,.24.84,1.5,1.5,0,0,1-.82,1.35,2.39,2.39,0,0,1,.77.41,1.62,1.62,0,0,1,.42.55,1.71,1.71,0,0,1,.15.71,1.74,1.74,0,0,1-.56,1.32,2.13,2.13,0,0,1-1.53.54h-1.78v-6.46Zm.63.63v2.07h.37a2.73,2.73,0,0,0,1-.13,1,1,0,0,0,.5-.39,1.07,1.07,0,0,0,.19-.6.87.87,0,0,0-.31-.7,1.58,1.58,0,0,0-1-.25Zm0,2.72v2.48h.81a2.93,2.93,0,0,0,1-.14,1.24,1.24,0,0,0,.53-.43,1.15,1.15,0,0,0,.2-.64,1.17,1.17,0,0,0-.28-.76,1.42,1.42,0,0,0-.78-.43,5.13,5.13,0,0,0-1.15-.08Z"/><path class="cls-4" d="M180.29,202.58h.65v2.77h.47a9.67,9.67,0,0,1,1.82.12,1.45,1.45,0,0,1,.89.57,1.78,1.78,0,0,1,.34,1.14,1.87,1.87,0,0,1-.33,1.13,1.5,1.5,0,0,1-.84.59,7.44,7.44,0,0,1-1.71.14h-1.29v-6.46Zm.65,5.83h.69a6,6,0,0,0,1.42-.1,1,1,0,0,0,.53-.39,1.37,1.37,0,0,0-.05-1.5,1,1,0,0,0-.63-.37,8.77,8.77,0,0,0-1.41-.07h-.55v2.43Zm4.28-5.83h.65V209h-.65Z"/><path class="cls-4" d="M187.43,202.58h1.29a8,8,0,0,1,1.5.09,1.73,1.73,0,0,1,.9.56,1.82,1.82,0,0,1,0,2.13,1.71,1.71,0,0,1-.94.57,8.66,8.66,0,0,1-1.65.1h-.46v3h-.65v-6.46Zm.65.63v2.19l1.09,0a2.92,2.92,0,0,0,1-.12,1.06,1.06,0,0,0,.66-1,1,1,0,0,0-.18-.59,1,1,0,0,0-.46-.39,2.78,2.78,0,0,0-.95-.11Z"/><polygon class="cls-4" points="192.77 202.58 196.47 202.58 196.47 203.21 193.41 203.21 193.41 205.23 196.44 205.23 196.44 205.86 193.41 205.86 193.41 208.41 196.44 208.41 196.44 209.04 192.77 209.04 192.77 202.58"/><path class="cls-4" d="M197.72,203.21a2.11,2.11,0,0,1,1.68-.79,2,2,0,0,1,1.32.45,1.62,1.62,0,0,1-.45,2.67,1.63,1.63,0,0,1,1.27,1.71,1.86,1.86,0,0,1-.57,1.42,2.23,2.23,0,0,1-1.57.53,2.32,2.32,0,0,1-1.2-.29,2.74,2.74,0,0,1-1-1l.5-.3a2.49,2.49,0,0,0,.84.85,2,2,0,0,0,.82.18,1.59,1.59,0,0,0,1.05-.35,1.31,1.31,0,0,0,.43-1,1.28,1.28,0,0,0-.15-.63,1.24,1.24,0,0,0-.41-.44,1.5,1.5,0,0,0-.52-.21,5,5,0,0,0-.79,0h-.11v-.57h.21c1,0,1.44-.39,1.44-1.16a1.1,1.1,0,0,0-1.16-1.18,1.7,1.7,0,0,0-1.22.59Z"/><polygon class="cls-4" points="175.12 213.3 179.71 213.3 179.71 219.76 179.06 219.76 179.06 213.91 175.77 213.91 175.77 219.76 175.12 219.76 175.12 213.3"/><path class="cls-4" d="M184.36,213.14a3.32,3.32,0,0,1,2.45,1,3.24,3.24,0,0,1,1,2.41,3.4,3.4,0,1,1-6.8,0,3.46,3.46,0,0,1,.45-1.73,3.31,3.31,0,0,1,2.91-1.69Zm0,.63a2.62,2.62,0,0,0-1.35.37,2.65,2.65,0,0,0-1,1,2.79,2.79,0,0,0-.36,1.41,2.65,2.65,0,0,0,.8,1.94,2.61,2.61,0,0,0,1.92.79,2.81,2.81,0,0,0,1.4-.36,2.67,2.67,0,0,0,1-1,2.88,2.88,0,0,0,.35-1.4,2.79,2.79,0,0,0-.35-1.39,2.69,2.69,0,0,0-1-1A2.76,2.76,0,0,0,184.38,213.77Z"/><path class="cls-4" d="M189.1,220.72h-.65v-1.56H189l2.53-5.86h.23l2.67,5.86h.5v1.56h-.65v-1H189.1v1Zm.6-1.56h3.94l-2-4.51Z"/><path class="cls-4" d="M198.34,213.3h1.27a3,3,0,0,1,1.18.18,1.45,1.45,0,0,1,.66.56,1.53,1.53,0,0,1,.24.84,1.47,1.47,0,0,1-.21.78,1.58,1.58,0,0,1-.62.58,2.18,2.18,0,0,1,.78.4,1.56,1.56,0,0,1,.42.56,1.64,1.64,0,0,1,.15.71,1.73,1.73,0,0,1-.57,1.31,2.13,2.13,0,0,1-1.53.54h-1.77V213.3Zm.63.63V216h.37a2.7,2.7,0,0,0,1-.13,1,1,0,0,0,.5-.39,1,1,0,0,0,.19-.6.84.84,0,0,0-.31-.7,1.57,1.57,0,0,0-1-.25Zm0,2.72v2.48h.8a2.72,2.72,0,0,0,1-.14,1.12,1.12,0,0,0,.53-.43,1.14,1.14,0,0,0-.08-1.39,1.41,1.41,0,0,0-.77-.44,5.24,5.24,0,0,0-1.16-.08Z"/><path class="cls-4" d="M206.13,213.3l3,6.46h-.69l-1-2.12h-2.81l-1,2.12h-.72L206,213.3Zm-.08,1.36L204.94,217h2.22Z"/><path class="cls-4" d="M210.15,213.3h1.28a7,7,0,0,1,1.5.1,1.58,1.58,0,0,1,.9.56,1.57,1.57,0,0,1,.36,1.06,1.64,1.64,0,0,1-.35,1.07,1.69,1.69,0,0,1-.94.56,8.22,8.22,0,0,1-1.64.11h-.47v3h-.64V213.3Zm.64.63v2.2h1.1a2.9,2.9,0,0,0,1-.12.93.93,0,0,0,.48-.39,1.07,1.07,0,0,0,.18-.61,1,1,0,0,0-.18-.59,1,1,0,0,0-.46-.39,3,3,0,0,0-.94-.11Z"/><path class="cls-4" d="M218.55,213.14a3.33,3.33,0,0,1,2.46,1,3.24,3.24,0,0,1,1,2.41,3.42,3.42,0,0,1-5.82,2.41,3.24,3.24,0,0,1-1-2.38,3.46,3.46,0,0,1,.45-1.73,3.26,3.26,0,0,1,1.23-1.24,3.31,3.31,0,0,1,1.68-.45Zm0,.63a2.65,2.65,0,0,0-1.36.37,2.69,2.69,0,0,0-1,1,2.79,2.79,0,0,0-.36,1.41,2.71,2.71,0,0,0,2.72,2.73,2.77,2.77,0,0,0,1.39-.36,2.6,2.6,0,0,0,1-1,2.78,2.78,0,0,0,.36-1.4,2.69,2.69,0,0,0-.36-1.39,2.62,2.62,0,0,0-1-1A2.7,2.7,0,0,0,218.58,213.77Z"/><path class="cls-4" d="M225.93,216.09V213.3h.65v6.46h-.65v-3h-.46a9.13,9.13,0,0,1-1.41-.08,1.91,1.91,0,0,1-.8-.34,1.41,1.41,0,0,1-.48-.66,3.63,3.63,0,0,1-.12-1.06V213.3h.63v1.32a1.63,1.63,0,0,0,.32,1.14,1.5,1.5,0,0,0,1.09.33h1.23Z"/><polygon class="cls-4" points="228.14 213.3 228.78 213.3 228.78 216.01 232.08 216.01 232.08 213.3 232.73 213.3 232.73 219.76 232.08 219.76 232.08 216.64 228.78 216.64 228.78 219.76 228.14 219.76 228.14 213.3"/><path class="cls-4" d="M233.8,213.32h.73l2,4.39,1.79-4.41H239l-2.46,5.81a1.22,1.22,0,0,1-1.21.81,1.52,1.52,0,0,1-.67-.14,2.74,2.74,0,0,1-.79-.67l.47-.39a2.9,2.9,0,0,0,.65.54.78.78,0,0,0,.33.07.72.72,0,0,0,.44-.14,1.6,1.6,0,0,0,.41-.67Z"/><path class="cls-4" d="M240.75,216.19h1.13a3.44,3.44,0,0,1,1.23-2.31,3.5,3.5,0,0,1,2.12-.74,3.32,3.32,0,0,1,2.45,1,3.39,3.39,0,0,1-2.4,5.8,3.38,3.38,0,0,1-2.28-.84,3.34,3.34,0,0,1-1.12-2.29h-1.13v3h-.65V213.3h.65v2.89Zm7.26.34a2.61,2.61,0,0,0-.83-2,2.7,2.7,0,0,0-1.91-.78,2.65,2.65,0,0,0-1.91.79,2.69,2.69,0,0,0-.81,2,2.63,2.63,0,0,0,.81,2,2.73,2.73,0,0,0,4.65-2Z"/><polygon class="cls-4" points="175.12 224.02 179.71 224.02 179.71 230.48 179.06 230.48 179.06 224.63 175.77 224.63 175.77 230.48 175.12 230.48 175.12 224.02"/><path class="cls-4" d="M183.92,224l3,6.46h-.7l-1-2.12h-2.8l-1,2.12h-.72l3-6.46Zm-.08,1.36-1.11,2.35H185Z"/><polygon class="cls-4" points="187.92 224.02 188.57 224.02 188.57 226.73 191.87 226.73 191.87 224.02 192.51 224.02 192.51 230.48 191.87 230.48 191.87 227.36 188.57 227.36 188.57 230.48 187.92 230.48 187.92 224.02"/><polygon class="cls-4" points="194.09 224.02 197.79 224.02 197.79 224.65 194.74 224.65 194.74 226.68 197.76 226.68 197.76 227.31 194.74 227.31 194.74 229.85 197.76 229.85 197.76 230.48 194.09 230.48 194.09 224.02"/><polygon class="cls-4" points="204.14 230.48 203.44 230.48 201.3 225.48 199.12 230.48 198.41 230.48 201.23 224.02 201.37 224.02 204.14 230.48"/><path class="cls-4" d="M205.23,224h.64v2.77h.47a8.64,8.64,0,0,1,1.82.13,1.48,1.48,0,0,1,.89.56,1.82,1.82,0,0,1,.34,1.14,1.88,1.88,0,0,1-.33,1.14,1.55,1.55,0,0,1-.84.59,7.59,7.59,0,0,1-1.71.13h-1.28V224Zm.64,5.83h.69a6.07,6.07,0,0,0,1.43-.1,1,1,0,0,0,.52-.38,1.25,1.25,0,0,0,.2-.72,1.19,1.19,0,0,0-.25-.79,1,1,0,0,0-.62-.37,10.48,10.48,0,0,0-1.42-.07h-.55Z"/><polygon class="cls-4" points="386.69 251.85 387.59 245.39 387.72 245.39 390.35 250.69 392.96 245.39 393.06 245.39 393.99 251.85 393.36 251.85 392.72 247.23 390.43 251.85 390.26 251.85 387.95 247.19 387.33 251.85 386.69 251.85"/><path class="cls-4" d="M398.32,245.23a3.37,3.37,0,0,1,2.46,1,3.43,3.43,0,0,1,0,4.82,3.47,3.47,0,0,1-4.83,0,3.22,3.22,0,0,1-1-2.38,3.46,3.46,0,0,1,.45-1.73,3.26,3.26,0,0,1,1.23-1.24,3.31,3.31,0,0,1,1.68-.45Zm0,.63a2.65,2.65,0,0,0-1.36.37,2.69,2.69,0,0,0-1,1,2.79,2.79,0,0,0-.36,1.41,2.71,2.71,0,0,0,2.72,2.73,2.77,2.77,0,0,0,1.39-.36,2.6,2.6,0,0,0,1-1,2.78,2.78,0,0,0,.36-1.4,2.69,2.69,0,0,0-.36-1.39,2.62,2.62,0,0,0-1-1A2.7,2.7,0,0,0,398.35,245.86Z"/><path class="cls-4" d="M408.16,251.85h-.68v-5l-4.26,5h-.15v-6.46h.65v5l4.29-5h.15v6.46Zm-4.1-8h.58a.91.91,0,0,0,.4.35,1.57,1.57,0,0,0,.6.11,1.35,1.35,0,0,0,.57-.1,1.22,1.22,0,0,0,.41-.36h.56a1.08,1.08,0,0,1-.5.66,1.82,1.82,0,0,1-1.05.27,1.94,1.94,0,0,1-1.05-.26A1.17,1.17,0,0,1,404.06,243.83Z"/><polygon class="cls-4" points="409.72 245.39 410.38 245.39 410.38 247.81 412.97 245.39 413.84 245.39 410.72 248.29 414.08 251.85 413.22 251.85 410.38 248.84 410.38 251.85 409.72 251.85 409.72 245.39"/><path class="cls-4" d="M417.68,245.39l3,6.46H420l-1-2.12h-2.8l-1,2.12h-.72l3-6.46Zm-.08,1.36-1.11,2.35h2.22Z"/><polygon class="cls-4" points="392.06 262.57 391.39 262.57 391.39 257.61 387.12 262.57 386.98 262.57 386.98 256.11 387.63 256.11 387.63 261.15 391.92 256.11 392.06 256.11 392.06 262.57"/><path class="cls-4" d="M393.76,256.74a2.13,2.13,0,0,1,1.68-.79,1.9,1.9,0,0,1,1.32.46,1.49,1.49,0,0,1,.52,1.19,1.51,1.51,0,0,1-1,1.47,1.66,1.66,0,0,1,1.28,1.72,1.85,1.85,0,0,1-.57,1.41,2.22,2.22,0,0,1-1.57.54,2.43,2.43,0,0,1-1.21-.29,3,3,0,0,1-1-1l.5-.29a2.37,2.37,0,0,0,.85.84,1.78,1.78,0,0,0,.81.19,1.59,1.59,0,0,0,1.05-.36,1.25,1.25,0,0,0,.43-1,1.29,1.29,0,0,0-.15-.64,1.06,1.06,0,0,0-.41-.43,1.53,1.53,0,0,0-.51-.21,4.8,4.8,0,0,0-.8-.05h-.11v-.57h.22c1,0,1.44-.38,1.44-1.16a1.11,1.11,0,0,0-1.16-1.18,1.72,1.72,0,0,0-1.23.59Z"/><polygon class="cls-4" points="401.35 256.11 402 256.11 402 258.54 404.6 256.11 405.46 256.11 402.35 259.01 405.71 262.57 404.85 262.57 402 259.56 402 262.57 401.35 262.57 401.35 256.11"/><path class="cls-4" d="M409.31,256.11l3,6.46h-.7l-1-2.12h-2.8l-1,2.12h-.72l3-6.46Zm-.08,1.36-1.11,2.35h2.22Z"/><polygon class="cls-4" points="413.04 262.57 413.94 256.11 414.07 256.11 416.7 261.41 419.31 256.11 419.41 256.11 420.34 262.57 419.72 262.57 419.07 257.95 416.78 262.57 416.61 262.57 414.3 257.91 413.68 262.57 413.04 262.57"/><polygon class="cls-4" points="421.58 256.11 422.23 256.11 422.23 258.82 425.52 258.82 425.52 256.11 426.17 256.11 426.17 262.57 425.52 262.57 425.52 259.45 422.23 259.45 422.23 262.57 421.58 262.57 421.58 256.11"/><path class="cls-4" d="M431.41,256.11h-1.29a7.67,7.67,0,0,0-1.46.09,1.7,1.7,0,0,0-.94.57,1.58,1.58,0,0,0-.36,1.06,1.8,1.8,0,0,0,.25.93,1.62,1.62,0,0,0,.71.6,3.19,3.19,0,0,0,1.28.21l-2.33,3h.8l2.32-3h.37v3h.65v-6.46Zm-.65.63v2.2h-1.11a2.59,2.59,0,0,1-1-.13,1,1,0,0,1-.49-.39,1.13,1.13,0,0,1-.17-.6,1,1,0,0,1,.18-.59.9.9,0,0,1,.46-.38,2.69,2.69,0,0,1,.95-.12Z"/><path class="cls-4" d="M372,198.11h1.27a3,3,0,0,1,1.18.18,1.42,1.42,0,0,1,.65.56,1.53,1.53,0,0,1,.24.84,1.47,1.47,0,0,1-.21.78,1.55,1.55,0,0,1-.61.58,2.21,2.21,0,0,1,.77.4,1.56,1.56,0,0,1,.42.56,1.65,1.65,0,0,1,.16.71,1.74,1.74,0,0,1-.57,1.31,2.13,2.13,0,0,1-1.53.54H372v-6.46Zm.63.63v2.07H373a2.7,2.7,0,0,0,1-.13,1,1,0,0,0,.5-.39,1,1,0,0,0,.19-.6.87.87,0,0,0-.31-.7,1.57,1.57,0,0,0-1-.25Zm0,2.72v2.48h.8a2.93,2.93,0,0,0,1-.14,1.18,1.18,0,0,0,.53-.43,1.15,1.15,0,0,0,.2-.64,1.12,1.12,0,0,0-.28-.75,1.43,1.43,0,0,0-.78-.44,5.13,5.13,0,0,0-1.15-.08Z"/><path class="cls-4" d="M377.15,198.11h.64v2.77h.47a9.6,9.6,0,0,1,1.82.12,1.49,1.49,0,0,1,.89.57,1.78,1.78,0,0,1,.34,1.14,1.85,1.85,0,0,1-.33,1.13,1.5,1.5,0,0,1-.84.59,6.9,6.9,0,0,1-1.71.14h-1.28v-6.46Zm.64,5.83h.69a6.13,6.13,0,0,0,1.43-.1,1,1,0,0,0,.52-.39,1.19,1.19,0,0,0,.2-.71,1.17,1.17,0,0,0-.25-.79,1,1,0,0,0-.62-.37,9,9,0,0,0-1.42-.07h-.55v2.43Zm4.28-5.83h.65v6.46h-.65Z"/><path class="cls-4" d="M384.28,198.11h1.29a7,7,0,0,1,1.5.1,1.58,1.58,0,0,1,.9.56,1.56,1.56,0,0,1,.35,1.06,1.63,1.63,0,0,1-.34,1.07,1.69,1.69,0,0,1-.94.56,8.42,8.42,0,0,1-1.65.11h-.46v3h-.65v-6.46Zm.65.63v2.2H386a2.9,2.9,0,0,0,1-.12,1,1,0,0,0,.48-.39,1.07,1.07,0,0,0,.18-.61,1,1,0,0,0-.18-.59,1,1,0,0,0-.46-.39,3.06,3.06,0,0,0-.95-.11Z"/><polygon class="cls-4" points="389.62 198.11 393.32 198.11 393.32 198.74 390.27 198.74 390.27 200.76 393.29 200.76 393.29 201.39 390.27 201.39 390.27 203.94 393.29 203.94 393.29 204.57 389.62 204.57 389.62 198.11"/><path class="cls-4" d="M394.57,198.74a2.11,2.11,0,0,1,1.68-.79,1.91,1.91,0,0,1,1.32.46,1.48,1.48,0,0,1,.52,1.18,1.53,1.53,0,0,1-1,1.48,1.63,1.63,0,0,1,1.27,1.71,1.86,1.86,0,0,1-.57,1.42,2.17,2.17,0,0,1-1.56.53,2.43,2.43,0,0,1-1.21-.28,3,3,0,0,1-1-1l.5-.3a2.49,2.49,0,0,0,.84.85,2,2,0,0,0,.82.19,1.59,1.59,0,0,0,1.05-.36,1.46,1.46,0,0,0,.28-1.68,1.15,1.15,0,0,0-.41-.44,1.53,1.53,0,0,0-.51-.21,5.18,5.18,0,0,0-.8,0h-.11v-.57H396c1,0,1.44-.39,1.44-1.16a1.14,1.14,0,0,0-.33-.86,1.16,1.16,0,0,0-.83-.32,1.71,1.71,0,0,0-1.23.59Z"/><polygon class="cls-4" points="371.97 208.83 376.56 208.83 376.56 215.29 375.91 215.29 375.91 209.44 372.62 209.44 372.62 215.29 371.97 215.29 371.97 208.83"/><path class="cls-4" d="M381.21,208.67a3.35,3.35,0,0,1,2.45,1,3.26,3.26,0,0,1,1,2.41,3.36,3.36,0,0,1-3.39,3.4,3.27,3.27,0,0,1-2.42-1,3.22,3.22,0,0,1-1-2.38,3.49,3.49,0,0,1,.45-1.73,3.33,3.33,0,0,1,1.23-1.24,3.25,3.25,0,0,1,1.68-.45Zm0,.63a2.65,2.65,0,0,0-1.36.37,2.72,2.72,0,0,0-1,1,2.79,2.79,0,0,0-.36,1.41,2.73,2.73,0,0,0,2.73,2.74,2.81,2.81,0,0,0,1.39-.37,2.53,2.53,0,0,0,1-1,2.78,2.78,0,0,0,.36-1.4,2.69,2.69,0,0,0-1.37-2.39A2.75,2.75,0,0,0,381.24,209.3Z"/><path class="cls-4" d="M386,216.26h-.65v-1.57h.52l2.53-5.86h.23l2.67,5.86h.5v1.57h-.64v-1H386v1Zm.6-1.57h3.94l-2-4.51Z"/><polygon class="cls-4" points="394.89 215.29 395.79 208.83 395.92 208.83 398.55 214.13 401.16 208.83 401.26 208.83 402.19 215.29 401.57 215.29 400.92 210.67 398.63 215.29 398.46 215.29 396.15 210.63 395.53 215.29 394.89 215.29"/><path class="cls-4" d="M406.52,208.67a3.37,3.37,0,0,1,2.46,1,3.4,3.4,0,0,1-2.4,5.81,3.3,3.3,0,0,1-2.43-1,3.22,3.22,0,0,1-1-2.38,3.49,3.49,0,0,1,.45-1.73,3.34,3.34,0,0,1,2.91-1.69Zm0,.63a2.68,2.68,0,0,0-1.36.37,2.74,2.74,0,0,0-1.36,2.42,2.73,2.73,0,0,0,2.72,2.74,2.75,2.75,0,0,0,1.39-.37,2.53,2.53,0,0,0,1-1,2.78,2.78,0,0,0,.36-1.4,2.72,2.72,0,0,0-.36-1.39,2.62,2.62,0,0,0-1-1A2.7,2.7,0,0,0,406.55,209.3Z"/><path class="cls-4" d="M416.36,215.29h-.68v-5l-4.26,5h-.15v-6.46h.65v5l4.29-5h.15v6.46Zm-4.1-8h.58a.91.91,0,0,0,.4.35,1.57,1.57,0,0,0,.6.11,1.29,1.29,0,0,0,.57-.1,1,1,0,0,0,.41-.36h.56a1.13,1.13,0,0,1-.5.67,1.88,1.88,0,0,1-1,.26,2,2,0,0,1-1.06-.26A1.17,1.17,0,0,1,412.26,207.27Z"/><polygon class="cls-4" points="417.92 208.83 418.58 208.83 418.58 211.26 421.17 208.83 422.04 208.83 418.93 211.73 422.28 215.29 421.42 215.29 418.58 212.28 418.58 215.29 417.92 215.29 417.92 208.83"/><path class="cls-4" d="M422.75,208.85h.72l2,4.39,1.79-4.41h.7l-2.45,5.81a1.24,1.24,0,0,1-1.22.82,1.52,1.52,0,0,1-.66-.15,2.74,2.74,0,0,1-.79-.67l.47-.39a3.15,3.15,0,0,0,.65.55,1,1,0,0,0,.33.06.74.74,0,0,0,.44-.13,1.77,1.77,0,0,0,.41-.68Z"/><polygon class="cls-2" points="445.7 268.05 370 268.05 370 268.9 446.34 268.9 481.78 143.62 480.9 143.62 445.7 268.05"/><path class="cls-2" d="M494.62,353.25v14h14v-14Zm15,15h-16v-16h16Z"/><path class="cls-4" d="M481.21,356.66h1.44a8.15,8.15,0,0,1,1.62.1,1.78,1.78,0,0,1,1.44,1.81,1.89,1.89,0,0,1-.27,1,1.81,1.81,0,0,1-.79.68,3.81,3.81,0,0,1-1.42.23l2.58,3.34h-.88l-2.58-3.34h-.42v3.34h-.72v-7.18Zm.72.7v2.44h1.24a3.09,3.09,0,0,0,1.07-.14,1.12,1.12,0,0,0,.54-.44,1.19,1.19,0,0,0,.19-.67,1.13,1.13,0,0,0-.19-.65,1.14,1.14,0,0,0-.52-.43,3.28,3.28,0,0,0-1.06-.12Z"/><path class="cls-1" d="M507.5,97.47a37.5,37.5,0,1,1-30.15,67.7l.41-1.52a36,36,0,1,0,31-64.25l-1.22-1.93Zm-33.4,65.35a37.64,37.64,0,0,1-11.33-15.45h1.62a36.12,36.12,0,0,0,10.15,13.86l-.44,1.59Zm-12.62-38.95H463a36.06,36.06,0,0,1,27-25.39l-.13-.59,0-.08a3.89,3.89,0,0,1-.56-.71A37.56,37.56,0,0,0,461.48,123.87Z"/><polygon class="cls-4" points="678.3 221.91 680.7 210.46 682.22 210.46 680.09 220.62 686 220.62 685.73 221.91 678.3 221.91"/><path class="cls-4" d="M687.06,220l.86-.11a1.81,1.81,0,0,0,.44,1.09,1.21,1.21,0,0,0,.87.32,1.55,1.55,0,0,0,1.14-.47,1.48,1.48,0,0,0,.47-1.07,1.18,1.18,0,0,0-.35-.87,1.33,1.33,0,0,0-1-.35l-.28,0,.15-.74a1,1,0,0,0,.24,0,1.68,1.68,0,0,0,1.16-.36,1.18,1.18,0,0,0,.4-.91,1.12,1.12,0,0,0-.33-.82,1.09,1.09,0,0,0-.82-.34,1.22,1.22,0,0,0-.85.35,1.61,1.61,0,0,0-.49,1l-.87-.17a2.46,2.46,0,0,1,.83-1.37,2.27,2.27,0,0,1,1.44-.48,2,2,0,0,1,1.43.53,1.77,1.77,0,0,1,.54,1.31,1.67,1.67,0,0,1-.29,1,2.09,2.09,0,0,1-.88.69,1.71,1.71,0,0,1,.62.6,1.58,1.58,0,0,1,.21.81,2.26,2.26,0,0,1-.72,1.67,2.36,2.36,0,0,1-1.72.7,2.25,2.25,0,0,1-1.57-.54A2.13,2.13,0,0,1,687.06,220Z"/><path class="cls-4" d="M701.08,215.18h-7.57v-1.32h7.57v1.32Zm0,3.47h-7.57v-1.31h7.57Z"/><polygon class="cls-6" points="757.22 228.18 758.22 221 758.37 221 761.29 226.89 764.19 221 764.3 221 765.33 228.18 764.64 228.18 763.92 223.04 761.38 228.18 761.19 228.18 758.62 223 757.93 228.18 757.22 228.18"/><polygon class="cls-6" points="766.41 228.18 767.41 221 767.56 221 770.48 226.89 773.38 221 773.49 221 774.52 228.18 773.83 228.18 773.11 223.04 770.57 228.18 770.38 228.18 767.81 223 767.12 228.18 766.41 228.18"/><path class="cls-2" d="M541.61,400.42H588.3v24H541.61v-24Zm47.4-.85H540.9v25.7H589Z"/><path class="cls-4" d="M511.44,418.14l-.7-11.45h1.55l.26,5.67c0,.27,0,1,.07,2.2,0,.33,0,.57,0,.7s0,.35,0,.79c.63-1.31,1.09-2.23,1.37-2.77l3.48-6.59h1.58l.37,6.7c0,.76.07,1.69.1,2.77.09-.27.26-.67.5-1.2.38-.84.66-1.45.85-1.82l3.25-6.45h1.56l-5.83,11.45h-1.64l-.36-6.93c0-.6-.08-1.33-.11-2.2-.31.72-.58,1.29-.79,1.69l-4,7.44Z"/><path class="cls-4" d="M524.39,416.26l.86-.11a1.81,1.81,0,0,0,.44,1.09,1.17,1.17,0,0,0,.87.32,1.58,1.58,0,0,0,1.14-.46,1.52,1.52,0,0,0,.47-1.08,1.18,1.18,0,0,0-.35-.87,1.33,1.33,0,0,0-1-.35l-.28,0,.15-.74a1,1,0,0,0,.24,0,1.68,1.68,0,0,0,1.16-.36,1.18,1.18,0,0,0,.4-.9,1.14,1.14,0,0,0-1.15-1.17,1.22,1.22,0,0,0-.85.35,1.64,1.64,0,0,0-.49,1l-.87-.18a2.4,2.4,0,0,1,.83-1.36,2.22,2.22,0,0,1,1.44-.49,2,2,0,0,1,1.43.54,1.74,1.74,0,0,1,.54,1.3,1.65,1.65,0,0,1-.29,1,2.19,2.19,0,0,1-.88.7,1.56,1.56,0,0,1,.62.6,1.52,1.52,0,0,1,.21.8,2.26,2.26,0,0,1-.72,1.67,2.36,2.36,0,0,1-1.72.7,2.25,2.25,0,0,1-1.57-.54A2.11,2.11,0,0,1,524.39,416.26Z"/><path class="cls-4" d="M538.41,411.41h-7.57V410.1h7.57v1.31Zm0,3.47h-7.57v-1.31h7.57Z"/><polygon class="cls-6" points="593.77 424.42 594.77 417.24 594.91 417.24 597.84 423.13 600.74 417.24 600.85 417.24 601.88 424.42 601.19 424.42 600.47 419.28 597.92 424.42 597.74 424.42 595.17 419.24 594.48 424.42 593.77 424.42"/><polygon class="cls-6" points="602.96 424.42 603.96 417.24 604.11 417.24 607.03 423.13 609.93 417.24 610.04 417.24 611.07 424.42 610.38 424.42 609.66 419.28 607.11 424.42 606.92 424.42 604.36 419.24 603.67 424.42 602.96 424.42"/><path class="cls-2" d="M39.75,167.42h46.7v24H39.75v-24Zm47.41-.85H39.05v25.7H87.16Z"/><polygon class="cls-4" points="7.58 185.15 9.98 173.69 11.5 173.69 9.37 183.85 15.27 183.85 15 185.15 7.58 185.15"/><path class="cls-4" d="M16.38,185.15a3.43,3.43,0,0,1,.38-1.07,3.26,3.26,0,0,1,.64-.82c.26-.26.78-.7,1.54-1.3a10.47,10.47,0,0,0,.94-.82,2.83,2.83,0,0,0,.54-.74,1.41,1.41,0,0,0,.11-.54,1.15,1.15,0,0,0-.35-.84,1.17,1.17,0,0,0-.86-.34,1.26,1.26,0,0,0-.88.34,2.06,2.06,0,0,0-.53,1.12l-.86-.12a2.3,2.3,0,0,1,.74-1.5,2.15,2.15,0,0,1,1.52-.55,2.39,2.39,0,0,1,1.11.25,1.75,1.75,0,0,1,.74.71,2,2,0,0,1,.25.95,2.22,2.22,0,0,1-.51,1.37,13.56,13.56,0,0,1-1.84,1.61,11.5,11.5,0,0,0-1,.85,3.1,3.1,0,0,0-.48.63h3.2l-.17.81Z"/><path class="cls-4" d="M30.36,178.41H22.79V177.1h7.57v1.31Zm0,3.47H22.79v-1.31h7.57Z"/><polygon class="cls-6" points="91.92 191.42 92.91 184.24 93.06 184.24 95.98 190.13 98.89 184.24 99 184.24 100.03 191.42 99.33 191.42 98.61 186.28 96.07 191.42 95.88 191.42 93.31 186.24 92.63 191.42 91.92 191.42"/><polygon class="cls-6" points="101.11 191.42 102.1 184.24 102.25 184.24 105.17 190.13 108.08 184.24 108.19 184.24 109.22 191.42 108.52 191.42 107.8 186.28 105.26 191.42 105.07 191.42 102.5 186.24 101.81 191.42 101.11 191.42"/><path class="cls-2" d="M370.59.85h46.69v24H370.59V.85ZM418,0H369.88V25.7H418Z"/><polygon class="cls-4" points="342.3 19.04 344.7 7.58 346.22 7.58 344.09 17.74 350 17.74 349.73 19.04 342.3 19.04"/><path class="cls-4" d="M352.92,19l1.13-5.41a5.49,5.49,0,0,1-2.06.93l.17-.8a7.78,7.78,0,0,0,1.3-.69,6.11,6.11,0,0,0,1-.74,3.08,3.08,0,0,0,.37-.47h.51L353.8,19Z"/><path class="cls-4" d="M365.08,12.3h-7.57V11h7.57V12.3Zm0,3.47h-7.57V14.46h7.57Z"/><polygon class="cls-6" points="422.75 24.85 423.75 17.67 423.89 17.67 426.81 23.56 429.72 17.67 429.83 17.67 430.86 24.85 430.17 24.85 429.44 19.71 426.9 24.85 426.71 24.85 424.14 19.67 423.46 24.85 422.75 24.85"/><polygon class="cls-6" points="431.94 24.85 432.94 17.67 433.08 17.67 436 23.56 438.91 17.67 439.02 17.67 440.05 24.85 439.36 24.85 438.63 19.71 436.09 24.85 435.9 24.85 433.33 19.67 432.65 24.85 431.94 24.85"/><path class="cls-2" d="M114.35,74a2.39,2.39,0,0,0,1.9-1.9H136.2v-.85H116.25a2.36,2.36,0,0,0-4.65,0h-9.42v.85h9.42a2.36,2.36,0,0,0,1.9,1.9v210.8a2.34,2.34,0,0,0-1.9,1.9h-9.42v.85h9.42a2.36,2.36,0,0,0,4.65,0H136.2v-.85H116.25a2.36,2.36,0,0,0-1.9-1.9Z"/><path class="cls-2" d="M159.4,32.47a2.36,2.36,0,0,0,1.93,2.33V54.72h.85V34.8a2.36,2.36,0,0,0,1.9-1.9H616.56a2.36,2.36,0,0,0,1.9,1.9V54.72h.85V34.8a2.36,2.36,0,0,0,0-4.65V20.71h-.85v9.44a2.34,2.34,0,0,0-1.9,1.9H164.08a2.34,2.34,0,0,0-1.9-1.9V20.71h-.85v9.44A2.35,2.35,0,0,0,159.4,32.47Z"/><path class="cls-2" d="M616.58,392a2.36,2.36,0,0,0-1.9,1.9H505.82a2.36,2.36,0,0,0-1.9-1.9V372h-.85V392a2.36,2.36,0,0,0,0,4.65V406h.85V396.6a2.39,2.39,0,0,0,1.9-1.9H614.68a2.39,2.39,0,0,0,1.9,1.9V406h.85V396.6a2.36,2.36,0,0,0,0-4.65V372h-.85Z"/><path class="cls-2" d="M664.16,360.67a2.36,2.36,0,0,0,4.65,0h9.43v-.85h-9.43a2.39,2.39,0,0,0-1.9-1.9V74.44a2.36,2.36,0,0,0,1.9-1.9h9.43v-.85h-9.43a2.37,2.37,0,0,0-4.65,0H644.23v.85h19.93a2.34,2.34,0,0,0,1.9,1.9V357.92a2.36,2.36,0,0,0-1.9,1.9H644.23v.85Z"/><path class="cls-2" d="M286,280.12v14H272v-14Zm-15,15h16v-16H271Z"/><path class="cls-4" d="M294.51,283.53h1.43a9,9,0,0,1,1.62.1,1.89,1.89,0,0,1,1.05.63,1.81,1.81,0,0,1,.4,1.18,1.87,1.87,0,0,1-.28,1,1.68,1.68,0,0,1-.79.67,3.59,3.59,0,0,1-1.42.23l2.59,3.34h-.88l-2.59-3.34h-.41v3.34h-.72v-7.18Zm.72.7v2.44h1.24a3.11,3.11,0,0,0,1.06-.13,1.18,1.18,0,0,0,.54-.44,1.21,1.21,0,0,0,0-1.33,1,1,0,0,0-.51-.42,3,3,0,0,0-1.06-.13Z"/><path class="cls-2" d="M154.76,280.12v14h14v-14Zm15,15h-16v-16h16Z"/><path class="cls-4" d="M141.35,283.53h1.44a9.11,9.11,0,0,1,1.62.1,1.87,1.87,0,0,1,1,.63,1.76,1.76,0,0,1,.4,1.18,2,2,0,0,1-.27,1,1.73,1.73,0,0,1-.79.67,3.62,3.62,0,0,1-1.42.23l2.58,3.34h-.88l-2.58-3.34h-.42v3.34h-.72v-7.18Zm.72.7v2.44h1.24a3.14,3.14,0,0,0,1.07-.13,1.18,1.18,0,0,0,.54-.44,1.26,1.26,0,0,0,0-1.33,1.06,1.06,0,0,0-.52-.42,3,3,0,0,0-1.06-.13Z"/><path class="cls-2" d="M201.75,327.29h46.69v24H201.75v-24Zm47.4-.85H201v25.7h48.11Z"/><path class="cls-4" d="M171.58,345l-.7-11.46h1.55l.26,5.67c0,.27,0,1,.07,2.21,0,.33,0,.56,0,.7s0,.35,0,.78c.63-1.31,1.09-2.23,1.37-2.76l3.48-6.6h1.58l.37,6.7c0,.77.07,1.69.1,2.78.09-.27.26-.67.5-1.2.38-.85.66-1.46.85-1.82l3.25-6.46h1.56L180,345h-1.64l-.36-6.94c-.05-.59-.08-1.32-.11-2.2-.31.73-.58,1.29-.79,1.69l-4,7.45Z"/><path class="cls-4" d="M184.57,345A3.81,3.81,0,0,1,185,344a3.72,3.72,0,0,1,.64-.82c.27-.26.78-.69,1.54-1.3.46-.37.78-.64,1-.81a3,3,0,0,0,.53-.75,1.24,1.24,0,0,0,.11-.54,1.11,1.11,0,0,0-.35-.84,1.15,1.15,0,0,0-.85-.34,1.26,1.26,0,0,0-.88.35,2.06,2.06,0,0,0-.54,1.12l-.86-.13a2.37,2.37,0,0,1,.74-1.5,2.2,2.2,0,0,1,1.53-.55,2.37,2.37,0,0,1,1.1.25,1.66,1.66,0,0,1,.74.72,1.89,1.89,0,0,1,.25.94,2.25,2.25,0,0,1-.5,1.37,14,14,0,0,1-1.84,1.62,7.9,7.9,0,0,0-1,.85,2.48,2.48,0,0,0-.48.62H189l-.17.81Z"/><path class="cls-4" d="M198.55,338.28H191V337h7.57v1.31Zm0,3.48H191v-1.32h7.57Z"/><polygon class="cls-6" points="253.91 351.29 254.91 344.11 255.06 344.11 257.98 350 260.88 344.11 260.99 344.11 262.02 351.29 261.33 351.29 260.61 346.15 258.06 351.29 257.88 351.29 255.31 346.11 254.62 351.29 253.91 351.29"/><polygon class="cls-6" points="263.1 351.29 264.1 344.11 264.25 344.11 267.17 350 270.07 344.11 270.18 344.11 271.21 351.29 270.52 351.29 269.8 346.15 267.25 351.29 267.06 351.29 264.5 346.11 263.81 351.29 263.1 351.29"/><path class="cls-2" d="M276.72,318.82a2.39,2.39,0,0,0-1.9,1.9H166a2.39,2.39,0,0,0-1.9-1.9V298.87h-.85v19.95a2.36,2.36,0,0,0,0,4.65v9.42h.85v-9.42a2.36,2.36,0,0,0,1.9-1.9H274.82a2.36,2.36,0,0,0,1.9,1.9v9.42h.85v-9.42a2.36,2.36,0,0,0,0-4.65V298.87h-.85Z"/><rect class="cls-7" x="277.15" y="275.37" width="5.43" height="3.75"/><path class="cls-2" d="M357.12,121.94h46.7v24h-46.7v-24Zm47.41-.85H356.42v25.7h48.11Z"/><path class="cls-4" d="M327,139.67l-.7-11.46h1.55l.26,5.67c0,.27,0,1,.07,2.2,0,.33,0,.57,0,.7s0,.36,0,.79c.63-1.31,1.09-2.23,1.37-2.76l3.48-6.6h1.57l.38,6.7c0,.76.07,1.69.1,2.77.09-.27.26-.66.5-1.19.38-.85.66-1.46.85-1.82l3.24-6.46h1.57l-5.83,11.46h-1.64l-.37-6.94c0-.59-.07-1.33-.1-2.2-.32.73-.58,1.29-.8,1.69l-3.95,7.45Z"/><path class="cls-4" d="M341.77,139.67l1.13-5.41a5.73,5.73,0,0,1-2.06.93l.16-.8a7.86,7.86,0,0,0,1.31-.69,7.25,7.25,0,0,0,1-.74,3.08,3.08,0,0,0,.37-.47h.51l-1.5,7.18Z"/><path class="cls-4" d="M353.93,132.93h-7.57v-1.31h7.57v1.31Zm0,3.47h-7.57v-1.31h7.57Z"/><polygon class="cls-6" points="409.29 145.94 410.28 138.76 410.43 138.76 413.35 144.65 416.26 138.76 416.37 138.76 417.4 145.94 416.7 145.94 415.98 140.8 413.44 145.94 413.25 145.94 410.68 140.76 410 145.94 409.29 145.94"/><polygon class="cls-6" points="418.48 145.94 419.47 138.76 419.62 138.76 422.54 144.65 425.45 138.76 425.56 138.76 426.59 145.94 425.89 145.94 425.17 140.8 422.63 145.94 422.44 145.94 419.87 140.76 419.19 145.94 418.48 145.94"/><path class="cls-2" d="M323.66,74a2.35,2.35,0,1,0-2.77,2.3V181.57a2.35,2.35,0,1,0,.85,0V76.29A2.34,2.34,0,0,0,323.66,74Z"/></g></g></svg>