<svg xmlns="http://www.w3.org/2000/svg" viewBox="0 0 775.14 202.59"><defs><style>.cls-1,.cls-4{fill:#9f0e05;}.cls-1,.cls-2,.cls-3,.cls-5,.cls-6{fill-rule:evenodd;}.cls-2,.cls-7{fill:#e6340d;}.cls-3{fill:#000003;}.cls-5{fill:#676767;}.cls-6{fill:#1a1a18;}</style></defs><g id="Слой_2" data-name="Слой 2"><g id="Слой_1-2" data-name="Слой 1"><path class="cls-1" d="M173.51,35.53H607.13V31.78H173.51v3.75Zm441.62,8v93.88h3.75V43.53Zm-8,101.88H173.51v3.75H607.13v-3.75Zm-441.62-8V43.53h-3.75v93.88Z"/><path class="cls-2" d="M197.13,97.47v-14h14v14Zm15-15h-16v16h16Z"/><path class="cls-2" d="M168.76,142.16v14h-14v-14Zm-15,15h16v-16h-16Z"/><path class="cls-2" d="M625.88,142.16v14h-14v-14Zm-15,15h16v-16h-16Z"/><path class="cls-2" d="M625.88,24.78v14h-14v-14Zm-15,15h16v-16h-16Z"/><polygon class="cls-1" points="204.69 131.47 204.69 102.22 203.06 102.22 203.06 133.09 288.06 133.09 288.06 47.84 203.06 47.84 203.06 78.72 204.69 78.72 204.69 49.47 286.44 49.47 286.44 131.47 204.69 131.47"/><path class="cls-1" d="M258.63,106.34a8.06,8.06,0,1,1,8.06,8.06,8.06,8.06,0,0,1-8.06-8.06Zm8.06-9.48a9.48,9.48,0,1,0,9.48,9.48A9.48,9.48,0,0,0,266.69,96.86Z"/><path class="cls-1" d="M258.63,69.22a8.06,8.06,0,1,1,8.06,8.06,8.06,8.06,0,0,1-8.06-8.06Zm8.06-9.48a9.48,9.48,0,1,0,9.48,9.48A9.47,9.47,0,0,0,266.69,59.74Z"/><path class="cls-1" d="M253.75,69.22a12.94,12.94,0,1,1,12.94,12.93,12.94,12.94,0,0,1-12.94-12.93Zm12.94-14.36A14.36,14.36,0,1,0,281,69.22,14.36,14.36,0,0,0,266.69,54.86Z"/><path class="cls-1" d="M215.81,69.22a12.94,12.94,0,1,1,12.94,12.93,12.94,12.94,0,0,1-12.94-12.93Zm12.94-14.36A14.36,14.36,0,1,0,243.1,69.22,14.35,14.35,0,0,0,228.75,54.86Z"/><path class="cls-3" d="M33.22,65.6h1.27a3.1,3.1,0,0,1,1.19.18,1.47,1.47,0,0,1,.65.56,1.53,1.53,0,0,1,.24.84,1.47,1.47,0,0,1-.21.78,1.58,1.58,0,0,1-.62.58,2.18,2.18,0,0,1,.78.4,1.56,1.56,0,0,1,.42.56,1.63,1.63,0,0,1,.15.7,1.75,1.75,0,0,1-.57,1.32,2.12,2.12,0,0,1-1.52.54H33.22V65.6Zm.63.63V68.3h.37a2.7,2.7,0,0,0,1-.13,1,1,0,0,0,.69-1,.84.84,0,0,0-.31-.7,1.57,1.57,0,0,0-1-.25Zm0,2.72v2.48h.8a2.9,2.9,0,0,0,1-.14,1.18,1.18,0,0,0,.53-.43,1.14,1.14,0,0,0-.08-1.39,1.41,1.41,0,0,0-.77-.44A5.19,5.19,0,0,0,34.22,69Z"/><path class="cls-3" d="M38.37,65.6H39v2.77h.46a9.72,9.72,0,0,1,1.83.12,1.52,1.52,0,0,1,.89.57,1.84,1.84,0,0,1,.34,1.14,1.87,1.87,0,0,1-.33,1.13,1.5,1.5,0,0,1-.84.59,7.44,7.44,0,0,1-1.71.14H38.37V65.6ZM39,71.43h.69a6,6,0,0,0,1.42-.1,1,1,0,0,0,.53-.39,1.42,1.42,0,0,0,0-1.5,1,1,0,0,0-.63-.37A8.92,8.92,0,0,0,39.56,69H39v2.43Zm4.27-5.83h.65v6.46h-.65Z"/><path class="cls-3" d="M45.51,65.6H46.8a8,8,0,0,1,1.49.09,1.71,1.71,0,0,1,.91.57,1.61,1.61,0,0,1,.35,1.06,1.66,1.66,0,0,1-.35,1.07,1.72,1.72,0,0,1-.94.56,8.47,8.47,0,0,1-1.64.1h-.46v3h-.65V65.6Zm.65.63v2.19l1.09,0a2.86,2.86,0,0,0,1-.12,1,1,0,0,0,.49-.39,1.17,1.17,0,0,0,.17-.61,1.12,1.12,0,0,0-.17-.59,1,1,0,0,0-.47-.39,2.94,2.94,0,0,0-.94-.11Z"/><polygon class="cls-3" points="50.84 65.6 54.54 65.6 54.54 66.23 51.49 66.23 51.49 68.25 54.52 68.25 54.52 68.88 51.49 68.88 51.49 71.43 54.52 71.43 54.52 72.06 50.84 72.06 50.84 65.6"/><path class="cls-3" d="M55.79,66.23a2.14,2.14,0,0,1,1.69-.79,1.87,1.87,0,0,1,1.31.46,1.48,1.48,0,0,1,.52,1.18,1.52,1.52,0,0,1-1,1.48,1.64,1.64,0,0,1,1.28,1.71,1.86,1.86,0,0,1-.57,1.42,2.24,2.24,0,0,1-1.57.53,2.36,2.36,0,0,1-1.21-.29,2.81,2.81,0,0,1-1-1l.5-.3a2.49,2.49,0,0,0,.84.85,1.91,1.91,0,0,0,.81.18,1.59,1.59,0,0,0,1-.35,1.28,1.28,0,0,0,.43-1,1.39,1.39,0,0,0-.14-.63,1.18,1.18,0,0,0-.42-.44,1.53,1.53,0,0,0-.51-.21,5.09,5.09,0,0,0-.8,0H57v-.57h.22c1,0,1.44-.39,1.44-1.16A1.11,1.11,0,0,0,57.46,66a1.7,1.7,0,0,0-1.22.59Z"/><polygon class="cls-3" points="33.19 76.32 37.78 76.32 37.78 82.78 37.14 82.78 37.14 76.93 33.84 76.93 33.84 82.78 33.19 82.78 33.19 76.32"/><path class="cls-3" d="M42.43,76.16a3.37,3.37,0,0,1,2.46,1,3.24,3.24,0,0,1,1,2.41A3.42,3.42,0,0,1,40.06,82a3.24,3.24,0,0,1-1-2.38,3.46,3.46,0,0,1,.45-1.73,3.26,3.26,0,0,1,1.23-1.24,3.31,3.31,0,0,1,1.68-.45Zm0,.63a2.65,2.65,0,0,0-1.36.37,2.69,2.69,0,0,0-1,1,2.79,2.79,0,0,0-.36,1.41,2.71,2.71,0,0,0,2.72,2.73A2.77,2.77,0,0,0,43.85,82a2.6,2.6,0,0,0,1-1,2.78,2.78,0,0,0,.36-1.4,2.69,2.69,0,0,0-.36-1.39,2.62,2.62,0,0,0-1-1A2.7,2.7,0,0,0,42.46,76.79Z"/><path class="cls-3" d="M47.17,83.75h-.64V82.18H47l2.54-5.86h.22l2.68,5.86H53v1.57h-.65v-1H47.17v1Zm.6-1.57h3.94l-2-4.51Z"/><path class="cls-3" d="M56.42,76.32h1.27a3,3,0,0,1,1.18.18,1.42,1.42,0,0,1,.65.56,1.53,1.53,0,0,1,.24.84,1.47,1.47,0,0,1-.21.78,1.55,1.55,0,0,1-.61.58,2.21,2.21,0,0,1,.77.4,1.56,1.56,0,0,1,.42.56,1.64,1.64,0,0,1,.15.71,1.7,1.7,0,0,1-.56,1.31,2.13,2.13,0,0,1-1.53.54H56.42V76.32Zm.63.63V79h.37a3,3,0,0,0,1-.12,1.1,1.1,0,0,0,.5-.4,1,1,0,0,0,.19-.6.87.87,0,0,0-.31-.7,1.57,1.57,0,0,0-1-.25Zm0,2.72v2.48h.8a2.72,2.72,0,0,0,1-.14,1.17,1.17,0,0,0,.53-.43,1.15,1.15,0,0,0,.2-.64,1.12,1.12,0,0,0-.28-.75,1.43,1.43,0,0,0-.78-.44,5.83,5.83,0,0,0-1.15-.08Z"/><path class="cls-3" d="M64.21,76.32l3,6.46h-.7l-1-2.12h-2.8l-1,2.12H61l3-6.46Zm-.08,1.36L63,80h2.22Z"/><path class="cls-3" d="M68.22,76.32h1.29a7,7,0,0,1,1.5.1,1.62,1.62,0,0,1,.9.56A1.56,1.56,0,0,1,72.26,78a1.63,1.63,0,0,1-.34,1.07,1.69,1.69,0,0,1-.94.56,8.42,8.42,0,0,1-1.65.11h-.46v3h-.65V76.32Zm.65.63v2.2H70a2.92,2.92,0,0,0,1-.12,1,1,0,0,0,.48-.39A1.07,1.07,0,0,0,71.6,78a1,1,0,0,0-.18-.59,1,1,0,0,0-.46-.39A3.06,3.06,0,0,0,70,77Z"/><path class="cls-3" d="M76.63,76.16a3.33,3.33,0,0,1,2.45,1,3.24,3.24,0,0,1,1,2.41,3.35,3.35,0,0,1-3.39,3.39,3.27,3.27,0,0,1-2.42-1,3.24,3.24,0,0,1-1-2.38,3.46,3.46,0,0,1,.45-1.73A3.26,3.26,0,0,1,75,76.61a3.31,3.31,0,0,1,1.68-.45Zm0,.63a2.65,2.65,0,0,0-1.36.37,2.69,2.69,0,0,0-1,1,2.79,2.79,0,0,0-.36,1.41,2.7,2.7,0,0,0,2.72,2.73A2.8,2.8,0,0,0,78.05,82a2.6,2.6,0,0,0,1-1,2.78,2.78,0,0,0,.36-1.4,2.75,2.75,0,0,0-2.75-2.76Z"/><path class="cls-3" d="M84,79.11V76.32h.65v6.46H84v-3h-.47a9.07,9.07,0,0,1-1.4-.08,1.85,1.85,0,0,1-.8-.34,1.41,1.41,0,0,1-.48-.66,3.27,3.27,0,0,1-.13-1.06V76.32h.63v1.32a1.58,1.58,0,0,0,.33,1.14,1.5,1.5,0,0,0,1.09.33H84Z"/><polygon class="cls-3" points="86.21 76.32 86.86 76.32 86.86 79.03 90.15 79.03 90.15 76.32 90.8 76.32 90.8 82.78 90.15 82.78 90.15 79.66 86.86 79.66 86.86 82.78 86.21 82.78 86.21 76.32"/><path class="cls-3" d="M91.88,76.34h.72l2,4.39,1.79-4.41h.7l-2.45,5.81a1.22,1.22,0,0,1-1.22.81,1.51,1.51,0,0,1-.66-.14,2.74,2.74,0,0,1-.79-.67l.47-.39a2.68,2.68,0,0,0,.65.54.78.78,0,0,0,.33.07.74.74,0,0,0,.44-.13,1.86,1.86,0,0,0,.41-.68Z"/><path class="cls-3" d="M98.82,79.21H100a3.35,3.35,0,0,1,1.23-2.3,3.43,3.43,0,0,1,2.11-.75,3.37,3.37,0,0,1,2.46,1,3.24,3.24,0,0,1,1,2.41,3.36,3.36,0,0,1-3.4,3.39,3.38,3.38,0,0,1-2.28-.84A3.33,3.33,0,0,1,100,79.81H98.82v3h-.64V76.32h.64v2.89Zm7.27.34a2.61,2.61,0,0,0-.83-2,2.71,2.71,0,0,0-1.92-.78,2.65,2.65,0,0,0-1.9.79,2.7,2.7,0,0,0-.82,2,2.62,2.62,0,0,0,.81,2,2.7,2.7,0,0,0,1.91.77,2.72,2.72,0,0,0,2.75-2.76Z"/><polygon class="cls-3" points="110.52 76.32 115.11 76.32 115.11 82.78 114.47 82.78 114.47 76.93 111.17 76.93 111.17 82.78 110.52 82.78 110.52 76.32"/><path class="cls-3" d="M119.33,76.32l3,6.46h-.69l-1-2.12h-2.8l-1,2.12h-.72l3-6.46Zm-.08,1.36L118.13,80h2.22Z"/><polygon class="cls-3" points="123.33 76.32 123.98 76.32 123.98 79.03 127.27 79.03 127.27 76.32 127.92 76.32 127.92 82.78 127.27 82.78 127.27 79.66 123.98 79.66 123.98 82.78 123.33 82.78 123.33 76.32"/><polygon class="cls-3" points="129.5 76.32 133.19 76.32 133.19 76.95 130.14 76.95 130.14 78.97 133.17 78.97 133.17 79.61 130.14 79.61 130.14 82.15 133.17 82.15 133.17 82.78 129.5 82.78 129.5 76.32"/><polygon class="cls-3" points="139.55 82.78 138.85 82.78 136.7 77.78 134.52 82.78 133.82 82.78 136.63 76.32 136.78 76.32 139.55 82.78"/><path class="cls-3" d="M140.63,76.32h.65v2.77h.47a8.7,8.7,0,0,1,1.82.13,1.51,1.51,0,0,1,.89.56,1.78,1.78,0,0,1,.34,1.14,1.85,1.85,0,0,1-.33,1.13,1.5,1.5,0,0,1-.84.59,6.9,6.9,0,0,1-1.71.14h-1.29V76.32Zm.65,5.83H142a6,6,0,0,0,1.42-.1,1,1,0,0,0,.53-.39,1.19,1.19,0,0,0,.19-.71,1.22,1.22,0,0,0-.24-.79,1.08,1.08,0,0,0-.63-.37,8.84,8.84,0,0,0-1.42-.07h-.54Z"/><polygon class="cls-3" points="367.78 8.02 368.68 1.56 368.81 1.56 371.44 6.86 374.06 1.56 374.15 1.56 375.08 8.02 374.46 8.02 373.81 3.39 371.52 8.02 371.35 8.02 369.04 3.36 368.42 8.02 367.78 8.02"/><path class="cls-3" d="M379.42,1.39a3.36,3.36,0,0,1,2.45,1,3.27,3.27,0,0,1,1,2.41,3.27,3.27,0,0,1-1,2.41,3.25,3.25,0,0,1-2.4,1,3.33,3.33,0,0,1-2.43-1,3.27,3.27,0,0,1-1-2.38,3.46,3.46,0,0,1,.45-1.73,3.26,3.26,0,0,1,1.22-1.25,3.32,3.32,0,0,1,1.69-.45Zm0,.63a2.69,2.69,0,0,0-1.36.38,2.74,2.74,0,0,0-1,1,2.84,2.84,0,0,0-.36,1.41,2.66,2.66,0,0,0,.8,2,2.61,2.61,0,0,0,1.92.79,2.81,2.81,0,0,0,1.4-.36,2.64,2.64,0,0,0,1-1,2.79,2.79,0,0,0,.36-1.41,2.74,2.74,0,0,0-.36-1.39,2.64,2.64,0,0,0-1-1A2.77,2.77,0,0,0,379.44,2Z"/><path class="cls-3" d="M389.25,8h-.67v-5l-4.27,5h-.14V1.56h.64v5l4.29-5h.15V8Zm-4.09-8h.57a.94.94,0,0,0,.4.34,1.4,1.4,0,0,0,.6.12,1.46,1.46,0,0,0,.57-.1,1.13,1.13,0,0,0,.41-.36h.56a1.16,1.16,0,0,1-.49.66,1.86,1.86,0,0,1-1,.27,2,2,0,0,1-1.06-.26A1.14,1.14,0,0,1,385.16,0Z"/><polygon class="cls-3" points="390.81 1.56 391.47 1.56 391.47 3.98 394.06 1.56 394.93 1.56 391.82 4.46 395.17 8.02 394.31 8.02 391.47 5 391.47 8.02 390.81 8.02 390.81 1.56"/><path class="cls-3" d="M398.78,1.56l3,6.46h-.69l-1-2.13h-2.8l-1,2.13h-.72l3.05-6.46Zm-.08,1.35-1.12,2.35h2.22Z"/><polygon class="cls-3" points="410.37 8.02 409.7 8.02 409.7 3.05 405.43 8.02 405.29 8.02 405.29 1.56 405.94 1.56 405.94 6.59 410.23 1.56 410.37 1.56 410.37 8.02"/><path class="cls-3" d="M412.07,2.19a2.14,2.14,0,0,1,1.68-.8,2,2,0,0,1,1.32.46A1.5,1.5,0,0,1,415.59,3a1.52,1.52,0,0,1-1,1.48,1.64,1.64,0,0,1,1.28,1.71,1.83,1.83,0,0,1-.58,1.42,2.22,2.22,0,0,1-1.56.53,2.33,2.33,0,0,1-1.21-.29,3,3,0,0,1-1-1l.5-.29a2.42,2.42,0,0,0,.85.85,1.91,1.91,0,0,0,.81.18,1.64,1.64,0,0,0,1.05-.35,1.28,1.28,0,0,0,.43-1,1.28,1.28,0,0,0-.15-.63,1.08,1.08,0,0,0-.41-.44,1.53,1.53,0,0,0-.51-.21,5.09,5.09,0,0,0-.8,0h-.11V4.33h.22q1.44,0,1.44-1.17a1.11,1.11,0,0,0-.33-.85,1.16,1.16,0,0,0-.83-.32,1.71,1.71,0,0,0-1.23.59Z"/><polygon class="cls-3" points="419.66 1.56 420.31 1.56 420.31 3.98 422.9 1.56 423.77 1.56 420.66 4.46 424.02 8.02 423.15 8.02 420.31 5 420.31 8.02 419.66 8.02 419.66 1.56"/><path class="cls-3" d="M427.62,1.56l3,6.46h-.7l-1-2.13h-2.8l-1,2.13h-.72l3-6.46Zm-.08,1.35-1.11,2.35h2.22Z"/><polygon class="cls-3" points="431.35 8.02 432.25 1.56 432.38 1.56 435.01 6.86 437.62 1.56 437.72 1.56 438.65 8.02 438.03 8.02 437.38 3.39 435.09 8.02 434.92 8.02 432.61 3.36 431.99 8.02 431.35 8.02"/><polygon class="cls-3" points="439.89 1.56 440.54 1.56 440.54 4.27 443.83 4.27 443.83 1.56 444.48 1.56 444.48 8.02 443.83 8.02 443.83 4.9 440.54 4.9 440.54 8.02 439.89 8.02 439.89 1.56"/><path class="cls-3" d="M449.72,1.56h-1.29a7.67,7.67,0,0,0-1.46.09,1.63,1.63,0,0,0-.94.56,1.6,1.6,0,0,0-.36,1.06,1.77,1.77,0,0,0,.25.93,1.5,1.5,0,0,0,.71.6,3.19,3.19,0,0,0,1.28.21l-2.33,3h.8l2.32-3h.37V8h.65V1.56Zm-.65.63V4.38H448a2.87,2.87,0,0,1-1-.12,1,1,0,0,1-.49-.39,1.17,1.17,0,0,1-.17-.61,1,1,0,0,1,.18-.59A1,1,0,0,1,447,2.3a2.74,2.74,0,0,1,.95-.11Z"/><path class="cls-3" d="M562.2,1.56h1.27a3,3,0,0,1,1.18.18,1.37,1.37,0,0,1,.65.56,1.45,1.45,0,0,1,.24.84,1.5,1.5,0,0,1-.21.78,1.41,1.41,0,0,1-.61.57,2.29,2.29,0,0,1,.77.41,1.55,1.55,0,0,1,.43.55,1.71,1.71,0,0,1,.15.71,1.75,1.75,0,0,1-.57,1.32A2.13,2.13,0,0,1,564,8H562.2V1.56Zm.63.63V4.26h.37a2.94,2.94,0,0,0,1-.13,1,1,0,0,0,.5-.39,1,1,0,0,0,.19-.6.84.84,0,0,0-.31-.7,1.57,1.57,0,0,0-1-.25Zm0,2.71V7.39h.8a2.93,2.93,0,0,0,1-.14,1.18,1.18,0,0,0,.53-.43,1.15,1.15,0,0,0,.2-.64,1.12,1.12,0,0,0-.28-.76,1.5,1.5,0,0,0-.78-.44,5.83,5.83,0,0,0-1.15-.08Z"/><path class="cls-3" d="M567.35,1.56H568V4.33h.47a9.6,9.6,0,0,1,1.82.12,1.45,1.45,0,0,1,.89.57,1.78,1.78,0,0,1,.34,1.14,1.87,1.87,0,0,1-.33,1.13,1.5,1.5,0,0,1-.84.59,7.44,7.44,0,0,1-1.71.14h-1.28V1.56ZM568,7.39h.69a6.7,6.7,0,0,0,1.43-.1,1,1,0,0,0,.52-.39,1.2,1.2,0,0,0,.2-.72,1.16,1.16,0,0,0-.25-.78A1,1,0,0,0,570,5,9,9,0,0,0,568.54,5H568V7.39Zm4.28-5.83h.65V8h-.65Z"/><path class="cls-3" d="M574.48,1.56h1.29a8,8,0,0,1,1.5.09,1.64,1.64,0,0,1,.9.56,1.6,1.6,0,0,1,.35,1.07,1.61,1.61,0,0,1-.34,1.06,1.71,1.71,0,0,1-.94.57,8.59,8.59,0,0,1-1.65.1h-.46V8h-.65V1.56Zm.65.63V4.38l1.1,0a2.62,2.62,0,0,0,1-.13,1,1,0,0,0,.48-.39,1.09,1.09,0,0,0,0-1.2,1,1,0,0,0-.46-.38,2.74,2.74,0,0,0-1-.11Z"/><polygon class="cls-3" points="579.82 1.56 583.52 1.56 583.52 2.19 580.47 2.19 580.47 4.21 583.49 4.21 583.49 4.84 580.47 4.84 580.47 7.39 583.49 7.39 583.49 8.02 579.82 8.02 579.82 1.56"/><path class="cls-3" d="M584.77,2.19a2.12,2.12,0,0,1,1.68-.8,2,2,0,0,1,1.32.46A1.5,1.5,0,0,1,588.29,3a1.52,1.52,0,0,1-1,1.48,1.64,1.64,0,0,1,1.28,1.71A1.87,1.87,0,0,1,588,7.65a2.22,2.22,0,0,1-1.56.53,2.33,2.33,0,0,1-1.21-.29,2.86,2.86,0,0,1-1-1l.5-.29a2.42,2.42,0,0,0,.85.85,1.91,1.91,0,0,0,.81.18,1.64,1.64,0,0,0,1-.35,1.28,1.28,0,0,0,.43-1,1.28,1.28,0,0,0-.15-.63,1.15,1.15,0,0,0-.41-.44,1.53,1.53,0,0,0-.51-.21,5.09,5.09,0,0,0-.8,0h-.11V4.33h.22q1.44,0,1.44-1.17a1.11,1.11,0,0,0-.33-.85,1.16,1.16,0,0,0-.83-.32,1.71,1.71,0,0,0-1.23.59Z"/><polygon class="cls-3" points="592.35 1.56 596.94 1.56 596.94 8.02 596.29 8.02 596.29 2.17 593 2.17 593 8.02 592.35 8.02 592.35 1.56"/><path class="cls-3" d="M601.59,1.39a3.36,3.36,0,0,1,2.45,1,3.27,3.27,0,0,1,1,2.41,3.27,3.27,0,0,1-1,2.41,3.25,3.25,0,0,1-2.4,1,3.33,3.33,0,0,1-2.43-1,3.27,3.27,0,0,1-1-2.38,3.46,3.46,0,0,1,.45-1.73,3.26,3.26,0,0,1,1.22-1.25,3.32,3.32,0,0,1,1.69-.45Zm0,.63a2.69,2.69,0,0,0-1.36.38,2.74,2.74,0,0,0-1,1,2.84,2.84,0,0,0-.36,1.41,2.66,2.66,0,0,0,.8,2,2.61,2.61,0,0,0,1.92.79,2.81,2.81,0,0,0,1.4-.36,2.64,2.64,0,0,0,1-1,2.79,2.79,0,0,0,.36-1.41A2.74,2.74,0,0,0,604,3.39a2.64,2.64,0,0,0-1-1A2.77,2.77,0,0,0,601.61,2Z"/><path class="cls-3" d="M606.33,9h-.65V7.42h.52l2.53-5.86H609l2.68,5.86h.5V9h-.65V8h-5.15V9Zm.6-1.56h3.94l-2-4.51Z"/><polygon class="cls-3" points="615.27 8.02 616.17 1.56 616.3 1.56 618.93 6.86 621.54 1.56 621.64 1.56 622.57 8.02 621.95 8.02 621.3 3.39 619.01 8.02 618.84 8.02 616.53 3.36 615.91 8.02 615.27 8.02"/><path class="cls-3" d="M626.9,1.39a3.37,3.37,0,0,1,2.46,1,3.27,3.27,0,0,1,1,2.41,3.27,3.27,0,0,1-1,2.41,3.27,3.27,0,0,1-2.41,1,3.33,3.33,0,0,1-2.42-1,3.24,3.24,0,0,1-1-2.38A3.46,3.46,0,0,1,624,3.09a3.32,3.32,0,0,1,2.91-1.7Zm0,.63a2.79,2.79,0,0,0-2.36,1.38,2.84,2.84,0,0,0-.36,1.41,2.62,2.62,0,0,0,.8,2,2.61,2.61,0,0,0,1.92.79,2.77,2.77,0,0,0,1.39-.36,2.67,2.67,0,0,0,1-1,2.79,2.79,0,0,0,.36-1.41,2.74,2.74,0,0,0-.36-1.39,2.67,2.67,0,0,0-1-1A2.71,2.71,0,0,0,626.93,2Z"/><path class="cls-3" d="M636.74,8h-.68v-5L631.8,8h-.15V1.56h.65v5l4.29-5h.15V8Zm-4.1-8h.58a.88.88,0,0,0,.4.34,1.4,1.4,0,0,0,.6.12,1.49,1.49,0,0,0,.57-.1A1.22,1.22,0,0,0,635.2,0h.56a1.14,1.14,0,0,1-.5.66,1.82,1.82,0,0,1-1,.27,1.94,1.94,0,0,1-1.05-.26A1.2,1.2,0,0,1,632.64,0Z"/><polygon class="cls-3" points="638.3 1.56 638.96 1.56 638.96 3.98 641.55 1.56 642.42 1.56 639.3 4.46 642.66 8.02 641.8 8.02 638.96 5 638.96 8.02 638.3 8.02 638.3 1.56"/><path class="cls-3" d="M643.13,1.57h.72l2,4.39,1.79-4.4h.71l-2.45,5.8a1.23,1.23,0,0,1-1.22.82A1.66,1.66,0,0,1,644,8a2.82,2.82,0,0,1-.79-.68l.47-.38a2.68,2.68,0,0,0,.65.54.88.88,0,0,0,.32.07.77.77,0,0,0,.45-.14,1.69,1.69,0,0,0,.41-.68Z"/><path class="cls-2" d="M168.76,24.78v14h-14v-14Zm-15,15h16v-16h-16Z"/><path class="cls-1" d="M471.46,104.15v-14h14v14Zm15-15h-16v16h16Z"/><path class="cls-1" d="M528,104.15v-14h14v14Zm15-15H527v16h16Z"/><path class="cls-1" d="M497.5,131.4a36,36,0,0,1-27.29-59.47l-.53-1.84a37.62,37.62,0,1,0,62.94,38.81h-1.74a36,36,0,0,1-33.38,22.5Zm-24.88-62a36,36,0,0,1,16.06-8.9,5.55,5.55,0,0,1-1-1.4,37.61,37.61,0,0,0-15.55,8.55l.5,1.75Zm38.93-7.14L510.09,60A37.69,37.69,0,0,1,533.77,85.4h-1.68A36.07,36.07,0,0,0,511.55,62.25Z"/><path class="cls-1" d="M490.49,54.3l.25-.27,0,0,4.56-4.78a3.21,3.21,0,0,1,4.95.36l11.65,18.3a1,1,0,0,1-.86,1.59,1.15,1.15,0,0,1-.41-.08L491.5,59.25a3.22,3.22,0,0,1-1.77-2.88,3.15,3.15,0,0,1,.76-2.07ZM510,70.22l.19.1a2,2,0,0,0,.87.19,2.06,2.06,0,0,0,2.06-2.06,2,2,0,0,0-.33-1.11l-11.46-18-.2-.31a4.24,4.24,0,0,0-6.56-.5L490,53.28a3.76,3.76,0,0,0-.34.35,4.22,4.22,0,0,0-1,2.74,4.27,4.27,0,0,0,2.33,3.8Z"/><path class="cls-1" d="M502.55,66.27l-3.68,19.39a1.08,1.08,0,0,1-.29.51,1,1,0,0,1-1.46,0,1,1,0,0,1-.22-.35l-5.73-25.54-.15-.08a4.26,4.26,0,0,1-1.11-.82l0,.08,5.92,26.46.06.21c.09.28,0,.24.46.76a2.88,2.88,0,0,0,2.92,0c.55-.53.49-.63.57-1l3.62-19.13Z"/><rect class="cls-4" x="561.25" y="59.53" width="32.75" height="0.85"/><rect class="cls-4" x="561.25" y="71.39" width="32.75" height="0.85"/><rect class="cls-4" x="561.25" y="83.25" width="32.75" height="0.85"/><rect class="cls-4" x="561.25" y="95.11" width="32.75" height="0.85"/><rect class="cls-4" x="561.25" y="106.98" width="32.75" height="0.85"/><rect class="cls-4" x="561.25" y="118.84" width="32.75" height="0.85"/><rect class="cls-4" x="561.25" y="130.7" width="32.75" height="0.85"/><path class="cls-3" d="M142.76,31.6h1.43a9,9,0,0,1,1.62.1,1.89,1.89,0,0,1,1.05.63,1.81,1.81,0,0,1,.4,1.18,1.87,1.87,0,0,1-.28,1,1.68,1.68,0,0,1-.79.67,3.59,3.59,0,0,1-1.42.23l2.59,3.34h-.88l-2.59-3.34h-.41v3.34h-.72V31.6Zm.72.7v2.44h1.24a3.11,3.11,0,0,0,1.06-.13,1.18,1.18,0,0,0,.54-.44,1.21,1.21,0,0,0,0-1.33,1,1,0,0,0-.51-.42,3,3,0,0,0-1.06-.13Z"/><path class="cls-3" d="M142.76,149h1.43a9.34,9.34,0,0,1,1.62.09,1.89,1.89,0,0,1,1.05.63,1.83,1.83,0,0,1,.4,1.18,1.85,1.85,0,0,1-.28,1,1.68,1.68,0,0,1-.79.67,3.56,3.56,0,0,1-1.42.24l2.59,3.34h-.88l-2.59-3.34h-.41v3.34h-.72V149Zm.72.7v2.44h1.24a3.06,3.06,0,0,0,1.06-.14,1.12,1.12,0,0,0,.54-.44,1.21,1.21,0,0,0,0-1.33,1.16,1.16,0,0,0-.51-.42,3.36,3.36,0,0,0-1.06-.12Z"/><path class="cls-3" d="M634.63,31.6h1.44a9.11,9.11,0,0,1,1.62.1,1.87,1.87,0,0,1,1,.63,1.76,1.76,0,0,1,.4,1.18,2,2,0,0,1-.27,1,1.73,1.73,0,0,1-.79.67,3.65,3.65,0,0,1-1.42.23l2.58,3.34h-.88l-2.58-3.34h-.42v3.34h-.72V31.6Zm.72.7v2.44h1.24a3.18,3.18,0,0,0,1.07-.13,1.18,1.18,0,0,0,.54-.44,1.26,1.26,0,0,0,0-1.33,1.06,1.06,0,0,0-.52-.42,3,3,0,0,0-1.06-.13Z"/><path class="cls-3" d="M634.63,149h1.44a9.42,9.42,0,0,1,1.62.09,1.87,1.87,0,0,1,1,.63,1.78,1.78,0,0,1,.4,1.18,1.93,1.93,0,0,1-.27,1,1.73,1.73,0,0,1-.79.67,3.63,3.63,0,0,1-1.42.24l2.58,3.34h-.88l-2.58-3.34h-.42v3.34h-.72V149Zm.72.7v2.44h1.24a3.13,3.13,0,0,0,1.07-.14,1.12,1.12,0,0,0,.54-.44,1.17,1.17,0,0,0-.52-1.75,3.28,3.28,0,0,0-1.06-.12Z"/><path class="cls-2" d="M1.83,175.16h.79a12.56,12.56,0,0,0-1.38,3.22,14.3,14.3,0,0,0-.5,3.78,9.94,9.94,0,0,0,.3,2.58H.3a9.23,9.23,0,0,1-.3-2.47,15,15,0,0,1,.48-3.74A14.13,14.13,0,0,1,1.83,175.16Z"/><path class="cls-2" d="M9.36,184.74H8.57A12.26,12.26,0,0,0,10,181.52a14.3,14.3,0,0,0,.5-3.75,10.18,10.18,0,0,0-.3-2.61h.74a9.7,9.7,0,0,1,.29,2.5,14.85,14.85,0,0,1-.48,3.73A13.72,13.72,0,0,1,9.36,184.74Z"/><path class="cls-2" d="M4.19,175.48H6a3.55,3.55,0,0,1,1.38.19,1.5,1.5,0,0,1,.67.58,1.71,1.71,0,0,1,.26.93A2,2,0,0,1,7.17,179a3.18,3.18,0,0,1-1.38.25L8,182.66H7.14L5,179.26H4.41L4,182.66H3.22l1-7.18Zm.63.69-.32,2.39h.83a6.05,6.05,0,0,0,1.2-.07A1.41,1.41,0,0,0,7.3,178a1.28,1.28,0,0,0,.29-.84.88.88,0,0,0-.41-.82,2.24,2.24,0,0,0-1.12-.2Z"/><polygon class="cls-5" points="15.47 179.66 18.16 179.66 18.07 180.26 15.39 180.26 15.47 179.66"/><path class="cls-5" d="M27.31,178.51l-.56.32a2,2,0,0,0-1.81-1,2.72,2.72,0,0,0-1.28.31,2.25,2.25,0,0,0-.91.87,2.3,2.3,0,0,0-.33,1.19,2.05,2.05,0,0,0,.24,1,1.67,1.67,0,0,0,.69.68,2.13,2.13,0,0,0,1,.24,3,3,0,0,0,1.18-.24,2.23,2.23,0,0,0,.87-.63l.56.4a3.37,3.37,0,0,1-1.15.84,3.72,3.72,0,0,1-1.43.26,2.76,2.76,0,0,1-2-.68,2.44,2.44,0,0,1-.7-1.83,2.9,2.9,0,0,1,.93-2.16,3.11,3.11,0,0,1,2.26-.9,3,3,0,0,1,1.43.34A2.32,2.32,0,0,1,27.31,178.51Z"/><polygon class="cls-5" points="28.85 177.35 29.54 177.35 29.23 179.59 31.99 177.35 33 177.35 29.97 179.79 32.44 182.66 31.47 182.66 29.37 180.21 29.13 180.4 28.82 182.66 28.13 182.66 28.85 177.35"/><path class="cls-5" d="M34.07,177.35h.7l-.11.81a2.86,2.86,0,0,1,2.1-.94,2.38,2.38,0,0,1,2.48,2.49,3,3,0,0,1-.9,2.17,2.88,2.88,0,0,1-2.13.91,2.22,2.22,0,0,1-2-1.14l-.39,2.95h-.71l1-7.25Zm2.62.49a2.4,2.4,0,0,0-1.19.31,2.23,2.23,0,0,0-.86.89,2.62,2.62,0,0,0-.32,1.26,1.77,1.77,0,0,0,1.87,1.86,2.29,2.29,0,0,0,1.68-.7,2.41,2.41,0,0,0,.69-1.74,1.82,1.82,0,0,0-.52-1.36A1.79,1.79,0,0,0,36.69,177.84Z"/><polygon class="cls-5" points="40.11 177.35 40.81 177.35 42.19 181.27 44.47 177.35 45.23 177.35 41.01 184.6 40.25 184.6 41.76 182.02 40.11 177.35"/><polygon class="cls-5" points="46.74 177.95 46.11 182.66 45.44 182.66 46.16 177.35 48.84 177.35 48.77 177.95 46.74 177.95"/><polygon class="cls-5" points="53.27 182.66 52.55 182.66 51.29 178.81 49 182.66 48.27 182.66 51.42 177.35 51.54 177.35 53.27 182.66"/><path class="cls-5" d="M59.62,180.14H54.88a2,2,0,0,0,.5,1.49,1.74,1.74,0,0,0,1.35.54,2.22,2.22,0,0,0,1-.23,2,2,0,0,0,.79-.64l.51.41a2.73,2.73,0,0,1-1,.79,3.24,3.24,0,0,1-1.35.29,2.27,2.27,0,0,1-1.88-.77,2.66,2.66,0,0,1-.63-1.74,3,3,0,0,1,.43-1.51,3,3,0,0,1,1.13-1.14,3,3,0,0,1,1.53-.41,2.25,2.25,0,0,1,1.69.69,2.41,2.41,0,0,1,.67,1.76,4.54,4.54,0,0,1,0,.47Zm-.63-.6a1.66,1.66,0,0,0-1.72-1.67,2.3,2.3,0,0,0-1.41.45,2.38,2.38,0,0,0-.86,1.22Z"/><polygon class="cls-5" points="61.75 179.46 64.83 179.46 65.12 177.35 65.81 177.35 65.09 182.66 64.4 182.66 64.75 180.1 61.67 180.1 61.32 182.66 60.63 182.66 61.35 177.35 62.04 177.35 61.75 179.46"/><polygon class="cls-5" points="68.11 177.35 67.6 181.18 71.87 177.35 71.92 177.35 71.2 182.66 70.52 182.66 71.03 178.88 66.81 182.66 66.73 182.66 67.45 177.35 68.11 177.35"/><path class="cls-5" d="M78.31,180.14H73.58a2,2,0,0,0,.49,1.49,1.77,1.77,0,0,0,1.35.54,2.3,2.3,0,0,0,1-.23,2.06,2.06,0,0,0,.79-.64l.51.41a2.85,2.85,0,0,1-1,.79,3.21,3.21,0,0,1-1.35.29,2.24,2.24,0,0,1-1.87-.77,2.66,2.66,0,0,1-.63-1.74,3,3,0,0,1,.42-1.51,3,3,0,0,1,1.13-1.14,3.06,3.06,0,0,1,1.54-.41,2.26,2.26,0,0,1,1.69.69,2.46,2.46,0,0,1,.67,1.76,3,3,0,0,1,0,.47Zm-.62-.6a1.72,1.72,0,0,0-.51-1.21,1.74,1.74,0,0,0-1.22-.46,2.28,2.28,0,0,0-1.4.45,2.34,2.34,0,0,0-.87,1.22Z"/><polygon class="cls-5" points="82.12 177.35 82.82 177.35 84.2 181.27 86.48 177.35 87.24 177.35 83.03 184.6 82.26 184.6 83.77 182.02 82.12 177.35"/><polygon class="cls-5" points="88.76 177.95 88.12 182.66 87.46 182.66 88.17 177.35 90.86 177.35 90.78 177.95 88.76 177.95"/><polygon class="cls-5" points="95.28 182.66 94.56 182.66 93.3 178.81 91.01 182.66 90.29 182.66 93.43 177.35 93.56 177.35 95.28 182.66"/><path class="cls-5" d="M101.4,182.66h-.69l.1-.8a2.89,2.89,0,0,1-2.11.93,2.41,2.41,0,0,1-1.77-.69,2.47,2.47,0,0,1-.69-1.8,3.09,3.09,0,0,1,3-3.08,2.29,2.29,0,0,1,1.16.28,2.24,2.24,0,0,1,.84.86l.14-1h.69l-.71,5.31Zm-2.61-.49a2.32,2.32,0,0,0,1.19-.31,2.17,2.17,0,0,0,.86-.89,2.61,2.61,0,0,0,.31-1.26,1.78,1.78,0,0,0-1.87-1.86,2.26,2.26,0,0,0-1.67.71,2.39,2.39,0,0,0-.69,1.74,1.77,1.77,0,0,0,1.87,1.87Z"/><path class="cls-1" d="M220.69,106.34a8.06,8.06,0,1,1,8.06,8.06,8.06,8.06,0,0,1-8.06-8.06Zm8.06-9.48a9.48,9.48,0,1,0,9.48,9.48A9.48,9.48,0,0,0,228.75,96.86Z"/><path class="cls-1" d="M213.25,106.34a15.79,15.79,0,0,1,.37-3.39l-1-.73h-.3a16.91,16.91,0,1,0,3.54-6.86v0l1.12.83a15.49,15.49,0,1,1-3.75,10.1Z"/><path class="cls-1" d="M228.75,92.85a13.5,13.5,0,1,0,13.5,13.49,13.5,13.5,0,0,0-13.5-13.49Zm-12,13.49a12,12,0,1,1,12,12A12,12,0,0,1,216.78,106.34Z"/><path class="cls-2" d="M366.18,160.13h46.7v24h-46.7v-24Zm47.41-.85H365.48V185h48.11Z"/><polygon class="cls-2" points="337.9 178.31 340.3 166.86 341.82 166.86 339.69 177.02 345.59 177.02 345.32 178.31 337.9 178.31"/><path class="cls-2" d="M348.52,178.31l1.13-5.4a5.57,5.57,0,0,1-2.06.92l.16-.8a7.12,7.12,0,0,0,1.31-.68,8.21,8.21,0,0,0,1-.74,2.75,2.75,0,0,0,.37-.48h.51l-1.5,7.18Z"/><path class="cls-2" d="M360.68,171.58h-7.57v-1.31h7.57v1.31Zm0,3.47h-7.57v-1.31h7.57Z"/><polygon class="cls-6" points="418.35 184.13 419.34 176.95 419.49 176.95 422.41 182.84 425.31 176.95 425.42 176.95 426.46 184.13 425.76 184.13 425.04 178.99 422.5 184.13 422.31 184.13 419.74 178.95 419.05 184.13 418.35 184.13"/><polygon class="cls-6" points="427.54 184.13 428.53 176.95 428.68 176.95 431.6 182.84 434.5 176.95 434.61 176.95 435.65 184.13 434.95 184.13 434.23 178.99 431.69 184.13 431.5 184.13 428.93 178.95 428.24 184.13 427.54 184.13"/><path class="cls-2" d="M705.68,77.47h46.7v24h-46.7v-24Zm47.4-.86H705v25.71h48.11Z"/><path class="cls-2" d="M675.52,95.19l-.71-11.45h1.56l.26,5.66c0,.28,0,1,.06,2.21,0,.33,0,.56,0,.7a7.24,7.24,0,0,0,0,.79c.63-1.31,1.08-2.23,1.36-2.77l3.48-6.59h1.58l.38,6.7c0,.76.06,1.69.09,2.77.09-.27.26-.67.5-1.2.38-.85.67-1.45.85-1.82l3.25-6.45h1.56L684,95.19h-1.64L682,88.25c0-.59-.08-1.32-.1-2.19-.32.72-.59,1.29-.8,1.69l-4,7.44Z"/><path class="cls-2" d="M690.32,95.19l1.13-5.4a5.58,5.58,0,0,1-2.06.92l.17-.8a7,7,0,0,0,1.3-.68,6.76,6.76,0,0,0,1-.75,2.31,2.31,0,0,0,.36-.47h.51l-1.5,7.18Z"/><path class="cls-2" d="M702.48,88.46h-7.56V87.15h7.56v1.31Zm0,3.47h-7.56V90.62h7.56Z"/><polygon class="cls-6" points="757.84 101.47 758.84 94.28 758.99 94.28 761.91 100.17 764.81 94.28 764.92 94.28 765.95 101.47 765.26 101.47 764.54 96.33 762 101.47 761.81 101.47 759.24 96.28 758.55 101.47 757.84 101.47"/><polygon class="cls-6" points="767.03 101.47 768.03 94.28 768.18 94.28 771.1 100.17 774 94.28 774.11 94.28 775.14 101.47 774.45 101.47 773.73 96.33 771.19 101.47 771 101.47 768.43 96.28 767.74 101.47 767.03 101.47"/><path class="cls-2" d="M666.2,148.73h-20v.85h20a2.36,2.36,0,0,0,4.65,0h9.42v-.85h-9.42a2.36,2.36,0,0,0-1.9-1.9V33.68a2.34,2.34,0,0,0,1.9-1.9h9.42v-.85h-9.42a2.36,2.36,0,0,0-4.65,0h-20v.85h20a2.36,2.36,0,0,0,1.9,1.9V146.83A2.39,2.39,0,0,0,666.2,148.73Z"/><path class="cls-2" d="M620.82,190.83a2.36,2.36,0,0,0-1.94-2.33V168.57H618V188.5a2.39,2.39,0,0,0-1.9,1.9H163.66a2.39,2.39,0,0,0-1.9-1.9V168.57h-.85V188.5a2.36,2.36,0,0,0,0,4.65v9.44h.85v-9.44a2.36,2.36,0,0,0,1.9-1.9H616.13a2.36,2.36,0,0,0,1.9,1.9v9.44h.85v-9.44A2.35,2.35,0,0,0,620.82,190.83Z"/><rect class="cls-7" x="28.12" y="90.04" width="163.76" height="0.85"/><polygon class="cls-2" points="454.89 16.33 362.04 16.33 362.04 15.48 455.53 15.48 475.53 86.16 474.64 86.16 454.89 16.33"/><polygon class="cls-2" points="556.94 16.33 649.79 16.33 649.79 15.48 556.3 15.48 536.3 86.16 537.18 86.16 556.94 16.33"/></g></g></svg>